fira-sans_four-italic.sfdir

StartChar: exclam
Encoding: 33 33 987
Width: 234
Flags: MW
HStem: -4.42999 17.21 660.14 20G
VStem: 74.71 17.29
LayerCount: 2
Fore
SplineSet
110.28 189.43 m 1
 106.351 189.43 l 1
 174.211 680.14 l 1
 178.141 680.14 l 1
 110.28 189.43 l 1
83.501 12.7793 m 0
 88.501 12.7793 92.001 9.13965 92.001 4.2793 c 0
 92.001 -0.720703 88.2812 -4.43066 83.2109 -4.43066 c 0
 78.2812 -4.43066 74.7109 -0.791016 74.7109 3.99902 c 0
 74.7109 9.06934 78.501 12.7793 83.501 12.7793 c 0
EndSplineSet
EndChar
StartChar: quotedbl
Encoding: 34 34 2132
Width: 317
Flags: MW
HStem: 660 20G<148 152 152 152 283 287 287 287>
VStem: 116 171
LayerCount: 2
Back
Fore
SplineSet
116 446 m 1
 148 680 l 1
 152 680 l 1
 120 446 l 1
 116 446 l 1
251 446 m 1
 283 680 l 1
 287 680 l 1
 254 446 l 1
 251 446 l 1
EndSplineSet
EndChar

StartChar: numbersign
Encoding: 35 35 989
Width: 480
Flags: MW
HStem: 0 21G<43.0615 47.2812 43.0615 43.0615 276.99 281.28 276.99 276.99> 0 216.42 212.57 256.57 465.28 196.71
VStem: 7.85001 486.15
LayerCount: 2
Fore
SplineSet
407.19 465.28 m 1x98
 339.85 216.42 l 1x58
 422.85 216.42 l 1
 420.71 212.57 l 1
 338.8 212.57 l 1
 281.28 0 l 1
 276.99 0 l 1
 334.521 212.57 l 1
 104.801 212.57 l 1
 47.2812 0 l 1
 43.0615 0 l 1
 100.592 212.57 l 1xa8
 7.85156 212.57 l 1
 9.99121 216.42 l 1
 101.631 216.42 l 1x48
 168.98 465.28 l 1
 80.9209 465.28 l 1
 81.1406 469.141 l 1
 170.021 469.141 l 1xa8
 222.211 661.99 l 1
 226.431 661.99 l 1x98
 174.24 469.141 l 1
 403.95 469.141 l 1xa8
 456.141 661.99 l 1
 460.431 661.99 l 1x98
 408.24 469.141 l 1xa8
 494 469.141 l 1
 493.78 465.28 l 1
 407.19 465.28 l 1x98
402.899 465.28 m 1
 173.189 465.28 l 1
 105.84 216.42 l 1
 335.56 216.42 l 1
 402.899 465.28 l 1
EndSplineSet
Substitution2: "'onum' Oldstyle Figures lookup 22 subtable" numbersign.osf
Substitution2: "'tnum' Tabular Numbers lookup 21 subtable" numbersign.tf
AlternateSubs2: "'aalt' Access All Alternates lookup 1 subtable" numbersign.tf numbersign.osf
EndChar
StartChar: dollar
Encoding: 36 36 2206
Width: 528
GlyphClass: 2
Flags: MW
HStem: -144 139<197 201 197 197> -9 21G<178 216 220 220> 665 141<334 338 334 349.5>
VStem: 37 437
LayerCount: 2
Back
Fore
SplineSet
313 665 m 0x70
 176 665 125 583 125 504 c 0
 125 437 166 397 279 360 c 0
 385 324 439 272 439 189 c 0
 439 94 383 -8 220 -9 c 1
 201 -144 l 1
 197 -144 l 1xb0
 216 -9 l 1x70
 140 -9 79 21 37 67 c 1
 39 70 l 1
 81 25 141 -5 217 -5 c 0xb0
 380 -5 435 96 435 189 c 0
 435 270 381 320 278 356 c 0
 164 394 121 434 121 504 c 0
 121 583 172 669 313 669 c 2
 315 669 l 1
 334 806 l 1
 338 806 l 1
 319 669 l 1
 391 668 433 642 474 607 c 1
 470 603 l 1
 429 641 386 665 313 665 c 0x70
EndSplineSet
Substitution2: "'onum' Oldstyle Figures lookup 26 subtable" dollar.osf
Substitution2: "'tnum' Tabular Numbers lookup 25 subtable" dollar.tf
AlternateSubs2: "'aalt' Access All Alternates lookup 1 subtable" dollar.tf dollar.osf
EndChar
StartChar: percent
Encoding: 37 37 2271
Width: 747
GlyphClass: 2
Flags: MW
HStem: -9 21G<108 108 481 571.5> 669 20G<665 665> 671 20G<662 662>
VStem: 103 562<448.5 689>
LayerCount: 2
Back
Fore
SplineSet
662 691 m 1xb0
 665 689 l 1
 112 -10 l 1
 108 -9 l 1
 662 691 l 1xb0
251 670 m 0
 319 670 357 628 357 553 c 0
 357 481 322 366 209 366 c 0
 141 366 103 412 103 485 c 0
 103 557 139 670 251 670 c 0
251 667 m 0xd0
 140 667 107 554 107 485 c 0
 107 414 143 369 209 369 c 0
 320 369 353 484 353 554 c 0
 353 626 316 667 251 667 c 0xd0
557 296 m 0
 625 296 663 253 663 179 c 0
 663 107 628 -9 515 -9 c 0
 447 -9 409 37 409 111 c 0
 409 183 445 296 557 296 c 0
557 292 m 0
 446 292 413 179 413 110 c 0
 413 40 448 -5 515 -5 c 0
 626 -5 659 109 659 179 c 0
 659 252 622 292 557 292 c 0
EndSplineSet
Substitution2: "'onum' Oldstyle Figures lookup 26 subtable" percent.osf
Substitution2: "'tnum' Tabular Numbers lookup 25 subtable" percent.tf
AlternateSubs2: "'aalt' Access All Alternates lookup 1 subtable" percent.tf percent.osf
EndChar
StartChar: ampersand
Encoding: 38 38 2379
Width: 734
GlyphClass: 2
Flags: MW
HStem: -9 21G<226.5 328.5> -2 21G<615 615> 671 20G<302 393.5>
VStem: 110 509<1 183.5>
LayerCount: 2
Back
Fore
SplineSet
356 691 m 0x70
 431 691 488 642 488 573 c 0
 488 487 441 440 290 361 c 1
 511 118 l 1
 563 188 587 258 611 334 c 1
 615 333 l 1
 590 254 565 185 514 116 c 1
 619 1 l 1
 615 -2 l 1x70
 511 113 l 1
 450 34 379 -9 278 -9 c 0xb0
 175 -9 110 61 110 145 c 0
 110 222 143 293 283 362 c 1
 225 424 200 476 200 532 c 0
 200 606 248 691 356 691 c 0x70
356 687 m 0
 248 687 204 602 204 532 c 0
 204 478 227 428 287 363 c 1
 444 445 484 493 484 573 c 0
 484 640 428 687 356 687 c 0
286 359 m 1
 142 288 114 216 114 145 c 0
 114 63 177 -5 278 -5 c 0
 378 -5 447 37 509 116 c 1
 286 359 l 1
EndSplineSet
Substitution2: "'ss03' Style Set 3 lookup 36 subtable" ampersand.ss03
Substitution2: "'aalt' Access All Alternates lookup 0 subtable" ampersand.ss03
EndChar
StartChar: quotesingle
Encoding: 39 39 2133
Width: 183
Flags: MW
HStem: 660 20G<148 152 152 152>
VStem: 116 36
LayerCount: 2
Back
Fore
SplineSet
116 446 m 1
 148 680 l 1
 152 680 l 1
 120 446 l 1
 116 446 l 1
EndSplineSet
EndChar

StartChar: parenleft
Encoding: 40 40 1009
Width: 329
Flags: MW
HStem: -125.36 950.86
VStem: 83.19 245.45
LayerCount: 2
Fore
SplineSet
328.64 823.57 m 1
 221.64 692.57 126.859 576.43 95.8594 349.859 c 0
 63.999 123.43 125.719 7.29004 196.719 -123.71 c 1
 193.289 -125.36 l 1
 120.929 6.85938 59.9287 122.93 91.9287 350.14 c 0
 122.999 577.21 216.999 693.28 326.359 825.5 c 1
 328.64 823.57 l 1
EndSplineSet
Substitution2: "'case' Case-Sensitive Forms lookup 25 subtable" parenleft.case
Substitution2: "'dnom' Denominators lookup 14 subtable" parenleft.dnom
Substitution2: "'numr' Numerators lookup 13 subtable" parenleft.numr
Substitution2: "'sups' Superscript lookup 12 subtable" parenleftsuperior
Substitution2: "'subs' Subscript lookup 11 subtable" uni208D
AlternateSubs2: "'aalt' Access All Alternates lookup 1 subtable" uni208D parenleftsuperior parenleft.numr parenleft.dnom parenleft.case
EndChar

StartChar: parenright
Encoding: 41 41 1010
Width: 328
Flags: MW
HStem: -125.51 950.86
VStem: 24.93 245.12
LayerCount: 2
Fore
SplineSet
161.21 825.35 m 1
 232.64 693.14 292.789 577.061 261.649 349.841 c 0
 229.649 122.771 136.579 6.7002 28.1494 -125.51 c 1
 24.9297 -123.58 l 1
 131.93 7.41992 225.79 123.56 257.72 350.13 c 0
 288.72 576.56 228.79 692.71 157.86 823.71 c 1
 161.21 825.35 l 1
EndSplineSet
Substitution2: "'case' Case-Sensitive Forms lookup 25 subtable" parenright.case
Substitution2: "'dnom' Denominators lookup 14 subtable" parenright.dnom
Substitution2: "'numr' Numerators lookup 13 subtable" parenright.numr
Substitution2: "'sups' Superscript lookup 12 subtable" parenrightsuperior
Substitution2: "'subs' Subscript lookup 11 subtable" uni208E
AlternateSubs2: "'aalt' Access All Alternates lookup 1 subtable" uni208E parenrightsuperior parenright.numr parenright.dnom parenright.case
EndChar
StartChar: asterisk
Encoding: 42 42 2118
Width: 428
Flags: MW
HStem: 544 20G<254 254 260 260> 547 20G<255 255> 548 20G<259 259> 708 20G<277 281 281 281>
VStem: 108 310<613 613>
LayerCount: 2
Back
Fore
SplineSet
418 613 m 1x38
 260 564 l 1
 336 435 l 1
 332 433 l 1
 257 562 l 1
 145 433 l 1
 142 435 l 1
 254 564 l 1
 108 613 l 1
 110 617 l 1x98
 255 567 l 1x58
 277 728 l 1
 281 728 l 1
 259 568 l 1
 418 617 l 1
 418 613 l 1x38
EndSplineSet
EndChar
StartChar: plus
Encoding: 43 43 2273
Width: 479
GlyphClass: 2
Flags: MW
HStem: 173 160<225 229 225 225> 329 160<94 274 270 274 270 404 251 274>
VStem: 94 312<329 333>
LayerCount: 2
Back
Fore
SplineSet
274 489 m 1x60
 253 333 l 1xa0
 406 333 l 1
 404 329 l 1
 251 329 l 1x60
 229 173 l 1
 225 173 l 1xa0
 247 329 l 1x60
 94 329 l 1
 95 333 l 1
 248 333 l 1xa0
 270 489 l 1
 274 489 l 1x60
EndSplineSet
Substitution2: "'onum' Oldstyle Figures lookup 26 subtable" plus.osf
Substitution2: "'tnum' Tabular Numbers lookup 25 subtable" plus.tf
Substitution2: "'dnom' Denominators lookup 17 subtable" plus.dnom
Substitution2: "'numr' Numerators lookup 16 subtable" plus.numr
Substitution2: "'sups' Superscript lookup 15 subtable" uni207A
Substitution2: "'subs' Subscript lookup 14 subtable" uni208A
AlternateSubs2: "'aalt' Access All Alternates lookup 1 subtable" uni208A uni207A plus.numr plus.dnom plus.tf plus.osf
EndChar

StartChar: comma
Encoding: 44 44 985
Width: 124
Flags: MW
HStem: -4.22 17
VStem: 16.57 17.29
LayerCount: 2
Fore
SplineSet
25.3496 12.7803 m 0
 30.3496 12.7803 33.8584 9.13965 33.8584 4.2793 c 0
 33.8584 0.639648 32.498 -2.08008 29.8584 -7.21973 c 2
 -21.1416 -111.149 l 1
 -25.5713 -111.149 l 1
 23.209 -4.21973 l 1
 18.7793 -3.00977 16.5693 0.419922 16.5693 4.07031 c 0
 16.5693 9 20.3496 12.7803 25.3496 12.7803 c 0
EndSplineSet
EndChar
StartChar: hyphen
Encoding: 45 45 2168
Width: 400
Flags: MW
HStem: 310 4<92 324 92 323>
VStem: 92 232<310 314 314 314>
LayerCount: 2
Back
Fore
SplineSet
92 310 m 1
 92 314 l 1
 324 314 l 1
 323 310 l 1
 92 310 l 1
EndSplineSet
Substitution2: "'case' Case-Sensitive Forms lookup 29 subtable" hyphen.case
Substitution2: "'aalt' Access All Alternates lookup 0 subtable" hyphen.case
EndChar
StartChar: period
Encoding: 46 46 2129
Width: 124
Flags: MW
HStem: -4 17<22.5 27.5>
VStem: 17 17<1.5 6.5>
LayerCount: 2
Back
Fore
SplineSet
25 13 m 0
 30 13 34 9 34 4 c 0
 34 -1 30 -4 25 -4 c 0
 20 -4 17 -1 17 4 c 0
 17 9 20 13 25 13 c 0
EndSplineSet
EndChar
StartChar: slash
Encoding: 47 47 2135
Width: 520
Flags: MW
HStem: -92 886<97 449>
VStem: 93 360
LayerCount: 2
Back
Fore
SplineSet
449 794 m 1
 453 793 l 1
 97 -92 l 1
 93 -91 l 1
 449 794 l 1
EndSplineSet
Substitution2: "'frac' Diagonal Fractions lookup 18 subtable" fraction
Substitution2: "'aalt' Access All Alternates lookup 0 subtable" fraction
EndChar
StartChar: zero
Encoding: 48 48 2017
Width: 537
Flags: MW
HStem: -9 21G<180.5 330>
VStem: 81 396<134.5 524.5>
LayerCount: 2
Back
Fore
SplineSet
325 670 m 0
 427 670 477 597 477 452 c 0
 477 288 429 -9 231 -9 c 0
 130 -9 81 63 81 206 c 0
 81 374 127 670 325 670 c 0
325 666 m 0
 200 666 121 542 94 337 c 0
 87 284 85 243 85 206 c 0
 85 66 133 -5 231 -5 c 0
 360 -4 436 123 464 324 c 0
 472 378 473 422 473 453 c 0
 473 596 424 666 325 666 c 0
EndSplineSet
Substitution2: "'zero' Slashed Zero lookup 32 subtable" zero.zero
Substitution2: "'onum' Oldstyle Figures lookup 26 subtable" zero.osf
Substitution2: "'tnum' Tabular Numbers lookup 25 subtable" zero.tf
Substitution2: "'frac' Diagonal Fractions lookup 19 subtable" zero.numr
Substitution2: "'dnom' Denominators lookup 17 subtable" zero.dnom
Substitution2: "'numr' Numerators lookup 16 subtable" zero.numr
Substitution2: "'sups' Superscript lookup 15 subtable" uni2070
Substitution2: "'subs' Subscript lookup 14 subtable" uni2080
AlternateSubs2: "'aalt' Access All Alternates lookup 1 subtable" uni2080 uni2070 zero.numr zero.dnom zero.tf zero.osf zero.zero
EndChar
StartChar: one
Encoding: 49 49 2018
Width: 386
Flags: MW
HStem: 0 21G<206 210 206 206>
VStem: 99 204<543 660>
LayerCount: 2
Back
Fore
SplineSet
303 660 m 1
 210 0 l 1
 206 0 l 1
 298 656 l 1
 101 539 l 1
 99 543 l 1
 299 660 l 1
 303 660 l 1
EndSplineSet
Substitution2: "'onum' Oldstyle Figures lookup 26 subtable" one.osf
Substitution2: "'tnum' Tabular Numbers lookup 25 subtable" one.tf
Substitution2: "'frac' Diagonal Fractions lookup 19 subtable" one.numr
Substitution2: "'dnom' Denominators lookup 17 subtable" one.dnom
Substitution2: "'numr' Numerators lookup 16 subtable" one.numr
Substitution2: "'sups' Superscript lookup 15 subtable" uni00B9
Substitution2: "'subs' Subscript lookup 14 subtable" uni2081
AlternateSubs2: "'aalt' Access All Alternates lookup 1 subtable" uni2081 uni00B9 one.numr one.dnom one.tf one.osf
EndChar

StartChar: two
Encoding: 50 50 881
Width: 463
Flags: MW
HStem: 0 21G
VStem: 14.58 409.78
LayerCount: 2
Fore
SplineSet
277.64 670.28 m 0
 368.35 670.28 424.359 608.5 424.359 527.86 c 0
 424.359 405.57 364.649 343.221 20.499 3.93066 c 1
 359.429 4.00098 l 1
 358.648 0.000976562 l 1
 14.5781 0.000976562 l 1
 14.8584 4.00098 l 1
 364.288 348.291 420.288 409.221 420.288 527.791 c 0
 420.288 606.641 365.788 666.431 277.578 666.431 c 0
 203.858 666.431 152.929 636.28 99.5791 585.57 c 1
 96.1494 587.851 l 1
 150.499 639.641 202.859 670.28 277.64 670.28 c 0
EndSplineSet
Substitution2: "'onum' Oldstyle Figures lookup 22 subtable" two.osf
Substitution2: "'tnum' Tabular Numbers lookup 21 subtable" two.tf
Substitution2: "'frac' Diagonal Fractions lookup 16 subtable" two.numr
Substitution2: "'dnom' Denominators lookup 14 subtable" two.dnom
Substitution2: "'numr' Numerators lookup 13 subtable" two.numr
Substitution2: "'sups' Superscript lookup 12 subtable" twosuperior
Substitution2: "'subs' Subscript lookup 11 subtable" twoinferior
AlternateSubs2: "'aalt' Access All Alternates lookup 1 subtable" twoinferior twosuperior two.numr two.dnom two.tf two.osf
EndChar

StartChar: three
Encoding: 51 51 882
Width: 470
Flags: MW
HStem: -9.07001 21G
VStem: 7.36 406.57
LayerCount: 2
Fore
SplineSet
273 670.28 m 0
 363.5 670.28 413.929 617.001 413.929 538.711 c 0
 413.929 456.361 360.429 361.361 245.639 353.001 c 1
 328.929 347.361 385.858 300.211 385.858 203.211 c 0
 385.858 120.711 328.639 -9.06934 174.709 -9.06934 c 0
 96.709 -9.06934 49.3594 15.2803 7.35938 72.1406 c 1
 10.8594 74.2803 l 1
 52.7891 17.3506 98.7891 -5.21973 174.639 -5.21973 c 0
 327.789 -5.21973 381.789 124.851 381.789 203.351 c 0
 381.789 301.851 321.219 351.001 224.929 351.001 c 2
 190.499 351.001 l 1
 191.069 354.781 l 1
 227.64 354.781 l 2
 353.859 354.781 409.859 457.001 409.859 538.781 c 0
 409.859 615.211 360.069 666.571 272.93 666.571 c 0
 215.71 666.571 159.36 646.501 104.21 596.711 c 1
 101.14 599.141 l 1
 156.14 648.931 213 670.28 273 670.28 c 0
EndSplineSet
Substitution2: "'onum' Oldstyle Figures lookup 22 subtable" three.osf
Substitution2: "'tnum' Tabular Numbers lookup 21 subtable" three.tf
Substitution2: "'frac' Diagonal Fractions lookup 16 subtable" three.numr
Substitution2: "'dnom' Denominators lookup 14 subtable" three.dnom
Substitution2: "'numr' Numerators lookup 13 subtable" three.numr
Substitution2: "'sups' Superscript lookup 12 subtable" threesuperior
Substitution2: "'subs' Subscript lookup 11 subtable" threeinferior
AlternateSubs2: "'aalt' Access All Alternates lookup 1 subtable" threeinferior threesuperior three.numr three.dnom three.tf three.osf
EndChar

StartChar: four
Encoding: 52 52 883
Width: 494
Flags: MW
HStem: 0 198.92
VStem: 45.5 400.57
LayerCount: 2
Fore
SplineSet
444.86 195.07 m 1
 350.681 195.07 l 1
 323.141 0 l 1
 319.141 0 l 1
 346.871 195.07 l 1
 45.501 195.07 l 1
 46.7109 199.641 l 1
 320.281 670.28 l 1
 324.001 668.57 l 1
 50.9307 198.92 l 1
 347.421 198.92 l 1
 378.431 417.99 l 1
 382.141 417.99 l 1
 351.221 198.92 l 1
 446.07 198.92 l 1
 444.86 195.07 l 1
EndSplineSet
Substitution2: "'onum' Oldstyle Figures lookup 22 subtable" four.osf
Substitution2: "'tnum' Tabular Numbers lookup 21 subtable" four.tf
Substitution2: "'frac' Diagonal Fractions lookup 16 subtable" four.numr
Substitution2: "'dnom' Denominators lookup 14 subtable" four.dnom
Substitution2: "'numr' Numerators lookup 13 subtable" four.numr
Substitution2: "'sups' Superscript lookup 12 subtable" foursuperior
Substitution2: "'subs' Subscript lookup 11 subtable" fourinferior
AlternateSubs2: "'aalt' Access All Alternates lookup 1 subtable" fourinferior foursuperior four.numr four.dnom four.tf four.osf
EndChar

StartChar: five
Encoding: 53 53 884
Width: 470
Flags: MW
HStem: -9.07001 21G 405.78 254.36
VStem: 21.36 415.07
LayerCount: 2
Fore
SplineSet
435.78 656.28 m 1
 150.433 656.291 l 1
 109.713 363.361 l 1
 148.143 390.711 189.933 409.571 247.572 409.571 c 0
 344.002 409.571 397.432 352.571 397.432 256.071 c 0
 397.432 152.281 344.792 -9.06836 174.722 -9.06836 c 0
 107.792 -9.06836 54.8623 18.0713 21.3623 63.291 c 1
 24.8623 65.501 l 1
 56.2119 21.501 109.432 -5.20898 174.781 -5.20898 c 0
 346.001 -5.20898 393.351 159.721 393.351 256.07 c 0
 393.351 349.931 341.351 405.78 247.501 405.78 c 0
 190.781 405.78 152.211 389.07 109.141 359.351 c 1
 105.501 359.351 l 1
 146.641 660.141 l 1
 436.431 660.141 l 1
 435.78 656.28 l 1
EndSplineSet
Substitution2: "'onum' Oldstyle Figures lookup 22 subtable" five.osf
Substitution2: "'tnum' Tabular Numbers lookup 21 subtable" five.tf
Substitution2: "'frac' Diagonal Fractions lookup 16 subtable" five.numr
Substitution2: "'dnom' Denominators lookup 14 subtable" five.dnom
Substitution2: "'numr' Numerators lookup 13 subtable" five.numr
Substitution2: "'sups' Superscript lookup 12 subtable" fivesuperior
Substitution2: "'subs' Subscript lookup 11 subtable" fiveinferior
AlternateSubs2: "'aalt' Access All Alternates lookup 1 subtable" fiveinferior fivesuperior five.numr five.dnom five.tf five.osf
EndChar
StartChar: six
Encoding: 54 54 2023
Width: 505
Flags: MW
HStem: -9 21G<176.5 311.5> 420 250<283.5 339.5>
VStem: 77 375
LayerCount: 2
Back
Fore
SplineSet
356 667 m 0
 212 667 118 504 87 291 c 1
 139 361 207 423 297 423 c 0
 384 423 438 372 438 269 c 0
 438 165 391 -9 232 -9 c 0
 121 -9 77 80 77 201 c 0
 77 228 79 257 83 287 c 0
 114 508 211 670 356 670 c 0
 398 670 429 656 452 634 c 1
 449 632 l 1
 427 653 397 667 356 667 c 0
297 420 m 0
 209 420 139 357 86 285 c 1
 82 256 81 227 81 201 c 0
 81 82 123 -5 232 -5 c 0
 390 -5 434 171 434 269 c 0
 434 370 382 420 297 420 c 0
EndSplineSet
Substitution2: "'onum' Oldstyle Figures lookup 26 subtable" six.osf
Substitution2: "'tnum' Tabular Numbers lookup 25 subtable" six.tf
Substitution2: "'frac' Diagonal Fractions lookup 19 subtable" six.numr
Substitution2: "'dnom' Denominators lookup 17 subtable" six.dnom
Substitution2: "'numr' Numerators lookup 16 subtable" six.numr
Substitution2: "'sups' Superscript lookup 15 subtable" uni2076
Substitution2: "'subs' Subscript lookup 14 subtable" uni2086
AlternateSubs2: "'aalt' Access All Alternates lookup 1 subtable" uni2086 uni2076 six.numr six.dnom six.tf six.osf
EndChar

StartChar: seven
Encoding: 55 55 886
Width: 435
Flags: MW
HStem: -3.42999 21G
VStem: 61.43 380
LayerCount: 2
Fore
SplineSet
441.21 656.5 m 1
 65.3594 -5.06934 l 1
 61.4297 -3.42969 l 1
 436.779 656.29 l 1
 100.069 656.29 l 1
 100.279 660.14 l 1
 441.43 660.14 l 1
 441.21 656.5 l 1
EndSplineSet
Substitution2: "'onum' Oldstyle Figures lookup 22 subtable" seven.osf
Substitution2: "'tnum' Tabular Numbers lookup 21 subtable" seven.tf
Substitution2: "'frac' Diagonal Fractions lookup 16 subtable" seven.numr
Substitution2: "'dnom' Denominators lookup 14 subtable" seven.dnom
Substitution2: "'numr' Numerators lookup 13 subtable" seven.numr
Substitution2: "'sups' Superscript lookup 12 subtable" sevensuperior
Substitution2: "'subs' Subscript lookup 11 subtable" seveninferior
AlternateSubs2: "'aalt' Access All Alternates lookup 1 subtable" seveninferior sevensuperior seven.numr seven.dnom seven.tf seven.osf
EndChar

StartChar: eight
Encoding: 56 56 887
Width: 523
Flags: MW
HStem: -9.07001 21G
VStem: 55.21 408.64
LayerCount: 2
Fore
SplineSet
309.26 339.55 m 1
 402.8 299.7 442.989 261.351 442.989 183.721 c 0
 442.989 78.5703 355.77 -9.06934 226.92 -9.06934 c 0
 117.56 -9.06934 55.21 48.6406 55.21 137.86 c 0
 55.21 223.21 92.79 304.87 241.021 364.7 c 1
 162.73 397.59 133.28 437.56 133.28 503.64 c 0
 133.28 600.569 224.71 670.279 319.06 670.279 c 0
 400.199 670.279 463.85 624.209 463.85 537.859 c 0
 463.85 465.529 437.279 401.609 309.26 339.55 c 1
137.269 503.501 m 0
 137.269 430.151 173.409 395.931 253.339 362.931 c 2
 305.479 341.311 l 1
 434.209 403.221 459.769 467.98 459.769 537.931 c 0
 459.769 622.001 398.408 666.501 319.059 666.501 c 0
 226.488 666.501 137.269 598.501 137.269 503.501 c 0
226.979 -5.13965 m 0
 350.839 -5.13965 438.908 77.8496 438.908 183.85 c 0
 438.908 270.35 386.688 304.35 283.049 346.85 c 1
 245.099 362.819 l 1
 91.0088 300.64 59.2588 218.08 59.2588 137.72 c 0
 59.2588 50.29 120.188 -5.13965 226.979 -5.13965 c 0
EndSplineSet
Substitution2: "'onum' Oldstyle Figures lookup 22 subtable" eight.osf
Substitution2: "'tnum' Tabular Numbers lookup 21 subtable" eight.tf
Substitution2: "'frac' Diagonal Fractions lookup 16 subtable" eight.numr
Substitution2: "'dnom' Denominators lookup 14 subtable" eight.dnom
Substitution2: "'numr' Numerators lookup 13 subtable" eight.numr
Substitution2: "'sups' Superscript lookup 12 subtable" eightsuperior
Substitution2: "'subs' Subscript lookup 11 subtable" eightinferior
AlternateSubs2: "'aalt' Access All Alternates lookup 1 subtable" eightinferior eightsuperior eight.numr eight.dnom eight.tf eight.osf
EndChar
StartChar: nine
Encoding: 57 57 2026
Width: 500
Flags: MW
HStem: -8 21G<87 87>
VStem: 441 10
LayerCount: 2
Back
Fore
SplineSet
302 670 m 0
 408 670 451 601 451 484 c 0
 451 298 387 77 88 -11 c 1
 87 -8 l 1
 258 43 406 154 441 384 c 1
 388 302 317 260 233 260 c 0
 148 260 90 321 90 422 c 0
 90 525 151 670 302 670 c 0
234 264 m 0
 316 264 389 308 441 392 c 1
 445 424 447 455 447 483 c 0
 447 599 406 667 302 667 c 0
 153 667 94 522 94 422 c 0
 94 323 150 264 234 264 c 0
EndSplineSet
Substitution2: "'onum' Oldstyle Figures lookup 26 subtable" nine.osf
Substitution2: "'tnum' Tabular Numbers lookup 25 subtable" nine.tf
Substitution2: "'frac' Diagonal Fractions lookup 19 subtable" nine.numr
Substitution2: "'dnom' Denominators lookup 17 subtable" nine.dnom
Substitution2: "'numr' Numerators lookup 16 subtable" nine.numr
Substitution2: "'sups' Superscript lookup 15 subtable" uni2079
Substitution2: "'subs' Subscript lookup 14 subtable" uni2089
AlternateSubs2: "'aalt' Access All Alternates lookup 1 subtable" uni2089 uni2079 nine.numr nine.dnom nine.tf nine.osf
EndChar

StartChar: colon
Encoding: 58 58 984
Width: 124
Flags: MW
HStem: -4.42999 17.21 423.14 17.21
VStem: 16.57 17.29 76.43 17.28
LayerCount: 2
Fore
SplineSet
85.21 440.35 m 0
 90.21 440.35 93.71 436.71 93.71 431.85 c 0
 93.71 426.85 90 423.14 84.9297 423.14 c 0
 80 423.14 76.4297 426.779 76.4297 431.569 c 0
 76.4297 436.64 80.21 440.35 85.21 440.35 c 0
25.3604 12.7793 m 0
 30.3604 12.7793 33.8604 9.13965 33.8604 4.2793 c 0
 33.8604 -0.720703 30.1406 -4.43066 25.0703 -4.43066 c 0
 20.1406 -4.43066 16.5703 -0.791016 16.5703 3.99902 c 0
 16.5703 9.06934 20.3604 12.7793 25.3604 12.7793 c 0
EndSplineSet
EndChar

StartChar: semicolon
Encoding: 59 59 995
Width: 124
Flags: MW
HStem: -4.22 17 -4.22 21G 423.14 17.21
VStem: 16.57 17.29 76.43 17.28
LayerCount: 2
Fore
SplineSet
85.21 440.35 m 0x78
 90.21 440.35 93.71 436.71 93.71 431.85 c 0
 93.71 426.85 90 423.14 84.9297 423.14 c 0
 80 423.14 76.4297 426.779 76.4297 431.569 c 0
 76.4297 436.64 80.21 440.35 85.21 440.35 c 0x78
25.3604 12.7793 m 0xb8
 30.3604 12.7793 33.8594 9.13867 33.8594 4.27832 c 0
 33.8594 0.638672 32.5098 -2.08105 29.8594 -7.2207 c 2
 -21.1406 -111.15 l 1
 -25.5703 -111.15 l 1
 23.2197 -4.2207 l 1
 18.79 -3.01074 16.5703 0.418945 16.5703 4.06934 c 0
 16.5703 8.99902 20.3604 12.7793 25.3604 12.7793 c 0xb8
EndSplineSet
EndChar

StartChar: less
Encoding: 60 60 1103
Width: 494
Flags: MW
HStem: 173.35 315.29
VStem: 98.78 339.07
LayerCount: 2
Fore
SplineSet
437.85 484.93 m 1
 103.141 333 l 1
 393.931 177.07 l 1
 391.931 173.351 l 1
 98.7803 331.28 l 1
 99 334.71 l 1
 436.35 488.64 l 1
 437.85 484.93 l 1
EndSplineSet
Substitution2: "'onum' Oldstyle Figures lookup 22 subtable" less.osf
Substitution2: "'tnum' Tabular Numbers lookup 21 subtable" less.tf
AlternateSubs2: "'aalt' Access All Alternates lookup 1 subtable" less.tf less.osf
EndChar

StartChar: equal
Encoding: 61 61 1095
Width: 479
Flags: MW
HStem: 253.64 154.64
VStem: 83.14 333.43
LayerCount: 2
Fore
SplineSet
106.43 408.28 m 1
 416.57 408.28 l 1
 415.36 404.351 l 1
 105.21 404.351 l 1
 106.43 408.28 l 1
84.3604 257.57 m 1
 394.501 257.57 l 1
 393.291 253.641 l 1
 83.1406 253.641 l 1
 84.3604 257.57 l 1
EndSplineSet
Substitution2: "'onum' Oldstyle Figures lookup 22 subtable" equal.osf
Substitution2: "'tnum' Tabular Numbers lookup 21 subtable" equal.tf
Substitution2: "'dnom' Denominators lookup 14 subtable" equal.dnom
Substitution2: "'numr' Numerators lookup 13 subtable" equal.numr
Substitution2: "'sups' Superscript lookup 12 subtable" equalsuperior
AlternateSubs2: "'aalt' Access All Alternates lookup 1 subtable" equalsuperior equal.numr equal.dnom equal.tf equal.osf
EndChar
StartChar: greater
Encoding: 62 62 2256
Width: 496
GlyphClass: 2
Flags: MW
HStem: 173 316<79 123>
VStem: 77 341<177 335>
LayerCount: 2
Back
Fore
SplineSet
123 489 m 1
 418 335 l 1
 418 331 l 1
 79 173 l 1
 77 177 l 1
 414 333 l 1
 121 485 l 1
 123 489 l 1
EndSplineSet
Substitution2: "'onum' Oldstyle Figures lookup 26 subtable" greater.osf
Substitution2: "'tnum' Tabular Numbers lookup 25 subtable" greater.tf
AlternateSubs2: "'aalt' Access All Alternates lookup 1 subtable" greater.tf greater.osf
EndChar

StartChar: question
Encoding: 63 63 991
Width: 447
Flags: MW
HStem: -5.42999 17.21 670.14 20G
VStem: 179.93 17.28
LayerCount: 2
Fore
SplineSet
295.57 690.14 m 0
 375.351 690.14 417.001 636.43 417.001 580.5 c 0
 417.001 399.43 191.001 415.14 192.851 267.359 c 0
 192.851 248.14 196.851 228.43 202.641 209.859 c 1
 198.851 209.359 l 1
 192.851 228.359 188.851 248.359 188.851 267.359 c 0
 187.001 417.289 412.931 401.569 412.931 580.43 c 0
 412.931 635.43 372.86 686.359 295.57 686.359 c 0
 226.5 686.359 179.57 661.289 124.57 609.289 c 1
 121.29 611.569 l 1
 176.64 664.069 225.21 690.14 295.57 690.14 c 0
188.71 11.7793 m 0
 193.71 11.7793 197.21 8.13965 197.21 3.2793 c 0
 197.21 -1.7207 193.5 -5.43066 188.43 -5.43066 c 0
 183.5 -5.43066 179.93 -1.79102 179.93 2.99902 c 0
 179.93 8.06934 183.71 11.7793 188.71 11.7793 c 0
EndSplineSet
EndChar
StartChar: at
Encoding: 64 64 2378
Width: 1020
GlyphClass: 2
Flags: MW
HStem: -193 213<419.5 492.5 419.5 504> 470 221<473 581>
VStem: 98 231<125 238.5 125 280>
LayerCount: 2
Back
Fore
SplineSet
585 691 m 0
 816 691 925 544 925 363 c 0
 925 214 865 14 720 14 c 0
 633 14 621 104 627 159 c 1
 585 66 528 16 456 16 c 0
 381 16 325 70 325 179 c 0
 325 301 388 474 556 474 c 0
 606 474 644 457 669 442 c 1
 632 176 l 2
 619 75 653 18 720 18 c 0
 862 18 921 216 921 363 c 0
 921 542 813 687 585 687 c 0
 242 687 102 382 102 177 c 0
 102 -51 261 -189 473 -189 c 0
 534 -189 605 -177 657 -158 c 1
 657 -161 l 1
 606 -180 535 -193 473 -193 c 0
 259 -193 98 -53 98 177 c 0
 98 383 240 691 585 691 c 0
456 20 m 0
 529 20 585 73 627 167 c 1
 665 440 l 1
 642 454 606 470 556 470 c 0
 390 470 329 299 329 178 c 0
 329 72 383 20 456 20 c 0
EndSplineSet
EndChar

StartChar: A
Encoding: 65 65 1
Width: 556
GlyphClass: 2
Flags: MW
HStem: 0 21G<-1.86035 2.42969 -1.86035 -1.86035 481.64 481.64 481.64 485.79> 660.14 20G
VStem: -1.86 487.65
AnchorPoint: "Anchor-11" 0 0 basechar 0
AnchorPoint: "Anchor-10" 198 517 basechar 0
AnchorPoint: "Anchor-9" 337 680 basechar 0
AnchorPoint: "Anchor-8" 496 0 basechar 0
LayerCount: 2
Fore
SplineSet
435.85 212 m 1
 107.229 212 l 1
 2.42969 0 l 1
 -1.86035 -0 l 1
 334.79 680.14 l 1
 338.43 680.14 l 1
 485.79 0 l 1
 481.64 0 l 1
 435.85 212 l 1
435 215.93 m 1
 335.93 674.64 l 1
 109.17 215.93 l 1
 435 215.93 l 1
EndSplineSet
Substitution2: "Single Substitution lookup 30 subtable" ordfeminine
Substitution2: "'c2sc' Capitals to Small Capitals lookup 23 subtable" a.sc
AlternateSubs2: "'aalt' Access All Alternates lookup 1 subtable" ordfeminine a.sc
Position2: "'cpsp' Capital Spacing lookup 0 subtable" dx=5 dy=0 dh=10 dv=0
EndChar
StartChar: B
Encoding: 66 66 36
Width: 582
GlyphClass: 2
Flags: MW
HStem: 0 21G<93 252 93 93> 358 322<188 324 324 332 147 324> 660 20G<188 324 324 386.5>
VStem: 93 424
AnchorPoint: "Anchor-14" 0 0 basechar 0
AnchorPoint: "Anchor-13" 0 0 basechar 0
AnchorPoint: "Anchor-12" 338 680 basechar 0
AnchorPoint: "Anchor-11" 0 0 basechar 0
AnchorPoint: "Anchor-10" 0 0 basechar 0
LayerCount: 2
Back
Fore
SplineSet
353 360 m 1xb0
 439 355 508 305 508 212 c 0
 508 104 447 0 252 0 c 2
 93 0 l 1
 188 680 l 1
 324 680 l 2
 449 680 517 630 517 541 c 0
 517 440 441 371 353 360 c 1xb0
192 676 m 1
 148 362 l 1
 335 362 l 2
 409 362 513 421 513 540 c 0
 513 627 448 676 325 676 c 2
 192 676 l 1
253 4 m 2
 440 4 504 102 504 212 c 0
 504 304 434 358 332 358 c 2
 147 358 l 1xd0
 98 4 l 1
 253 4 l 2
EndSplineSet
Substitution2: "'c2sc' Capitals to Small Capitals lookup 27 subtable" b.sc
Substitution2: "'aalt' Access All Alternates lookup 0 subtable" b.sc
Position2: "'cpsp' Capital Spacing lookup 0 subtable" dx=5 dy=0 dh=10 dv=0
EndChar

StartChar: C
Encoding: 67 67 14
Width: 531
GlyphClass: 2
Flags: MW
HStem: -9.07001 21G 670.15 20G
VStem: 90.21 457.72
AnchorPoint: "Anchor-11" 306 0 basechar 0
AnchorPoint: "Anchor-10" 0 0 basechar 0
AnchorPoint: "Anchor-9" 403 680 basechar 0
AnchorPoint: "Anchor-8" 0 0 basechar 0
LayerCount: 2
Fore
SplineSet
403 690.14 m 0
 477 690.14 517.21 664.36 547.93 633.011 c 1
 545.64 629.581 l 1
 512.93 661.931 477 686.221 403.14 686.221 c 0
 167.5 686.221 94.2803 424.07 94.2803 253.5 c 0
 94.2803 85.0703 176.28 -5.06934 305.07 -5.06934 c 0
 385.71 -5.06934 437.07 26.3604 473.71 53.8604 c 1
 475.93 50.29 l 1
 439 22.5 386.64 -9.07031 305 -9.07031 c 0
 172.93 -9.07031 90.21 83 90.21 253.43 c 0
 90.21 429.79 166 690.14 403 690.14 c 0
EndSplineSet
Substitution2: "'c2sc' Capitals to Small Capitals lookup 23 subtable" c.sc
Substitution2: "'aalt' Access All Alternates lookup 0 subtable" c.sc
Position2: "'cpsp' Capital Spacing lookup 0 subtable" dx=5 dy=0 dh=10 dv=0
EndChar
StartChar: D
Encoding: 68 68 50
Width: 614
GlyphClass: 2
Flags: MW
HStem: 0 21G<93 206 93 93> 660 20G<188 294 294 358>
VStem: 93 455<0 537>
AnchorPoint: "Anchor-14" 322 340 basechar 0
AnchorPoint: "Anchor-13" 0 0 basechar 0
AnchorPoint: "Anchor-12" 349 680 basechar 0
AnchorPoint: "Anchor-11" 0 0 basechar 0
AnchorPoint: "Anchor-10" 252 0 basechar 0
LayerCount: 2
Back
Fore
SplineSet
294 680 m 2
 422 680 548 638 548 436 c 0
 548 232 462 0 206 0 c 2
 93 0 l 1
 188 680 l 1
 294 680 l 2
294 676 m 2
 192 676 l 1
 98 4 l 1
 206 4 l 2
 459 4 544 234 544 436 c 0
 544 635 420 676 294 676 c 2
EndSplineSet
Substitution2: "'c2sc' Capitals to Small Capitals lookup 27 subtable" d.sc
Substitution2: "'aalt' Access All Alternates lookup 0 subtable" d.sc
Position2: "'cpsp' Capital Spacing lookup 0 subtable" dx=5 dy=0 dh=10 dv=0
EndChar
StartChar: E
Encoding: 69 69 65
Width: 495
GlyphClass: 2
Flags: MW
HStem: 0 21G<93 410 93 93> 359 321<188 408 148 495>
VStem: 93 402
AnchorPoint: "Anchor-14" 0 0 basechar 0
AnchorPoint: "Anchor-13" 0 0 basechar 0
AnchorPoint: "Anchor-12" 343 680 basechar 0
AnchorPoint: "Anchor-11" 390 0 basechar 0
AnchorPoint: "Anchor-10" 248 0 basechar 0
LayerCount: 2
Back
Fore
SplineSet
495 680 m 1
 494 676 l 1
 192 676 l 1
 148 363 l 1
 408 363 l 1
 408 359 l 1
 148 359 l 1
 98 4 l 1
 410 4 l 1
 410 0 l 1
 93 0 l 1
 188 680 l 1
 495 680 l 1
EndSplineSet
Substitution2: "'c2sc' Capitals to Small Capitals lookup 27 subtable" e.sc
Substitution2: "'aalt' Access All Alternates lookup 0 subtable" e.sc
Position2: "'cpsp' Capital Spacing lookup 0 subtable" dx=5 dy=0 dh=10 dv=0
EndChar

StartChar: F
Encoding: 70 70 34
Width: 470
GlyphClass: 2
Flags: MW
HStem: 0 21G<93.21 97.2803 93.21 93.21> 344 336.14 660.14 20G
VStem: 93.21 396.64
LayerCount: 2
Fore
SplineSet
489.28 676.21 m 1xb0
 192.07 676.21 l 1
 145.5 347.85 l 1
 402.78 347.85 l 1
 402.5 344 l 1
 145.21 344 l 1xd0
 97.2803 0 l 1
 93.21 -0 l 1
 188.28 680.14 l 1
 489.851 680.14 l 1
 489.28 676.21 l 1xb0
EndSplineSet
Substitution2: "'c2sc' Capitals to Small Capitals lookup 23 subtable" f.sc
Substitution2: "'aalt' Access All Alternates lookup 0 subtable" f.sc
Position2: "'cpsp' Capital Spacing lookup 0 subtable" dx=5 dy=0 dh=10 dv=0
EndChar

StartChar: G
Encoding: 71 71 35
Width: 600
GlyphClass: 2
Flags: MW
HStem: -9.08 21G 670.14 20G
VStem: 90.21 465.21
AnchorPoint: "Anchor-11" 303 0 basechar 0
AnchorPoint: "Anchor-10" 0 0 basechar 0
AnchorPoint: "Anchor-9" 398 680 basechar 0
AnchorPoint: "Anchor-8" 0 0 basechar 0
LayerCount: 2
Fore
SplineSet
404.14 690.14 m 0
 466.569 690.14 511.141 671.062 555.421 634.701 c 1
 552.991 631.352 l 1
 509.211 667.422 465.211 686.202 404.141 686.202 c 0
 189.28 686.202 94.3506 444.492 94.3506 256.132 c 0
 94.3506 84.9219 178.001 -5.14844 316.931 -5.14844 c 0
 387.501 -5.14844 442.851 18.1318 486.28 41.2822 c 1
 529 339.282 l 1
 378.64 339.282 l 1
 378.569 343.212 l 1
 533.359 343.212 l 1
 490.289 39.1416 l 1
 445.069 14.4912 386.359 -9.0791 316.93 -9.0791 c 0
 175.71 -9.0791 90.21 82.8506 90.21 256.28 c 0
 90.21 451 189 690.14 404.14 690.14 c 0
EndSplineSet
Substitution2: "'c2sc' Capitals to Small Capitals lookup 23 subtable" g.sc
Substitution2: "'aalt' Access All Alternates lookup 0 subtable" g.sc
Position2: "'cpsp' Capital Spacing lookup 0 subtable" dx=5 dy=0 dh=10 dv=0
EndChar

StartChar: H
Encoding: 72 72 40
Width: 655
GlyphClass: 2
Flags: MW
HStem: 0 21G<93.2197 97.29 93.2197 93.2197 485.14 485.14 485.14 489.21> 660.14 20G
VStem: 93.22 491.06
AnchorPoint: "Anchor-11" 0 0 basechar 0
AnchorPoint: "Anchor-10" 88 517 basechar 0
AnchorPoint: "Anchor-9" 385 680 basechar 0
AnchorPoint: "Anchor-8" 0 0 basechar 0
LayerCount: 2
Fore
SplineSet
536 363.57 m 1
 148.14 363.57 l 1
 97.29 0 l 1
 93.2197 -0 l 1
 188.29 680.14 l 1
 192.36 680.14 l 1
 148.431 367.5 l 1
 536.28 367.5 l 1
 580.21 680.14 l 1
 584.28 680.14 l 1
 489.21 0 l 1
 485.14 0 l 1
 536 363.57 l 1
EndSplineSet
Substitution2: "'c2sc' Capitals to Small Capitals lookup 23 subtable" h.sc
Substitution2: "'aalt' Access All Alternates lookup 0 subtable" h.sc
Position2: "'cpsp' Capital Spacing lookup 0 subtable" dx=5 dy=0 dh=10 dv=0
EndChar
StartChar: I
Encoding: 73 73 115
Width: 263
GlyphClass: 2
Flags: MW
HStem: 0 21G<93 97 93 93> 660 20G<188 192 192 192>
VStem: 93 99
AnchorPoint: "Anchor-14" 0 0 basechar 0
AnchorPoint: "Anchor-13" 0 0 basechar 0
AnchorPoint: "Anchor-12" 190 680 basechar 0
AnchorPoint: "Anchor-11" 106 0 basechar 0
AnchorPoint: "Anchor-10" 95 0 basechar 0
LayerCount: 2
Back
Fore
SplineSet
192 680 m 1
 97 0 l 1
 93 0 l 1
 188 680 l 1
 192 680 l 1
EndSplineSet
Substitution2: "'c2sc' Capitals to Small Capitals lookup 27 subtable" i.sc
Substitution2: "'aalt' Access All Alternates lookup 0 subtable" i.sc
Position2: "'cpsp' Capital Spacing lookup 0 subtable" dx=5 dy=0 dh=10 dv=0
EndChar
StartChar: J
Encoding: 74 74 134
Width: 274
GlyphClass: 2
Flags: MW
HStem: 660 20G<206 210 210 210>
VStem: -20 230
AnchorPoint: "Anchor-14" 0 0 basechar 0
AnchorPoint: "Anchor-13" 0 0 basechar 0
AnchorPoint: "Anchor-12" 209 680 basechar 0
AnchorPoint: "Anchor-11" 0 0 basechar 0
AnchorPoint: "Anchor-10" 0 0 basechar 0
LayerCount: 2
Back
Fore
SplineSet
210 680 m 1
 127 85 l 2
 114 -8 89 -50 -18 -92 c 1
 -20 -88 l 1
 85 -48 110 -6 123 86 c 2
 206 680 l 1
 210 680 l 1
EndSplineSet
Substitution2: "'c2sc' Capitals to Small Capitals lookup 27 subtable" j.sc
Substitution2: "'aalt' Access All Alternates lookup 0 subtable" j.sc
Position2: "'cpsp' Capital Spacing lookup 0 subtable" dx=5 dy=0 dh=10 dv=0
EndChar
StartChar: K
Encoding: 75 75 137
Width: 505
GlyphClass: 2
Flags: MW
HStem: 0 21G<449 455 449 449> 660 20G<188 192 192 192 528 534 534 534>
VStem: 93 441
AnchorPoint: "Anchor-14" 0 0 basechar 0
AnchorPoint: "Anchor-13" 0 0 basechar 0
AnchorPoint: "Anchor-12" 343 680 basechar 0
AnchorPoint: "Anchor-11" 0 0 basechar 0
AnchorPoint: "Anchor-10" 249 0 basechar 0
LayerCount: 2
Back
Fore
SplineSet
192 680 m 1
 97 1 l 1
 93 1 l 1
 188 680 l 1
 192 680 l 1
534 680 m 1
 157 366 l 1
 455 0 l 1
 449 0 l 1
 151 366 l 1
 528 680 l 1
 534 680 l 1
EndSplineSet
Substitution2: "'c2sc' Capitals to Small Capitals lookup 27 subtable" k.sc
Substitution2: "'aalt' Access All Alternates lookup 0 subtable" k.sc
Position2: "'cpsp' Capital Spacing lookup 0 subtable" dx=5 dy=0 dh=10 dv=0
EndChar
StartChar: L
Encoding: 76 76 141
Width: 446
GlyphClass: 2
Flags: MW
HStem: 0 21G<93 385 93 93> 660 20G<188 192 192 192>
VStem: 93 293<0 4>
AnchorPoint: "Anchor-14" 363 355 basechar 0
AnchorPoint: "Anchor-13" 251 680 basechar 0
AnchorPoint: "Anchor-12" 190 680 basechar 0
AnchorPoint: "Anchor-11" 0 0 basechar 0
AnchorPoint: "Anchor-10" 239 0 basechar 0
LayerCount: 2
Back
Fore
SplineSet
192 680 m 1
 98 4 l 1
 386 4 l 1
 385 0 l 1
 93 0 l 1
 188 680 l 1
 192 680 l 1
EndSplineSet
Substitution2: "'c2sc' Capitals to Small Capitals lookup 27 subtable" l.sc
Substitution2: "'aalt' Access All Alternates lookup 0 subtable" l.sc
Position2: "'cpsp' Capital Spacing lookup 0 subtable" dx=5 dy=0 dh=10 dv=0
EndChar
StartChar: M
Encoding: 77 77 152
Width: 758
GlyphClass: 2
Flags: MW
HStem: 0 21G<48 52 48 48 633 637 633 633> 660 20G<222 229 229 229 647 653 653 653>
VStem: 636.5 8.5
AnchorPoint: "Anchor-14" 0 0 basechar 0
AnchorPoint: "Anchor-13" 0 0 basechar 0
AnchorPoint: "Anchor-12" 438 680 basechar 0
AnchorPoint: "Anchor-11" 0 0 basechar 0
AnchorPoint: "Anchor-10" 0 0 basechar 0
LayerCount: 2
Back
Fore
SplineSet
653 680 m 1
 637 0 l 1
 633 0 l 1
 640 353 l 1
 649 676 l 1
 356 85 l 1
 351 85 l 1
 225 676 l 1
 213 628 173 473 145 360 c 2
 52 0 l 1
 48 0 l 1
 222 680 l 1
 229 680 l 1
 355 90 l 1
 647 680 l 1
 653 680 l 1
EndSplineSet
Substitution2: "'c2sc' Capitals to Small Capitals lookup 27 subtable" m.sc
Substitution2: "'aalt' Access All Alternates lookup 0 subtable" m.sc
Position2: "'cpsp' Capital Spacing lookup 0 subtable" dx=5 dy=0 dh=10 dv=0
EndChar

StartChar: N
Encoding: 78 78 65
Width: 655
GlyphClass: 2
Flags: MW
HStem: -0.00999451 21G 660.14 20G
VStem: 93.22 491.21
AnchorPoint: "Anchor-11" 286 0 basechar 0
AnchorPoint: "Anchor-10" 0 0 basechar 0
AnchorPoint: "Anchor-9" 391 680 basechar 0
AnchorPoint: "Anchor-8" 0 0 basechar 0
LayerCount: 2
Fore
SplineSet
489.36 0 m 1
 483.859 -0.0117188 l 1
 191.649 675.139 l 1
 187.789 646.919 183.649 617.279 175.93 562.35 c 2
 97.2197 -0.0107422 l 1
 93.2197 -0.0107422 l 1
 188.29 680.14 l 1
 193.86 680.14 l 1
 486.07 6.13965 l 1
 491.86 47.21 498.86 98.2803 505.36 142.92 c 2
 580.431 680.14 l 1
 584.431 680.14 l 1
 489.36 0 l 1
EndSplineSet
Substitution2: "'c2sc' Capitals to Small Capitals lookup 23 subtable" n.sc
Substitution2: "'aalt' Access All Alternates lookup 0 subtable" n.sc
Position2: "'cpsp' Capital Spacing lookup 0 subtable" dx=5 dy=0 dh=10 dv=0
EndChar

StartChar: P
Encoding: 80 80 83
Width: 553
GlyphClass: 2
Flags: MW
HStem: -0.00999451 21G 660.14 20G
VStem: 93.21 430.07
LayerCount: 2
Fore
SplineSet
311.78 680.14 m 2
 453.57 680.14 523.28 633.779 523.28 524.35 c 0
 523.28 409.989 463.21 290.06 253.71 290.06 c 2
 137.94 290.06 l 1
 97.2803 -0.0107422 l 1
 93.21 -0.0107422 l 1
 188.28 680.14 l 1
 311.78 680.14 l 2
254.931 293.989 m 2
 460.78 293.989 519.141 411.84 519.141 524.34 c 0
 519.141 631.77 451.211 676.199 311.641 676.199 c 2
 192.07 676.199 l 1
 138.49 293.989 l 1
 254.931 293.989 l 2
EndSplineSet
Substitution2: "'c2sc' Capitals to Small Capitals lookup 23 subtable" p.sc
Substitution2: "'aalt' Access All Alternates lookup 0 subtable" p.sc
Position2: "'cpsp' Capital Spacing lookup 0 subtable" dx=5 dy=0 dh=10 dv=0
EndChar

StartChar: Q
Encoding: 81 81 85
Width: 674
GlyphClass: 2
Flags: MW
HStem: -9 21G 670.14 20G
VStem: 89.28 532.58
LayerCount: 2
Fore
SplineSet
621.85 428.78 m 0
 621.85 269.28 558.571 18.4795 342.791 -5.89062 c 1
 445.851 -7.16016 516.4 -20.6504 570.58 -71.2207 c 1
 567.08 -73.8604 l 1
 513.3 -24.7207 448.729 -7.76074 312.829 -9.00098 c 0
 310.699 -9.06055 308.509 -9.08008 306.209 -9.08008 c 0
 168.999 -9.08008 89.2793 85.9199 89.2793 251.57 c 0
 89.2793 418.851 168.569 690.141 403.14 690.141 c 0
 541.21 690.141 621.85 596.351 621.85 428.78 c 0
93.4316 253.219 m 0
 93.4316 88.8691 171.371 -5.14062 306.221 -5.14062 c 0
 549.15 -5.14062 617.721 265.359 617.721 428.859 c 0
 617.721 594.289 539.011 686.289 403.081 686.289 c 0
 170.861 686.289 93.4316 414.999 93.4316 253.219 c 0
EndSplineSet
Substitution2: "'c2sc' Capitals to Small Capitals lookup 23 subtable" q.sc
Substitution2: "'aalt' Access All Alternates lookup 0 subtable" q.sc
Position2: "'cpsp' Capital Spacing lookup 0 subtable" dx=5 dy=0 dh=10 dv=0
EndChar

StartChar: R
Encoding: 82 82 86
Width: 562
GlyphClass: 2
Flags: MW
HStem: 0 21G<93.2197 97.29 93.2197 93.2197 466.93 472.14 466.93 466.93> 660.14 20G
VStem: 93.22 427.14
AnchorPoint: "Anchor-11" 265 0 basechar 0
AnchorPoint: "Anchor-10" 0 0 basechar 0
AnchorPoint: "Anchor-9" 341 680 basechar 0
AnchorPoint: "Anchor-8" 0 0 basechar 0
LayerCount: 2
Fore
SplineSet
520.36 538.57 m 0
 520.36 446.37 466.649 339.061 326.51 333.12 c 1
 472.14 0 l 1
 466.93 0 l 1
 322.41 333 l 1
 143.96 333 l 1
 97.29 0 l 1
 93.2197 -0 l 1
 188.29 680.14 l 1
 326.43 680.14 l 2
 468.5 680.14 520.36 626.5 520.36 538.57 c 0
315.499 336.92 m 2
 457.999 336.92 516.218 442.779 516.218 538.64 c 0
 516.218 624.14 466.438 676.21 326.718 676.21 c 2
 192.078 676.21 l 1
 144.519 336.92 l 1
 315.499 336.92 l 2
EndSplineSet
Substitution2: "'c2sc' Capitals to Small Capitals lookup 23 subtable" r.sc
Substitution2: "'aalt' Access All Alternates lookup 0 subtable" r.sc
Position2: "'cpsp' Capital Spacing lookup 0 subtable" dx=5 dy=0 dh=10 dv=0
EndChar

StartChar: S
Encoding: 83 83 90
Width: 540
GlyphClass: 2
Flags: MW
HStem: -9.07001 21G 670.14 20G
VStem: 37 452.63
AnchorPoint: "Anchor-11" 225 0 basechar 0
AnchorPoint: "Anchor-10" 0 0 basechar 0
AnchorPoint: "Anchor-9" 332 680 basechar 0
AnchorPoint: "Anchor-8" 0 0 basechar 0
LayerCount: 2
Fore
SplineSet
324 690.14 m 0
 402 690.14 452.129 663 489.629 625.5 c 1
 486.279 623.14 l 1
 448.779 660.79 399.209 686.29 323.989 686.29 c 0
 180.779 686.29 128.279 590.93 128.279 523.859 c 0
 128.279 441.72 170.35 409.43 286.35 370.859 c 0
 395.779 333.93 451.709 293.859 451.709 198.149 c 0
 451.709 117.149 389.209 -9.07031 222.849 -9.07031 c 0
 130.999 -9.07031 80.4287 22.1494 36.999 69.3594 c 1
 39.499 72.6494 l 1
 82.4287 25.7891 131.499 -5.14062 222.779 -5.14062 c 0
 387.43 -5.14062 447.64 121.22 447.64 197.22 c 0
 447.64 291.79 392.43 330.36 284.64 367.141 c 0
 167.5 406.07 124.21 439.07 124.21 523.79 c 0
 124.21 591.64 177.21 690.14 324 690.14 c 0
EndSplineSet
Substitution2: "'c2sc' Capitals to Small Capitals lookup 23 subtable" s.sc
Substitution2: "'aalt' Access All Alternates lookup 0 subtable" s.sc
Position2: "'cpsp' Capital Spacing lookup 0 subtable" dx=5 dy=0 dh=10 dv=0
EndChar
StartChar: T
Encoding: 84 84 238
Width: 472
GlyphClass: 2
Flags: MW
HStem: 0 21G<198 202 198 198> 660 20G<79 512 512 512>
VStem: 78 434<676 680>
AnchorPoint: "Anchor-14" 248 341 basechar 0
AnchorPoint: "Anchor-13" 0 0 basechar 0
AnchorPoint: "Anchor-12" 295 680 basechar 0
AnchorPoint: "Anchor-11" 0 0 basechar 0
AnchorPoint: "Anchor-10" 200 0 basechar 0
LayerCount: 2
Back
Fore
SplineSet
512 680 m 1
 511 676 l 1
 297 676 l 1
 202 0 l 1
 198 0 l 1
 293 676 l 1
 78 676 l 1
 79 680 l 1
 512 680 l 1
EndSplineSet
Substitution2: "'c2sc' Capitals to Small Capitals lookup 27 subtable" t.sc
Substitution2: "'aalt' Access All Alternates lookup 0 subtable" t.sc
Position2: "'cpsp' Capital Spacing lookup 0 subtable" dx=5 dy=0 dh=10 dv=0
EndChar

StartChar: U
Encoding: 85 85 101
Width: 634
GlyphClass: 2
Flags: MW
HStem: -9.08 21G 660.14 20G
VStem: 107.98 466.38
AnchorPoint: "Anchor-11" 0 0 basechar 0
AnchorPoint: "Anchor-10" 0 0 basechar 0
AnchorPoint: "Anchor-9" 381 680 basechar 0
AnchorPoint: "Anchor-8" 362 0 basechar 0
LayerCount: 2
Fore
SplineSet
507.43 206.07 m 1
 491.29 82.79 424.568 -9.0791 280.429 -9.0791 c 0
 134.139 -9.0791 95.209 82.9209 111.359 206.211 c 1
 178.289 680.141 l 1
 182.359 680.141 l 1
 115.43 206.28 l 1
 99.4297 84.8506 137.64 -5.14941 280.43 -5.14941 c 0
 422.5 -5.14941 487.43 85.2109 503.359 206.421 c 1
 570.289 680.141 l 1
 574.359 680.141 l 1
 507.43 206.07 l 1
EndSplineSet
Substitution2: "'c2sc' Capitals to Small Capitals lookup 23 subtable" u.sc
Substitution2: "'aalt' Access All Alternates lookup 0 subtable" u.sc
Position2: "'cpsp' Capital Spacing lookup 0 subtable" dx=5 dy=0 dh=10 dv=0
EndChar
StartChar: V
Encoding: 86 86 282
Width: 524
GlyphClass: 2
Flags: MW
HStem: 0 21G<225 230 225 225> 660 20G<93 97 97 97 545 549 549 549>
VStem: 93 456<680 680>
LayerCount: 2
Back
Fore
SplineSet
549 680 m 1
 230 0 l 1
 225 0 l 1
 93 680 l 1
 97 680 l 1
 228 4 l 1
 545 680 l 1
 549 680 l 1
EndSplineSet
Substitution2: "'c2sc' Capitals to Small Capitals lookup 27 subtable" v.sc
Substitution2: "'aalt' Access All Alternates lookup 0 subtable" v.sc
Position2: "'cpsp' Capital Spacing lookup 0 subtable" dx=5 dy=0 dh=10 dv=0
EndChar

StartChar: Y
Encoding: 89 89 119
Width: 481
GlyphClass: 2
Flags: MW
HStem: 0 21G<202.72 206.79 202.72 202.72> 660.14 20G
VStem: 83.64 431.22
AnchorPoint: "Anchor-11" 0 0 basechar 0
AnchorPoint: "Anchor-10" 27 517 basechar 0
AnchorPoint: "Anchor-9" 299 680 basechar 0
AnchorPoint: "Anchor-8" 0 0 basechar 0
LayerCount: 2
Fore
SplineSet
243.93 271 m 1
 206.79 0 l 1
 202.72 -0 l 1
 239.79 270.93 l 1
 83.6396 680.14 l 1
 87.9297 680.14 l 1
 242 275 l 1
 510.43 680.14 l 1
 514.859 680.14 l 1
 243.93 271 l 1
EndSplineSet
Substitution2: "'c2sc' Capitals to Small Capitals lookup 23 subtable" y.sc
Substitution2: "'aalt' Access All Alternates lookup 0 subtable" y.sc
Position2: "'cpsp' Capital Spacing lookup 0 subtable" dx=5 dy=0 dh=10 dv=0
EndChar
StartChar: Z
Encoding: 90 90 306
Width: 505
GlyphClass: 2
Flags: MW
HStem: 0 21G<9 9 9 402> 660 20G<141 514 514 514>
VStem: 9 505
AnchorPoint: "Anchor-14" 0 0 basechar 0
AnchorPoint: "Anchor-13" 0 0 basechar 0
AnchorPoint: "Anchor-12" 313 680 basechar 0
AnchorPoint: "Anchor-11" 0 0 basechar 0
AnchorPoint: "Anchor-10" 208 0 basechar 0
LayerCount: 2
Back
Fore
SplineSet
9 0 m 1
 9 4 l 1
 508 676 l 1
 140 676 l 1
 141 680 l 1
 514 680 l 1
 513 676 l 1
 14 4 l 1
 402 4 l 1
 402 0 l 1
 9 0 l 1
EndSplineSet
Substitution2: "'c2sc' Capitals to Small Capitals lookup 27 subtable" z.sc
Substitution2: "'aalt' Access All Alternates lookup 0 subtable" z.sc
Position2: "'cpsp' Capital Spacing lookup 0 subtable" dx=5 dy=0 dh=10 dv=0
EndChar
StartChar: bracketleft
Encoding: 91 91 2148
Width: 310
Flags: MW
HStem: -101 892<58 296 58 296>
VStem: 58 238
LayerCount: 2
Back
Fore
SplineSet
296 791 m 1
 296 787 l 1
 188 787 l 1
 62 -97 l 1
 170 -97 l 1
 170 -101 l 1
 58 -101 l 1
 184 791 l 1
 296 791 l 1
EndSplineSet
Substitution2: "'case' Case-Sensitive Forms lookup 29 subtable" bracketleft.case
Substitution2: "'aalt' Access All Alternates lookup 0 subtable" bracketleft.case
EndChar

StartChar: backslash
Encoding: 92 92 981
Width: 520
Flags: MW
HStem: -92.29 886.65
VStem: 217.07 111.79
LayerCount: 2
Fore
SplineSet
328.86 -90.8604 m 1
 325 -92.29 l 1
 217.07 792.93 l 1
 220.931 794.359 l 1
 328.86 -90.8604 l 1
EndSplineSet
EndChar
StartChar: bracketright
Encoding: 93 93 2149
Width: 309
Flags: MW
HStem: -101 892<38 276 38 276>
VStem: 38 238
LayerCount: 2
Back
Fore
SplineSet
276 791 m 1
 151 -101 l 1
 38 -101 l 1
 38 -97 l 1
 147 -97 l 1
 271 787 l 1
 163 787 l 1
 163 791 l 1
 276 791 l 1
EndSplineSet
Substitution2: "'case' Case-Sensitive Forms lookup 29 subtable" bracketright.case
Substitution2: "'aalt' Access All Alternates lookup 0 subtable" bracketright.case
EndChar

StartChar: asciicircum
Encoding: 94 94 1230
Width: 528
Flags: MW
HStem: 507 20G<125.641 130.28 125.641 125.641 462.28 466.85 462.28 462.28>
VStem: 125.64 341.21
LayerCount: 2
Fore
SplineSet
466.85 527 m 1
 462.28 527 l 1
 336.07 813.07 l 1
 130.28 527 l 1
 125.641 527 l 1
 336.57 817.64 l 1
 339.92 817.64 l 1
 466.85 527 l 1
EndSplineSet
EndChar
StartChar: underscore
Encoding: 95 95 2137
Width: 520
Flags: MW
HStem: -88 4<4 420 4 420>
VStem: 4 416<-88 -84 -88 -84>
LayerCount: 2
Back
Fore
SplineSet
4 -88 m 1
 4 -84 l 1
 420 -84 l 1
 420 -88 l 1
 4 -88 l 1
EndSplineSet
EndChar
StartChar: grave
Encoding: 96 96 2524
Width: 230
Flags: MW
HStem: 661 87
VStem: 98 158<664 743>
LayerCount: 2
Back
Fore
SplineSet
100 748 m 1
 256 664 l 1
 254 661 l 1
 98 743 l 1
 100 748 l 1
EndSplineSet
Substitution2: "'case' Case-Sensitive Forms lookup 29 subtable" grave.case
Substitution2: "'smcp' Lowercase to Small Capitals lookup 28 subtable" grave.sc
Substitution2: "'c2sc' Capitals to Small Capitals lookup 27 subtable" grave.sc
AlternateSubs2: "'aalt' Access All Alternates lookup 1 subtable" grave.sc grave.case
EndChar

StartChar: a
Encoding: 97 97 134
Width: 540
GlyphClass: 2
Flags: MW
HStem: -9.07001 21G -5.57001 21G 507.22 20G
VStem: 398.87 43.2
AnchorPoint: "Anchor-11" 0 0 basechar 0
AnchorPoint: "Anchor-10" 0 0 basechar 0
AnchorPoint: "Anchor-9" 337 517 basechar 0
AnchorPoint: "Anchor-8" 452 -9 basechar 0
LayerCount: 2
Fore
SplineSet
336.07 527.21 m 0x70
 387.641 527.21 428.639 510.999 463.139 487.069 c 1
 407.139 120.14 l 2
 404.209 98.5693 402.279 80.9297 402.279 65.2793 c 0
 402.279 28.4297 414.279 5.2793 443.64 -5.57031 c 1
 442.069 -9.07031 l 1
 389.35 11.21 397.069 67.4297 403.14 116 c 1
 356.779 31 291.43 -9.07031 227 -9.07031 c 0xb0
 128.78 -9.07031 73.3506 71.5 73.3506 183.71 c 0
 73.3506 326.43 138.641 527.21 336.07 527.21 c 0x70
336.139 523.499 m 0
 141.139 523.499 77.4189 324.499 77.4189 183.789 c 0
 77.4189 73.5693 130.989 -5.21094 227.06 -5.21094 c 0
 291.489 -5.21094 356.64 35.9287 403.569 122.358 c 1
 459.069 485.148 l 1
 425.279 508.719 385.209 523.499 336.139 523.499 c 0
EndSplineSet
Substitution2: "Single Substitution lookup 30 subtable" ordfeminine
Substitution2: "'smcp' Lowercase to Small Capitals lookup 24 subtable" a.sc
AlternateSubs2: "'aalt' Access All Alternates lookup 1 subtable" ordfeminine a.sc
EndChar
StartChar: b
Encoding: 98 98 371
Width: 563
GlyphClass: 2
Flags: MW
HStem: -9 21G<220 338> 507 20G<301.5 391.5> 711 20G<194 194>
VStem: 93 397<27 399>
AnchorPoint: "Anchor-14" 0 0 basechar 0
AnchorPoint: "Anchor-13" 0 0 basechar 0
AnchorPoint: "Anchor-12" 352 728 basechar 0
AnchorPoint: "Anchor-11" 0 0 basechar 0
AnchorPoint: "Anchor-10" 245 0 basechar 0
LayerCount: 2
Back
Fore
SplineSet
194 731 m 1
 152 422 l 1
 201 482 260 527 343 527 c 0
 440 527 490 459 490 339 c 0
 490 207 426 -9 250 -9 c 0
 190 -9 150 2 93 27 c 1
 190 730 l 1
 194 731 l 1
343 523 m 0
 262 523 206 482 151 417 c 1
 97 29 l 1
 153 5 192 -5 250 -5 c 0
 424 -5 486 209 486 339 c 0
 486 457 437 523 343 523 c 0
EndSplineSet
Substitution2: "'smcp' Lowercase to Small Capitals lookup 28 subtable" b.sc
Substitution2: "'aalt' Access All Alternates lookup 0 subtable" b.sc
EndChar

StartChar: c
Encoding: 99 99 147
Width: 468
GlyphClass: 2
Flags: MW
HStem: -9.08 21G 507.21 20G
VStem: 74.94 366.84
AnchorPoint: "Anchor-11" 249 -1 basechar 0
AnchorPoint: "Anchor-10" 0 0 basechar 0
AnchorPoint: "Anchor-9" 306 517 basechar 0
AnchorPoint: "Anchor-8" 0 0 basechar 0
LayerCount: 2
Fore
SplineSet
319.07 527.21 m 0
 372.21 527.21 410.5 510.281 441.78 477.211 c 1
 438.57 474.851 l 1
 407.78 507.501 370 523.431 319.14 523.431 c 0
 192.069 523.431 104.43 416.501 83.0693 251.851 c 0
 60.7891 87.2803 131.069 -5.21973 243.359 -5.21973 c 0
 301.93 -5.21973 344 15.6406 382.93 46.4209 c 1
 385 43.9209 l 1
 346.71 12.7812 304.14 -9.0791 243.5 -9.0791 c 0
 128.57 -9.0791 56.71 84.3506 79 251.851 c 0
 101.28 419.28 188.71 527.21 319.07 527.21 c 0
EndSplineSet
Substitution2: "'smcp' Lowercase to Small Capitals lookup 24 subtable" c.sc
Substitution2: "'aalt' Access All Alternates lookup 0 subtable" c.sc
EndChar

StartChar: d
Encoding: 100 100 153
Width: 572
GlyphClass: 2
Flags: MW
HStem: -9.07001 21G 0 21G<408.209 411.849 408.209 408.209> 507.21 20G 710.57 20G
VStem: 79.28 434.72
LayerCount: 2
Fore
SplineSet
514 730.28 m 1x78
 411.849 0 l 1
 408.209 0 l 1x78
 428.639 147.07 l 1
 382.349 64.3604 325.499 -9.06934 228.779 -9.06934 c 0xb8
 138.43 -9.06934 79.2793 61.2803 79.2793 182.78 c 0
 79.2793 316 138.499 527.21 317.779 527.21 c 0
 403.35 527.21 448.939 474.36 467.6 425.69 c 1
 510 730.57 l 1
 514 730.28 l 1x78
317.849 523.43 m 0
 141.198 523.43 83.3496 314.5 83.3496 182.86 c 0
 83.3496 63.3604 140.63 -5.20996 228.85 -5.20996 c 0
 325.5 -5.20996 381.85 69.29 429.21 153.93 c 1
 466.85 419.649 l 1
 446.569 473.149 401.749 523.43 317.849 523.43 c 0
EndSplineSet
Substitution2: "'smcp' Lowercase to Small Capitals lookup 24 subtable" d.sc
Substitution2: "'aalt' Access All Alternates lookup 0 subtable" d.sc
EndChar
StartChar: f
Encoding: 102 102 447
Width: 300
GlyphClass: 2
Flags: MW
HStem: -189 21G<-34 -34> 497 20G<71 163 163 163 167 317 317 317> 513 221<70 327.5 70 327.5 273 316 167 327.5>
VStem: -34 450
AnchorPoint: "Anchor-14" 0 0 basechar 0
AnchorPoint: "Anchor-13" 0 0 basechar 0
AnchorPoint: "Anchor-12" 310 728 basechar 0
AnchorPoint: "Anchor-11" 0 0 basechar 0
AnchorPoint: "Anchor-10" 65 -188 basechar 0
LayerCount: 2
Back
Fore
SplineSet
306 731 m 0xb0
 242 731 192 692 181 618 c 2
 167 517 l 1xd0
 317 517 l 1
 316 513 l 1
 167 513 l 1
 94 1 l 2
 77 -119 44 -154 -32 -191 c 1
 -34 -189 l 1
 40 -152 74 -116 91 2 c 2
 163 513 l 1xb0
 70 513 l 1
 71 517 l 1
 163 517 l 1xd0
 177 618 l 2
 188 694 240 734 306 734 c 0
 349 734 384 721 416 697 c 1
 413 694 l 1
 382 718 349 731 306 731 c 0xb0
EndSplineSet
Substitution2: "'smcp' Lowercase to Small Capitals lookup 28 subtable" f.sc
Substitution2: "'locl' Localized Forms in Latin lookup 11 subtable" f.loclEWE
AlternateSubs2: "'aalt' Access All Alternates lookup 1 subtable" f.loclEWE f.sc
EndChar

StartChar: g
Encoding: 103 103 168
Width: 550
GlyphClass: 2
Flags: MW
HStem: -191.58 195.43 0 21G<178.886 260.206> 507.21 20G
VStem: 51.28 411.85
AnchorPoint: "Anchor-11" 0 0 basechar 0
AnchorPoint: "Anchor-10" 0 0 basechar 0
AnchorPoint: "Anchor-9" 316 517 basechar 0
AnchorPoint: "Anchor-8" 0 0 basechar 0
LayerCount: 2
Fore
SplineSet
336.07 527.21 m 0x70
 387.641 527.21 428.629 510.99 463.129 487.061 c 1
 389.419 -10.3691 l 2
 368.419 -151.869 297.489 -191.579 210.77 -191.579 c 0
 140.92 -191.579 84.0596 -167.649 51.2793 -145.51 c 1
 53.1289 -142.08 l 1
 85.9893 -164.15 141.199 -187.86 210.85 -187.86 c 0xb0
 295.56 -187.86 364.71 -149.36 385.42 -10.6504 c 2
 405.99 129.64 l 1
 359.641 41.8496 292.421 0 227.991 0 c 0
 129.781 0 75.2812 83.5703 75.2109 195.5 c 0
 75.1406 337.57 138.641 527.21 336.07 527.21 c 0x70
336.129 523.49 m 0
 141.129 523.49 79.209 335.779 79.2793 195.56 c 0
 79.3496 85.6299 131.989 3.84961 228.06 3.84961 c 0xb0
 297.13 3.84961 361.42 50.4893 407.42 138.64 c 1
 459.13 485.14 l 1
 425.35 508.71 385.199 523.49 336.129 523.49 c 0
EndSplineSet
Substitution2: "'smcp' Lowercase to Small Capitals lookup 24 subtable" g.sc
Substitution2: "'aalt' Access All Alternates lookup 0 subtable" g.sc
EndChar

StartChar: h
Encoding: 104 104 173
Width: 580
GlyphClass: 2
Flags: MW
HStem: 0 21G 507.21 20G 710.64 20G
VStem: 88.22 391.36
AnchorPoint: "Anchor-11" 249 0 basechar 0
AnchorPoint: "Anchor-10" 0 0 basechar 0
AnchorPoint: "Anchor-9" 324 728 basechar 0
AnchorPoint: "Anchor-8" 0 0 basechar 0
LayerCount: 2
Fore
SplineSet
365.36 527.21 m 0
 458.36 527.21 489.93 467.282 476.79 368.072 c 2
 424.79 0.00195312 l 1
 420.79 0.00195312 l 1
 472.79 367.932 l 2
 485.79 465.571 455.79 523.501 365.14 523.501 c 0
 279.14 523.501 208.29 467.651 138.07 327.651 c 1
 92.2207 0.000976562 l 1
 88.2207 0.000976562 l 1
 190.36 730.291 l 1
 194.36 730.641 l 1
 139.58 337.36 l 1
 207.43 472.86 279.79 527.21 365.36 527.21 c 0
EndSplineSet
Substitution2: "'smcp' Lowercase to Small Capitals lookup 24 subtable" h.sc
Substitution2: "'aalt' Access All Alternates lookup 0 subtable" h.sc
EndChar
StartChar: i
Encoding: 105 105 477
Width: 253
GlyphClass: 2
Flags: MW
HStem: 0 21G<88 92 88 88> 497 20G<160 164 164 164> 693 15<186.5 190.5>
VStem: 181 15<699 702 698.5 702.5>
AnchorPoint: "Anchor-14" 0 0 basechar 0
AnchorPoint: "Anchor-13" 0 0 basechar 0
AnchorPoint: "Anchor-12" 190 708 basechar 0
AnchorPoint: "Anchor-11" 102 0 basechar 0
AnchorPoint: "Anchor-10" 90 0 basechar 0
LayerCount: 2
Back
Fore
SplineSet
189 708 m 0
 194 708 196 704 196 700 c 0
 196 697 193 693 188 693 c 0
 184 693 181 697 181 701 c 0
 181 704 184 708 189 708 c 0
164 517 m 1
 92 0 l 1
 88 0 l 1
 160 517 l 1
 164 517 l 1
EndSplineSet
Substitution2: "'smcp' Lowercase to Small Capitals lookup 28 subtable" i.sc
Substitution2: "'locl' Localized Forms in Latin lookup 10 subtable" i.loclTRK
Substitution2: "'locl' Localized Forms in Latin lookup 8 subtable" i.loclTRK
Substitution2: "'locl' Localized Forms in Latin lookup 6 subtable" i.loclTRK
Substitution2: "'locl' Localized Forms in Latin lookup 3 subtable" i.loclTRK
Substitution2: "'locl' Localized Forms in Latin lookup 2 subtable" i.loclTRK
AlternateSubs2: "'aalt' Access All Alternates lookup 1 subtable" i.loclTRK i.sc
EndChar
StartChar: j
Encoding: 106 106 497
Width: 253
GlyphClass: 2
Flags: MW
HStem: -189 21G<-36 -36> 497 20G<160 164 164 164> 693 15<186.5 190.5>
VStem: 181 15<699 702 698.5 702.5>
AnchorPoint: "Anchor-14" 0 0 basechar 0
AnchorPoint: "Anchor-13" 0 0 basechar 0
AnchorPoint: "Anchor-12" 190 708 basechar 0
AnchorPoint: "Anchor-11" 0 0 basechar 0
AnchorPoint: "Anchor-10" 63 -188 basechar 0
LayerCount: 2
Back
Fore
SplineSet
189 708 m 0
 194 708 196 704 196 700 c 0
 196 697 193 693 188 693 c 0
 184 693 181 697 181 701 c 0
 181 704 184 708 189 708 c 0
164 517 m 1
 92 1 l 2
 75 -119 42 -154 -34 -191 c 1
 -36 -189 l 1
 38 -152 72 -116 88 2 c 2
 160 517 l 1
 164 517 l 1
EndSplineSet
Substitution2: "'smcp' Lowercase to Small Capitals lookup 28 subtable" j.sc
Substitution2: "'aalt' Access All Alternates lookup 0 subtable" j.sc
EndChar

StartChar: k
Encoding: 107 107 191
Width: 509
GlyphClass: 2
Flags: MW
HStem: 0 21G 507.21 20G 710.57 20G
VStem: 88.21 383.43
AnchorPoint: "Anchor-11" 229 0 basechar 0
AnchorPoint: "Anchor-10" 0 0 basechar 0
AnchorPoint: "Anchor-9" 0 0 basechar 0
AnchorPoint: "Anchor-8" 0 0 basechar 0
LayerCount: 2
Fore
SplineSet
135.79 311.93 m 1
 198.64 452.35 280.959 527.208 363.279 527.208 c 0
 433.989 527.208 471.64 486.428 471.64 423.998 c 0
 471.64 335.208 398.279 280.568 283.279 242.708 c 1
 410.64 -0.00195312 l 1
 406.42 -0.00195312 l 1
 277.78 244.568 l 1
 395.92 283.998 467.57 335.568 467.57 423.918 c 0
 467.57 483.918 432.57 523.568 363.141 523.568 c 0
 278.971 523.568 197.891 444.238 134.19 301.559 c 1
 92.21 -0.000976562 l 1
 88.21 -0.000976562 l 1
 190.35 730.279 l 1
 194.35 730.569 l 1
 135.79 311.93 l 1
EndSplineSet
Substitution2: "'smcp' Lowercase to Small Capitals lookup 24 subtable" k.sc
Substitution2: "'aalt' Access All Alternates lookup 0 subtable" k.sc
EndChar

StartChar: l
Encoding: 108 108 194
Width: 275
GlyphClass: 2
Flags: MW
HStem: -9.08 21G -0.860001 21G 710.57 20G
VStem: 91.09 98.19
AnchorPoint: "Anchor-11" 135 0 basechar 0
AnchorPoint: "Anchor-10" 0 0 basechar 0
AnchorPoint: "Anchor-9" 174 678 basechar 0
AnchorPoint: "Anchor-8" 0 0 basechar 0
LayerCount: 2
Fore
SplineSet
96.2803 64.8496 m 2x70
 90.3506 22.0693 105.001 -5.35938 145.571 -5.35938 c 0
 159.571 -5.35938 174.421 -2.28906 187.421 2.71094 c 1
 187.991 -0.859375 l 1
 174.921 -5.92969 159.641 -9.08008 145.421 -9.08008 c 0
 102.921 -9.08008 86.1406 18.8496 92.3506 65.0693 c 2xb0
 185.28 730.279 l 1
 189.28 730.569 l 1
 96.2803 64.8496 l 2x70
EndSplineSet
Substitution2: "'smcp' Lowercase to Small Capitals lookup 24 subtable" l.sc
Substitution2: "'aalt' Access All Alternates lookup 0 subtable" l.sc
EndChar

StartChar: m
Encoding: 109 109 200
Width: 843
GlyphClass: 2
Flags: MW
HStem: -0.00999451 21G 0 21G<386.139 390.139 386.139 386.139> 497.21 20G 507.21 20G
VStem: 440.36 301.89
LayerCount: 2
Fore
SplineSet
643.64 527.21 m 0x58
 721.64 527.21 753.199 467.28 739.129 368.061 c 2
 688.059 -0.00976562 l 1
 684.059 -0.00976562 l 1x98
 735.129 367.92 l 2
 749.059 465.57 719.059 523.5 643.419 523.5 c 0
 572.438 523.5 501.469 475.68 436.238 332.25 c 1
 390.139 0 l 1
 386.139 -0 l 1
 437.209 367.93 l 2
 451.139 465.569 421.139 523.499 345.488 523.499 c 0
 274.059 523.499 203.629 472.289 138.059 327.639 c 1
 92.209 -0.000976562 l 1
 88.209 -0.000976562 l 1
 160.349 517.209 l 1
 163.999 517.209 l 1x68
 139.499 337.279 l 1
 202.779 477.43 274.43 527.21 345.71 527.21 c 0
 423.71 527.21 455.28 467.28 441.21 368.07 c 2
 437.59 341.94 l 1
 500.57 479.87 572.84 527.21 643.64 527.21 c 0x58
EndSplineSet
Substitution2: "'smcp' Lowercase to Small Capitals lookup 24 subtable" m.sc
Substitution2: "'aalt' Access All Alternates lookup 0 subtable" m.sc
EndChar

StartChar: n
Encoding: 110 110 201
Width: 580
GlyphClass: 2
Flags: MW
HStem: -0.00999451 21G 0 21G<88.21 92.21 88.21 88.21> 497.21 20G 507.21 20G
VStem: 88.21 391.36
AnchorPoint: "Anchor-11" 254 0 basechar 0
AnchorPoint: "Anchor-10" 0 0 basechar 0
AnchorPoint: "Anchor-9" 327 517 basechar 0
AnchorPoint: "Anchor-8" 0 0 basechar 0
LayerCount: 2
Fore
SplineSet
365.35 527.21 m 0x58
 458.35 527.21 489.919 467.28 476.779 368.061 c 2
 424.779 -0.00976562 l 1
 420.779 -0.00976562 l 1x98
 472.779 367.92 l 2
 485.779 465.57 455.779 523.5 365.129 523.5 c 0
 279.279 523.5 208.279 467.64 138.06 327.64 c 1
 92.21 0 l 1
 88.21 -0 l 1
 160.35 517.21 l 1
 164 517.21 l 1x68
 139.5 337.28 l 1
 207.43 472.78 279.779 527.21 365.35 527.21 c 0x58
EndSplineSet
Substitution2: "'smcp' Lowercase to Small Capitals lookup 24 subtable" n.sc
Substitution2: "'aalt' Access All Alternates lookup 0 subtable" n.sc
EndChar

StartChar: o
Encoding: 111 111 208
Width: 559
GlyphClass: 2
Flags: MW
HStem: -9.07001 21G 507.21 20G
VStem: 74.28 410.57
AnchorPoint: "Anchor-11" 0 0 basechar 0
AnchorPoint: "Anchor-10" 0 0 basechar 0
AnchorPoint: "Anchor-9" 316 517 basechar 0
AnchorPoint: "Anchor-8" 0 0 basechar 0
LayerCount: 2
Fore
SplineSet
317.93 527.21 m 0
 423.43 527.21 484.85 455.279 484.85 327.93 c 0
 484.85 197.859 426.71 -9.07031 242.14 -9.07031 c 0
 135.64 -9.07031 74.2793 65.0693 74.2793 192.359 c 0
 74.2793 325.43 135.43 527.21 317.93 527.21 c 0
317.92 523.429 m 0
 137.71 523.429 78.3506 323.138 78.3506 192.288 c 0
 78.3506 67.0684 137.921 -5.21191 242.141 -5.21191 c 0
 423.99 -5.21191 480.78 199.358 480.78 327.858 c 0
 480.78 453.068 421.28 523.429 317.92 523.429 c 0
EndSplineSet
Substitution2: "Single Substitution lookup 30 subtable" ordmasculine
Substitution2: "'smcp' Lowercase to Small Capitals lookup 24 subtable" o.sc
AlternateSubs2: "'aalt' Access All Alternates lookup 1 subtable" ordmasculine o.sc
EndChar
StartChar: p
Encoding: 112 112 593
Width: 567
GlyphClass: 2
Flags: MW
HStem: -190 21G<62 62> -9 21G<219.5 338> 497 20G<160 164 164 164> 507 20G<302 391.5>
VStem: 62 428
AnchorPoint: "Anchor-14" 0 0 basechar 0
AnchorPoint: "Anchor-13" 0 0 basechar 0
AnchorPoint: "Anchor-12" 320 517 basechar 0
AnchorPoint: "Anchor-11" 0 0 basechar 0
AnchorPoint: "Anchor-10" 224 -188 basechar 0
LayerCount: 2
Back
Fore
SplineSet
343 527 m 0xd8
 440 527 490 459 490 339 c 0
 490 207 426 -9 250 -9 c 0
 189 -9 136 5 96 25 c 1
 66 -189 l 1
 62 -190 l 1
 160 517 l 1
 164 517 l 1xe8
 151 422 l 1
 201 484 261 527 343 527 c 0xd8
343 523 m 0
 262 523 206 482 151 417 c 1
 96 29 l 1
 137 9 190 -5 250 -5 c 0
 424 -5 486 209 486 339 c 0
 486 457 437 523 343 523 c 0
EndSplineSet
Substitution2: "'smcp' Lowercase to Small Capitals lookup 28 subtable" p.sc
Substitution2: "'aalt' Access All Alternates lookup 0 subtable" p.sc
EndChar

StartChar: q
Encoding: 113 113 222
Width: 550
GlyphClass: 2
Flags: MW
HStem: -190.65 21G -9.07001 21G 507.21 20G
VStem: 73.35 389.79
LayerCount: 2
Fore
SplineSet
336.07 527.21 m 0
 387.641 527.21 428.64 510.999 463.14 487.069 c 1
 363.64 -189.431 l 1
 358.85 -190.65 l 1
 404.35 116 l 1
 358 31 291.43 -9.07031 227 -9.07031 c 0
 128.78 -9.07031 73.3506 71.5 73.3506 183.71 c 0
 73.3506 326.43 138.641 527.21 336.07 527.21 c 0
336.14 523.499 m 0
 141.14 523.499 77.4307 324.499 77.4307 183.779 c 0
 77.4307 73.5693 131.001 -5.2207 227.071 -5.2207 c 0
 291.501 -5.2207 357.851 34.999 405.711 125.139 c 1
 459.061 485.139 l 1
 425.28 508.709 385.21 523.499 336.14 523.499 c 0
EndSplineSet
Substitution2: "'smcp' Lowercase to Small Capitals lookup 24 subtable" q.sc
Substitution2: "'aalt' Access All Alternates lookup 0 subtable" q.sc
EndChar
StartChar: r
Encoding: 114 114 603
Width: 361
GlyphClass: 2
Flags: MW
HStem: 0 21G<88 92 88 88> 507 20G<286.5 337> 517 10
VStem: 88 286
AnchorPoint: "Anchor-14" 0 0 basechar 0
AnchorPoint: "Anchor-13" 0 0 basechar 0
AnchorPoint: "Anchor-12" 266 517 basechar 0
AnchorPoint: "Anchor-11" 0 0 basechar 0
AnchorPoint: "Anchor-10" 90 0 basechar 0
LayerCount: 2
Back
Fore
SplineSet
328 527 m 0xd0
 346 527 361 524 374 520 c 1
 372 517 l 1
 361 520 345 523 328 523 c 0
 246 523 191 481 141 347 c 1
 92 0 l 1
 88 0 l 1
 160 517 l 1
 164 517 l 1xb0
 142 358 l 1
 190 485 245 527 328 527 c 0xd0
EndSplineSet
Substitution2: "'smcp' Lowercase to Small Capitals lookup 28 subtable" r.sc
Substitution2: "'aalt' Access All Alternates lookup 0 subtable" r.sc
EndChar

StartChar: s
Encoding: 115 115 227
Width: 457
GlyphClass: 2
Flags: MW
HStem: -9.07001 21G 507.22 20G
VStem: 28.21 375.14
AnchorPoint: "Anchor-11" 193 0 basechar 0
AnchorPoint: "Anchor-10" 0 0 basechar 0
AnchorPoint: "Anchor-9" 270 517 basechar 0
AnchorPoint: "Anchor-8" 0 0 basechar 0
LayerCount: 2
Fore
SplineSet
258.93 527.21 m 0
 323.569 527.21 366.853 509.29 403.353 475.08 c 1
 400.072 472.65 l 1
 363.922 506.5 322.282 523.36 258.922 523.36 c 0
 173.142 523.36 99.4912 476.931 99.4912 399.001 c 0
 99.4912 343.571 129.921 311.571 234.421 277.852 c 0
 335.781 244.852 371.991 211.071 371.991 141.001 c 0
 371.991 46.4307 293.921 -9.06934 193.071 -9.06934 c 0
 111.921 -9.06934 66.4209 19.001 28.2109 56.9307 c 1
 30.4912 60.2803 l 1
 68.7812 22.3506 112.711 -5.21973 192.921 -5.21973 c 0
 289.421 -5.21973 367.921 46.5703 367.921 140.92 c 0
 367.921 209.07 332.641 241.28 232.57 274.21 c 0
 128.21 308.21 95.4297 340.86 95.4297 399 c 0
 95.4297 477.86 170.21 527.21 258.93 527.21 c 0
EndSplineSet
Substitution2: "'smcp' Lowercase to Small Capitals lookup 24 subtable" s.sc
Substitution2: "'aalt' Access All Alternates lookup 0 subtable" s.sc
EndChar

StartChar: t
Encoding: 116 116 234
Width: 322
GlyphClass: 2
Flags: MW
HStem: -9.07001 21G 497.21 20G 513.43 137.61
VStem: 65.35 236.93
AnchorPoint: "Anchor-11" 192 0 basechar 0
AnchorPoint: "Anchor-10" 0 0 basechar 0
AnchorPoint: "Anchor-9" 0 0 basechar 0
AnchorPoint: "Anchor-8" 0 0 basechar 0
LayerCount: 2
Fore
SplineSet
100.5 113.5 m 2xd0
 89.6504 38.1504 119.922 -5.28125 183.642 -5.28125 c 0
 223.212 -5.28125 252.352 6.71875 280.352 22.6484 c 1
 282.142 19.0781 l 1
 254.781 3.8584 224.432 -9.07129 183.432 -9.07129 c 0
 118.142 -9.07129 85.4316 34.7891 96.502 113.359 c 2
 152.132 513.43 l 1xb0
 65.3516 513.43 l 1
 65.6416 517.21 l 1
 152.661 517.21 l 1xd0
 172.001 650.93 l 1
 175.501 651.14 l 1xb0
 156.811 517.21 l 1xd0
 302.28 517.21 l 1
 301.71 513.43 l 1
 156.29 513.43 l 1xb0
 100.5 113.5 l 2xd0
EndSplineSet
Substitution2: "'smcp' Lowercase to Small Capitals lookup 24 subtable" t.sc
Substitution2: "'aalt' Access All Alternates lookup 0 subtable" t.sc
EndChar
StartChar: u
Encoding: 117 117 657
Width: 574
GlyphClass: 2
Flags: MW
HStem: -9 21G<178.5 265.5> 0 21G<410 414 410 410> 497 20G<154 158 158 158 482 486 486 486>
VStem: 100.52 385.48
AnchorPoint: "Anchor-14" 0 0 basechar 0
AnchorPoint: "Anchor-13" 496 517 basechar 0
AnchorPoint: "Anchor-12" 320 517 basechar 0
AnchorPoint: "Anchor-11" 424 0 basechar 0
AnchorPoint: "Anchor-10" 250 0 basechar 0
LayerCount: 2
Back
Fore
SplineSet
486 517 m 1x70
 414 0 l 1
 410 0 l 1x70
 434 167 l 1
 385 53 309 -9 222 -9 c 0xb0
 135 -9 89 46 103 150 c 2
 154 517 l 1
 158 517 l 1
 107 150 l 2
 93 49 138 -5 223 -5 c 0
 310 -5 384 58 434 174 c 1
 482 517 l 1
 486 517 l 1x70
EndSplineSet
Substitution2: "'smcp' Lowercase to Small Capitals lookup 28 subtable" u.sc
Substitution2: "'aalt' Access All Alternates lookup 0 subtable" u.sc
EndChar
StartChar: v
Encoding: 118 118 686
Width: 436
GlyphClass: 2
Flags: MW
HStem: 0 21G<185 190 185 185> 497 20G<65 70 70 70 439 443 443 443>
VStem: 65 378<517 517>
AnchorPoint: "Anchor-14" 0 0 basechar 0
AnchorPoint: "Anchor-13" 0 0 basechar 0
AnchorPoint: "Anchor-12" 255 517 basechar 0
AnchorPoint: "Anchor-11" 0 0 basechar 0
AnchorPoint: "Anchor-10" 187 0 basechar 0
LayerCount: 2
Back
Fore
SplineSet
443 517 m 1
 190 0 l 1
 185 0 l 1
 65 517 l 1
 70 517 l 1
 188 4 l 1
 439 517 l 1
 443 517 l 1
EndSplineSet
Substitution2: "'smcp' Lowercase to Small Capitals lookup 28 subtable" v.sc
Substitution2: "'aalt' Access All Alternates lookup 0 subtable" v.sc
EndChar

StartChar: w
Encoding: 119 119 251
Width: 673
GlyphClass: 2
Flags: MW
HStem: 0 21G<143.998 148.788 143.998 143.998 452.288 456.93 452.288 452.288> 497.21 20G
VStem: 75.36 594.21
AnchorPoint: "Anchor-11" 0 0 basechar 0
AnchorPoint: "Anchor-10" 0 0 basechar 0
AnchorPoint: "Anchor-9" 373 517 basechar 0
AnchorPoint: "Anchor-8" 0 0 basechar 0
LayerCount: 2
Fore
SplineSet
456.93 0 m 1
 452.288 0 l 1
 372.288 512.28 l 1
 148.788 0 l 1
 143.998 -0 l 1
 75.3584 517.21 l 1
 79.3584 517.21 l 1
 146.708 3.92969 l 1
 370.278 517.21 l 1
 374.849 517.21 l 1
 454.849 3.86035 l 1
 665.499 517.21 l 1
 669.569 517.21 l 1
 456.93 0 l 1
EndSplineSet
Substitution2: "'smcp' Lowercase to Small Capitals lookup 24 subtable" w.sc
Substitution2: "'aalt' Access All Alternates lookup 0 subtable" w.sc
EndChar
StartChar: x
Encoding: 120 120 698
Width: 425
GlyphClass: 2
Flags: MW
HStem: 0 21G<-12 -7 -12 -12 360 365 360 360> 497 20G<87 91 91 91 406 410 410 410>
VStem: -12 422
AnchorPoint: "Anchor-14" 0 0 basechar 0
AnchorPoint: "Anchor-13" 0 0 basechar 0
AnchorPoint: "Anchor-12" 243 517 basechar 0
AnchorPoint: "Anchor-11" 0 0 basechar 0
AnchorPoint: "Anchor-10" 170 0 basechar 0
LayerCount: 2
Back
Fore
SplineSet
410 517 m 1
 216 278 l 1
 365 0 l 1
 360 0 l 1
 213 276 l 1
 -7 0 l 1
 -12 0 l 1
 211 278 l 1
 87 517 l 1
 91 517 l 1
 214 280 l 1
 406 517 l 1
 410 517 l 1
EndSplineSet
Substitution2: "'smcp' Lowercase to Small Capitals lookup 28 subtable" x.sc
Substitution2: "'sups' Superscript lookup 15 subtable" uni02E3
AlternateSubs2: "'aalt' Access All Alternates lookup 1 subtable" uni02E3 x.sc
EndChar
StartChar: y
Encoding: 121 121 699
Width: 435
GlyphClass: 2
Flags: MW
HStem: -190 21G<-2 -2> 0 21G<185 188 185 185 192 192> 497 20G<65 70 70 70 438 442 442 442>
VStem: -2 444
AnchorPoint: "Anchor-14" 0 0 basechar 0
AnchorPoint: "Anchor-13" 0 0 basechar 0
AnchorPoint: "Anchor-12" 253 517 basechar 0
AnchorPoint: "Anchor-11" 0 0 basechar 0
AnchorPoint: "Anchor-10" 156 -188 basechar 0
LayerCount: 2
Back
Fore
SplineSet
442 517 m 1
 192 0 l 2
 136 -112 106 -159 -2 -190 c 1
 -2 -186 l 1
 104 -156 133 -111 188 0 c 1
 185 0 l 1
 65 517 l 1
 70 517 l 1
 188 3 l 1
 438 517 l 1
 442 517 l 1
EndSplineSet
Substitution2: "'smcp' Lowercase to Small Capitals lookup 28 subtable" y.sc
Substitution2: "'aalt' Access All Alternates lookup 0 subtable" y.sc
EndChar
StartChar: z
Encoding: 122 122 712
Width: 410
GlyphClass: 2
Flags: MW
HStem: 0 21G<-1 323 -1 -1> 497 20G<101 406 406 406>
VStem: -1 407
AnchorPoint: "Anchor-14" 0 0 basechar 0
AnchorPoint: "Anchor-13" 0 0 basechar 0
AnchorPoint: "Anchor-12" 251 517 basechar 0
AnchorPoint: "Anchor-11" 0 0 basechar 0
AnchorPoint: "Anchor-10" 161 0 basechar 0
LayerCount: 2
Back
Fore
SplineSet
406 517 m 1
 406 514 l 1
 5 4 l 1
 324 4 l 1
 323 0 l 1
 -1 0 l 1
 -1 4 l 1
 401 513 l 1
 101 513 l 1
 101 517 l 1
 406 517 l 1
EndSplineSet
Substitution2: "'smcp' Lowercase to Small Capitals lookup 28 subtable" z.sc
Substitution2: "'aalt' Access All Alternates lookup 0 subtable" z.sc
EndChar

StartChar: braceleft
Encoding: 123 123 1005
Width: 326
Flags: MW
HStem: -111 920<155.236 309.351>
VStem: 85.77 223.58
LayerCount: 2
Fore
SplineSet
309.28 805.5 m 1
 259.5 805.5 226.991 779.209 217.991 712.779 c 2
 178.201 428.279 l 2
 171.062 378.069 139.491 349.709 91.1309 348.999 c 1
 138.201 348.279 162.131 319.93 154.921 269.569 c 2
 115.061 -14.9307 l 2
 106.131 -81.3604 130.491 -107.5 180.271 -107.5 c 1
 180.201 -111 l 1
 130.271 -111 102.201 -84.5 111.271 -16.0703 c 2
 151.271 270.569 l 2
 159.201 322.64 131.062 347.069 85.7715 347.069 c 1
 86.9219 350.93 l 1
 132.062 350.93 166.352 375.5 174.352 427.57 c 2
 214.281 714.21 l 2
 223.421 782.64 259.141 809 309.351 809 c 1
 309.28 805.5 l 1
EndSplineSet
Substitution2: "'case' Case-Sensitive Forms lookup 25 subtable" braceleft.case
Substitution2: "'aalt' Access All Alternates lookup 0 subtable" braceleft.case
EndChar
StartChar: bar
Encoding: 124 124 2376
Width: 419
GlyphClass: 2
Flags: MW
HStem: -97 897<159 288 159 288>
VStem: 159 129
LayerCount: 2
Back
Fore
SplineSet
288 800 m 1
 163 -97 l 1
 159 -97 l 1
 284 800 l 1
 288 800 l 1
EndSplineSet
EndChar

StartChar: braceright
Encoding: 125 125 1006
Width: 326
Flags: MW
HStem: -111 920<41.8594 195.974>
VStem: 41.86 223.58
LayerCount: 2
Fore
SplineSet
41.9297 -107.5 m 1
 91.71 -107.5 124.219 -81.2188 133.219 -14.7891 c 2
 173.009 269.711 l 2
 180.148 319.931 211.719 348.28 260.079 349 c 1
 213.009 349.71 189.079 378.07 196.289 428.42 c 2
 236.149 712.92 l 2
 245.079 779.35 220.719 805.5 170.938 805.5 c 1
 171.009 809 l 1
 220.938 809 249.009 782.5 239.938 714.07 c 2
 199.938 427.42 l 2
 192.009 375.35 220.148 350.92 265.438 350.92 c 1
 264.288 347.07 l 1
 219.148 347.07 184.858 322.5 176.858 270.43 c 2
 136.929 -16.2207 l 2
 127.789 -84.6504 92.0693 -111 41.8594 -111 c 1
 41.9297 -107.5 l 1
EndSplineSet
Substitution2: "'case' Case-Sensitive Forms lookup 25 subtable" braceright.case
Substitution2: "'aalt' Access All Alternates lookup 0 subtable" braceright.case
EndChar
StartChar: asciitilde
Encoding: 126 126 2247
Width: 454
GlyphClass: 2
Flags: MW
HStem: 290 59
VStem: 91 291<303 336>
LayerCount: 2
Back
Fore
SplineSet
304 290 m 0
 256 290 217 345 169 345 c 0
 136 345 112 324 94 301 c 1
 91 303 l 1
 108 326 134 349 169 349 c 0
 219 349 258 294 304 294 c 0
 337 294 360 315 378 338 c 1
 382 336 l 1
 365 313 338 290 304 290 c 0
EndSplineSet
Substitution2: "'onum' Oldstyle Figures lookup 26 subtable" asciitilde.osf
Substitution2: "'tnum' Tabular Numbers lookup 25 subtable" asciitilde.tf
AlternateSubs2: "'aalt' Access All Alternates lookup 1 subtable" asciitilde.tf asciitilde.osf
EndChar
StartChar: exclamdown
Encoding: 161 161 2127
Width: 234
Flags: MW
HStem: -188 21G<53 57 53 53> 422 17<140.5 145.5>
VStem: 53 99
LayerCount: 2
Back
Fore
SplineSet
143 439 m 0
 148 439 152 436 152 431 c 0
 152 426 148 422 143 422 c 0
 138 422 135 426 135 431 c 0
 135 436 138 439 143 439 c 0
120 254 m 1
 57 -188 l 1
 53 -188 l 1
 116 254 l 1
 120 254 l 1
EndSplineSet
Substitution2: "'case' Case-Sensitive Forms lookup 29 subtable" exclamdown.case
Substitution2: "'aalt' Access All Alternates lookup 0 subtable" exclamdown.case
EndChar

StartChar: cent
Encoding: 162 162 1062
Width: 468
Flags: MW
HStem: -144.22 139 -8.92999 21G -8.75 21G 507.21 20G 523.43 148.93
VStem: 74.94 366.84
LayerCount: 2
Fore
SplineSet
319.07 527.21 m 0x34
 372.21 527.21 410.49 510.282 441.78 477.212 c 1
 438.561 474.852 l 1
 407.78 507.502 369.99 523.432 319.141 523.432 c 0
 192.07 523.432 104.42 416.502 83.0703 251.852 c 0
 60.7803 87.2812 131.07 -5.21875 243.351 -5.21875 c 0x8c
 301.921 -5.21875 343.991 15.6416 382.921 46.4219 c 1
 384.991 43.9219 l 1
 346.711 12.7822 304.141 -9.07812 243.49 -9.07812 c 0
 240.9 -9.07812 238.32 -9.02832 235.771 -8.92871 c 1x54
 216.851 -144.219 l 1
 213.07 -144.219 l 1x94
 231.95 -8.74902 l 1
 123.8 -2.64941 57.4697 90.0303 79 251.851 c 0
 100.88 416.24 185.55 523.271 312 527.11 c 1
 331.93 672.36 l 1
 335.64 672.36 l 1x2c
 315.72 527.19 l 1
 316.83 527.2 317.95 527.21 319.07 527.21 c 0x34
EndSplineSet
Substitution2: "'onum' Oldstyle Figures lookup 22 subtable" cent.osf
Substitution2: "'tnum' Tabular Numbers lookup 21 subtable" cent.tf
AlternateSubs2: "'aalt' Access All Alternates lookup 1 subtable" cent.tf cent.osf
EndChar
StartChar: yen
Encoding: 165 165 2214
Width: 471
GlyphClass: 2
Flags: MW
HStem: 0 21G<198 202 198 198> 0 186<198 202 198 198> 182 138<114 223 94 241 227 241 247 359 227 227>
VStem: 81 421<660 660>
LayerCount: 2
Back
Fore
SplineSet
502 660 m 1xb0
 247 320 l 1
 378 320 l 1
 378 316 l 1
 246 316 l 1xb0
 228 186 l 1x50
 359 186 l 1
 359 182 l 1
 227 182 l 1
 202 0 l 1
 198 0 l 1
 223 182 l 1xb0
 94 182 l 1
 95 186 l 1
 224 186 l 1x50
 241 316 l 1
 113 316 l 1
 114 320 l 1
 241 320 l 1
 81 660 l 1
 86 660 l 1
 244 322 l 1
 497 660 l 1
 502 660 l 1xb0
EndSplineSet
Substitution2: "'onum' Oldstyle Figures lookup 26 subtable" yen.osf
Substitution2: "'tnum' Tabular Numbers lookup 25 subtable" yen.tf
AlternateSubs2: "'aalt' Access All Alternates lookup 1 subtable" yen.tf yen.osf
EndChar
StartChar: brokenbar
Encoding: 166 166 2377
Width: 420
GlyphClass: 2
Flags: MW
HStem: -97 897<160 289 160 289>
VStem: 160 129
LayerCount: 2
Back
Fore
SplineSet
289 800 m 1
 238 443 l 1
 234 443 l 1
 285 800 l 1
 289 800 l 1
213 262 m 1
 164 -97 l 1
 160 -97 l 1
 209 262 l 1
 213 262 l 1
EndSplineSet
EndChar

StartChar: section
Encoding: 167 167 1225
Width: 531
Flags: MW
HStem: -59.51 729.72
VStem: 74.7 388.01
LayerCount: 2
Fore
SplineSet
328.78 666.42 m 0
 226.931 666.42 177.991 602.058 177.991 543.838 c 0
 177.991 496.908 208.771 461.338 304.491 426.408 c 0
 392.841 394.408 427.131 356.198 427.131 297.048 c 0
 427.131 238.598 398.871 195.258 321.681 154.368 c 1
 358.751 130.028 372.131 101.418 372.131 66.1279 c 0
 372.131 11.5576 329.411 -59.5127 218.481 -59.5127 c 0
 159.981 -59.5127 113.271 -46.2324 74.7012 -18.2324 c 1
 76.9111 -14.6621 l 1
 113.201 -42.6621 160.841 -55.6621 218.491 -55.6621 c 0
 329.562 -55.6621 368.062 15.4883 368.062 66.1279 c 0
 368.062 117.778 338.201 154.128 244.852 185.278 c 1
 155.491 216.418 115.921 251.778 115.921 310.059 c 0
 115.921 362.379 139.431 403.049 231.28 455.709 c 1
 189.17 481.639 174 509.979 174 543.919 c 0
 174 605.569 227.78 670.209 328.851 670.209 c 0
 384.641 670.209 422.711 656.779 462.711 629.85 c 1
 460.421 626.35 l 1
 421.421 653.35 383.641 666.42 328.78 666.42 c 0
423.131 297.058 m 0
 423.131 353.768 389.991 390.768 302.991 422.768 c 0
 275.161 432.787 252.721 442.967 234.851 453.537 c 1
 141.461 399.807 119.991 361.267 119.991 310.047 c 0
 119.991 254.117 158.271 219.188 247.491 187.838 c 0
 276.981 178.178 300.191 167.848 318.182 156.617 c 1
 400.031 199.607 423.131 243.298 423.131 297.058 c 0
EndSplineSet
Substitution2: "'onum' Oldstyle Figures lookup 22 subtable" section.osf
Substitution2: "'tnum' Tabular Numbers lookup 21 subtable" section.tf
AlternateSubs2: "'aalt' Access All Alternates lookup 1 subtable" section.tf section.osf
EndChar

StartChar: dieresis
Encoding: 168 168 1257
Width: 226
Flags: MW
HStem: 678.35 14.72
VStem: 90.06 14.78 240.7 14.78
AnchorPoint: "Anchor-12" 164 609 basemark 0
LayerCount: 2
Fore
SplineSet
97.5703 693.07 m 0
 102.5 693.07 104.991 689.42 104.841 685.57 c 0
 104.701 681.851 102.131 678.351 97.3408 678.351 c 0
 92.4912 678.351 89.9209 682.001 90.0605 685.851 c 0
 90.2109 689.57 92.8506 693.07 97.5703 693.07 c 0
248.271 693.07 m 0
 253.132 693.07 255.631 689.42 255.48 685.57 c 0
 255.341 681.851 252.771 678.351 248.051 678.351 c 0
 243.121 678.351 240.551 682.001 240.701 685.851 c 0
 240.841 689.57 243.491 693.07 248.271 693.07 c 0
EndSplineSet
Substitution2: "'case' Case-Sensitive Forms lookup 25 subtable" dieresis.case
Substitution2: "'smcp' Lowercase to Small Capitals lookup 24 subtable" dieresis.sc
Substitution2: "'c2sc' Capitals to Small Capitals lookup 23 subtable" dieresis.sc
AlternateSubs2: "'aalt' Access All Alternates lookup 1 subtable" dieresis.sc dieresis.case
EndChar
StartChar: copyright
Encoding: 169 169 2381
Width: 810
GlyphClass: 2
Flags: MW
HStem: 158 116<370.5 426 370.5 482.5> 599 113<379 423>
VStem: 137 144<385.5 494.5 385.5 515.5>
LayerCount: 2
Back
Fore
SplineSet
405 712 m 0
 560 712 673 599 673 435 c 0
 673 274 560 158 405 158 c 0
 250 158 137 271 137 435 c 0
 137 596 250 712 405 712 c 0
405 708 m 0
 252 708 141 595 141 435 c 0
 141 272 252 162 405 162 c 0
 558 162 669 275 669 435 c 0
 669 598 558 708 405 708 c 0
406 602 m 0
 440 602 464 591 481 576 c 1
 479 573 l 1
 462 587 440 599 406 599 c 0
 352 599 281 552 281 437 c 0
 281 334 335 274 406 274 c 0
 446 274 471 288 490 304 c 1
 492 301 l 1
 474 285 446 270 406 270 c 0
 333 270 277 334 277 437 c 0
 277 554 351 602 406 602 c 0
EndSplineSet
EndChar
StartChar: ordfeminine
Encoding: 170 170 1056
Width: 500
GlyphClass: 2
Flags: MW
HStem: 0 21G<56 56 56 367> 0 282<56 256 187.5 256 187.5 367> 278 235<186.5 391 293 403> 510 170<285 293 293 340.5 285 391>
VStem: 367.33 7.67 394.5 9.5
LayerCount: 2
Back
Fore
SplineSet
304 680 m 0x9c
 377 680 404 648 404 593 c 0
 404 584 403 574 402 564 c 2x9c
 375 368 l 2
 369 327 363 293 405 281 c 1
 403 278 l 1
 360 290 366 326 370 362 c 1xa8
 334 307 288 278 221 278 c 0
 152 278 115 317 115 374 c 0
 115 462 186 513 293 513 c 2
 391 513 l 1
 398 564 l 2
 399 574 400 583 400 593 c 0xac
 400 644 376 676 304 676 c 0
 268 676 229 668 183 651 c 1
 183 655 l 1
 228 672 266 680 304 680 c 0x9c
391 510 m 1
 293 510 l 2
 186 510 119 459 119 374 c 0
 119 319 154 282 221 282 c 0
 291 282 335 314 371 369 c 1x58
 391 510 l 1
56 0 m 1
 58 4 l 1
 368 4 l 1
 367 0 l 1
 56 0 l 1
EndSplineSet
EndChar

StartChar: guillemotleft
Encoding: 171 171 1036
Width: 520
Flags: MW
HStem: 82.07 412.86
VStem: 116.78 322.86
LayerCount: 2
Fore
SplineSet
292.93 493.07 m 1
 121.209 288.001 l 1
 236.779 83.9307 l 1
 233.43 82.0703 l 1
 116.779 286.36 l 1
 116.93 289.641 l 1
 289.71 494.931 l 1
 292.93 493.07 l 1
439.639 493.071 m 1
 267.929 288.001 l 1
 383.499 83.9307 l 1
 380.139 82.0811 l 1
 263.499 286.361 l 1
 263.639 289.651 l 1
 436.429 494.932 l 1
 439.639 493.071 l 1
EndSplineSet
Substitution2: "'case' Case-Sensitive Forms lookup 25 subtable" guillemotleft.case
Substitution2: "'aalt' Access All Alternates lookup 0 subtable" guillemotleft.case
EndChar

StartChar: logicalnot
Encoding: 172 172 1105
Width: 489
Flags: MW
HStem: 213.28 109.65
VStem: 93.07 321.43
LayerCount: 2
Fore
SplineSet
398.14 213.28 m 1
 393.999 213.28 l 1
 409.069 318.931 l 1
 93.0693 318.931 l 1
 94.3496 322.931 l 1
 414.5 322.931 l 1
 398.14 213.28 l 1
EndSplineSet
Substitution2: "'onum' Oldstyle Figures lookup 22 subtable" logicalnot.osf
Substitution2: "'tnum' Tabular Numbers lookup 21 subtable" logicalnot.tf
AlternateSubs2: "'aalt' Access All Alternates lookup 1 subtable" logicalnot.tf logicalnot.osf
EndChar

StartChar: softhyphen
Encoding: 173 173 1028
Width: 400
Flags: MW
HStem: 310.14 3.86
VStem: 92.07 231.64
LayerCount: 2
Fore
SplineSet
92.3496 314 m 1
 323.709 314 l 1
 323.419 310.14 l 1
 92.0693 310.14 l 1
 92.3496 314 l 1
EndSplineSet
Substitution2: "'case' Case-Sensitive Forms lookup 25 subtable" softhyphen.case
Substitution2: "'aalt' Access All Alternates lookup 0 subtable" softhyphen.case
EndChar
StartChar: registered
Encoding: 174 174 2382
Width: 634
GlyphClass: 2
Flags: MW
HStem: 292 206<254 324 324 343.5 254 385> 494 145<254 306 306 329 254 254 333 333> 635 75<254 306 254 254>
VStem: 109 145<441 494 498 557> 250 148<541.5 590.5 541.5 639 541.5 639> 394 132<542 562 446 589>
LayerCount: 2
Back
Fore
SplineSet
317 710 m 0xb4
 443 710 526 620 526 504 c 0
 526 388 453 292 317 292 c 0
 191 292 109 383 109 499 c 0
 109 615 182 710 317 710 c 0xb4
317 296 m 0
 451 296 522 391 522 504 c 0
 522 617 442 707 317 707 c 0
 183 707 112 612 112 499 c 0
 112 386 192 296 317 296 c 0
398 565 m 0x48
 398 518 366 497 333 494 c 1
 407 371 l 1
 403 371 l 1
 329 494 l 1x48
 254 494 l 1x54
 254 372 l 1
 250 372 l 1xa8
 250 639 l 1
 306 639 l 2
 363 639 398 616 398 565 c 0x48
254 498 m 1xb4
 324 498 l 2
 363 498 394 519 394 565 c 0
 394 613 362 635 306 635 c 2
 254 635 l 1
 254 498 l 1xb4
EndSplineSet
EndChar
StartChar: macron
Encoding: 175 175 2526
Width: 252
Flags: MW
HStem: 689 4<90 282 90 282>
VStem: 90 192<689 693 689 693>
LayerCount: 2
Back
Fore
SplineSet
282 689 m 1
 90 689 l 1
 90 693 l 1
 282 693 l 1
 282 689 l 1
EndSplineSet
Substitution2: "'case' Case-Sensitive Forms lookup 29 subtable" macron.case
Substitution2: "'smcp' Lowercase to Small Capitals lookup 28 subtable" macron.sc
Substitution2: "'c2sc' Capitals to Small Capitals lookup 27 subtable" macron.sc
AlternateSubs2: "'aalt' Access All Alternates lookup 1 subtable" macron.sc macron.case
EndChar
StartChar: degree
Encoding: 176 176 2385
Width: 521
GlyphClass: 2
Flags: MW
HStem: 670 20G<243 320>
VStem: 133.76 256.03
LayerCount: 2
Back
Fore
SplineSet
243 420 m 0
 170 420 125 475 135 556 c 0
 146 632 206 690 280 690 c 0
 360 690 399 632 388 554 c 0
 378 475 323 420 243 420 c 0
243 424 m 0
 320 424 374 477 384 555 c 0
 395 631 357 686 280 686 c 0
 209 686 150 631 139 555 c 0
 129 477 173 424 243 424 c 0
EndSplineSet
Substitution2: "'onum' Oldstyle Figures lookup 26 subtable" degree.osf
Substitution2: "'tnum' Tabular Numbers lookup 25 subtable" degree.tf
AlternateSubs2: "'aalt' Access All Alternates lookup 1 subtable" degree.tf degree.osf
EndChar
StartChar: plusminus
Encoding: 177 177 2275
Width: 481
GlyphClass: 2
Flags: MW
HStem: 0 333<48 250 97 250 254 358> 173 160<227 231 227 227> 329 160<96 275 271 275 271 406 253 275>
VStem: 48 359<0 333>
LayerCount: 2
Back
Fore
SplineSet
275 489 m 1x30
 254 333 l 1x90
 407 333 l 1
 406 329 l 1
 253 329 l 1x30
 231 173 l 1
 227 173 l 1x50
 249 329 l 1x30
 96 329 l 1
 97 333 l 1
 250 333 l 1x90
 271 489 l 1
 275 489 l 1x30
48 0 m 1
 50 4 l 1
 360 4 l 1
 358 0 l 1
 48 0 l 1
EndSplineSet
Substitution2: "'onum' Oldstyle Figures lookup 26 subtable" plusminus.osf
Substitution2: "'tnum' Tabular Numbers lookup 25 subtable" plusminus.tf
AlternateSubs2: "'aalt' Access All Alternates lookup 1 subtable" plusminus.tf plusminus.osf
EndChar

StartChar: twosuperior
Encoding: 178 178 972
Width: 400
Flags: MW
HStem: 660.21 20G 714.35 20G
VStem: 59.58 259.56
LayerCount: 2
Fore
SplineSet
229.71 734.35 m 0
 297.14 734.35 325.869 688.85 317.869 632.42 c 0
 305.869 547.42 256.509 503.56 65.3691 322.13 c 1
 285.219 322.2 l 1
 284.509 318.351 l 1
 59.5791 318.351 l 1
 59.7891 322.2 l 1
 254.149 506.7 301.93 549.351 313.79 632.561 c 0
 321.72 687.28 294.569 730.561 229.64 730.561 c 0
 181.93 730.561 147.859 711.49 114.43 677.99 c 1
 111 680.21 l 1
 145.57 714.71 181.78 734.35 229.71 734.35 c 0
EndSplineSet
EndChar
StartChar: uni00B2
Encoding: 178 178 2110
Width: 400
Flags: MW
HStem: 660 20G<111 111> 714 20G<206 263.5>
VStem: 60 259.26
LayerCount: 2
Back
Fore
SplineSet
230 734 m 0
 297 734 326 689 318 632 c 0
 306 547 256 503 65 322 c 1
 285 322 l 1
 284 318 l 1
 60 318 l 1
 60 322 l 1
 254 506 302 549 314 632 c 0
 322 687 295 730 230 730 c 0
 182 730 148 711 114 678 c 1
 111 680 l 1
 146 714 182 734 230 734 c 0
EndSplineSet
EndChar

StartChar: threesuperior
Encoding: 179 179 973
Width: 400
Flags: MW
HStem: 312.29 226.78 535.35 199.22 670.5 20G 714.57 20G
VStem: 61.2 261.82
LayerCount: 2
Fore
SplineSet
231.85 734.57 m 0xb8
 297.21 734.57 329.92 693.432 321.92 636.071 c 0
 312.99 571.861 263.771 541.571 215.49 537.361 c 1
 272.99 534.432 315.7 502.071 305.7 429.501 c 0
 296.63 360.361 240.49 312.291 168.7 312.291 c 0
 118.63 312.291 87.3496 327.641 61.1992 363.501 c 1
 64.5596 365.431 l 1
 90.6992 329.711 120.699 316.071 168.629 316.071 c 0xb8
 245.279 316.071 293.779 370.001 301.779 429.711 c 0
 310.779 499.281 272.85 535.352 200.85 535.352 c 2x48
 178.42 535.352 l 1
 178.99 539.071 l 1
 202.561 539.071 l 2
 253.99 539.071 308.92 569.642 317.92 636.281 c 0
 325.85 691.711 294.85 730.781 231.85 730.781 c 0
 191.92 730.781 156.42 718.001 121.13 687.211 c 1
 119.06 690.501 l 1
 155.21 721.351 189.21 734.57 231.85 734.57 c 0xb8
EndSplineSet
EndChar
StartChar: uni00B3
Encoding: 179 179 2111
Width: 400
Flags: MW
HStem: 312 227<179 203 203 204.5> 535 199<178 264.5 178 264.5> 670 20G<119 119> 714 20G<210.5 264.5>
VStem: 61 262.08
LayerCount: 2
Back
Fore
SplineSet
232 734 m 0xb8
 297 734 330 693 322 636 c 0
 313 572 264 541 215 537 c 1
 273 534 316 502 306 429 c 0
 297 360 240 312 169 312 c 0
 119 312 87 327 61 363 c 1
 65 365 l 1
 91 329 121 316 169 316 c 0xb8
 245 316 294 370 302 429 c 0
 311 499 273 535 201 535 c 2x48
 178 535 l 1
 179 539 l 1
 203 539 l 2
 254 539 309 569 318 636 c 0
 326 691 295 730 232 730 c 0
 192 730 156 718 121 687 c 1
 119 690 l 1
 155 721 189 734 232 734 c 0xb8
EndSplineSet
EndChar

StartChar: acute
Encoding: 180 180 1252
Width: 230
Flags: MW
HStem: 661.21 86.29
VStem: 87.07 180.64
LayerCount: 2
Fore
SplineSet
267.71 743.35 m 1
 87.6406 661.21 l 1
 87.0703 664.57 l 1
 266.07 747.5 l 1
 267.71 743.35 l 1
EndSplineSet
Substitution2: "'case' Case-Sensitive Forms lookup 25 subtable" acute.case
Substitution2: "'smcp' Lowercase to Small Capitals lookup 24 subtable" acute.sc
Substitution2: "'c2sc' Capitals to Small Capitals lookup 23 subtable" acute.sc
Substitution2: "'locl' Localized Forms in Latin lookup 7 subtable" acute.loclPLK
AlternateSubs2: "'aalt' Access All Alternates lookup 1 subtable" acute.loclPLK acute.sc acute.case
EndChar
StartChar: paragraph
Encoding: 182 182 2380
Width: 683
GlyphClass: 2
Flags: MW
HStem: -191 21G<277 277 428 428> 661 20G<554 554>
VStem: 159.56 394.44
LayerCount: 2
Back
Fore
SplineSet
400 680 m 2
 554 681 l 1
 432 -190 l 1
 428 -191 l 1
 550 677 l 1
 403 676 l 1
 281 -190 l 1
 277 -191 l 1
 347 311 l 1
 192 312 148 399 162 496 c 0
 178 613 274 680 400 680 c 2
EndSplineSet
EndChar

StartChar: cedilla
Encoding: 184 184 1255
Width: 191
Flags: MW
HStem: -203 120.85 -84.65 79.29 -5.36 21G
VStem: -33.07 139.35
LayerCount: 2
Fore
SplineSet
23.21 -82.1504 m 1xb0
 75.5703 -83.3604 106.28 -97.7188 106.28 -135.858 c 0
 106.28 -170.929 80.4307 -202.999 27.6406 -202.999 c 0
 -1.63965 -202.999 -18 -196.789 -33.0703 -186.789 c 1
 -31.0703 -183.289 l 1
 -16.2803 -194.069 0.790039 -199.22 27.6396 -199.22 c 0xb0
 81.0693 -199.22 102.069 -165.5 102.14 -136.15 c 0
 102.21 -101.431 75.6396 -85.6504 19.21 -84.6504 c 1x50
 34.71 -5.36035 l 1
 38.1396 -5.36035 l 1
 23.21 -82.1504 l 1xb0
EndSplineSet
Substitution2: "'case' Case-Sensitive Forms lookup 25 subtable" cedilla.case
Substitution2: "'smcp' Lowercase to Small Capitals lookup 24 subtable" cedilla.sc
Substitution2: "'c2sc' Capitals to Small Capitals lookup 23 subtable" cedilla.sc
AlternateSubs2: "'aalt' Access All Alternates lookup 1 subtable" cedilla.sc cedilla.case
EndChar

StartChar: onesuperior
Encoding: 185 185 971
Width: 400
Flags: MW
HStem: 707.5 20G<284.5 288 288 288>
VStem: 154.85 133.15
LayerCount: 2
Fore
SplineSet
230.93 318.35 m 1
 226.99 318.351 l 1
 283.71 723.141 l 1
 156.71 651.851 l 1
 154.85 655.28 l 1
 284.5 727.5 l 1
 288 727.5 l 1
 230.93 318.35 l 1
EndSplineSet
EndChar
StartChar: uni00B9
Encoding: 185 185 2109
Width: 400
Flags: MW
HStem: 707 20G<285 288 288 288>
VStem: 155 133<655 727>
LayerCount: 2
Back
Fore
SplineSet
288 727 m 1
 231 318 l 1
 227 318 l 1
 284 723 l 1
 157 652 l 1
 155 655 l 1
 285 727 l 1
 288 727 l 1
EndSplineSet
EndChar
StartChar: ordmasculine
Encoding: 186 186 1057
Width: 500
GlyphClass: 2
Flags: MW
HStem: 0 282<58 325 210 325 210 368> 660 20G<237.5 352.5>
VStem: 58 388
LayerCount: 2
Back
Fore
SplineSet
310 680 m 0
 395 680 446 625 446 529 c 0
 446 433 400 278 252 278 c 0
 165 278 116 334 116 431 c 0
 116 532 165 680 310 680 c 0
310 676 m 0
 168 676 120 530 120 431 c 0
 120 336 168 282 252 282 c 0
 398 282 442 435 442 529 c 0
 442 623 393 676 310 676 c 0
58 0 m 1
 59 4 l 1
 369 4 l 1
 368 0 l 1
 58 0 l 1
EndSplineSet
EndChar

StartChar: guillemotright
Encoding: 187 187 1037
Width: 514
Flags: MW
HStem: 82.08 412.85
VStem: 73.93 344.43
LayerCount: 2
Fore
SplineSet
418.36 289.64 m 1
 418.221 286.359 l 1
 245.431 82.0791 l 1
 242.221 83.9287 l 1
 413.931 287.999 l 1
 300.221 493.069 l 1
 303.57 494.93 l 1
 418.36 289.64 l 1
250.07 289.649 m 1
 249.93 286.369 l 1
 77.1494 82.0791 l 1
 73.9297 83.9395 l 1
 245.649 288.01 l 1
 131.93 493.08 l 1
 135.29 494.93 l 1
 250.07 289.649 l 1
EndSplineSet
Substitution2: "'case' Case-Sensitive Forms lookup 25 subtable" guillemotright.case
Substitution2: "'aalt' Access All Alternates lookup 0 subtable" guillemotright.case
EndChar
StartChar: onequarter
Encoding: 188 188 2066
Width: 874
Flags: MW
HStem: 0 124<703 707 703 703> 120 139<524 743 739 743 739 785 724 743> 660 20G<250 253 253 253> 714 20G<704 704>
VStem: 120 665<120 608>
LayerCount: 2
Back
Fore
SplineSet
704 734 m 1xb8
 708 733 l 1
 192 -67 l 1
 188 -66 l 1
 704 734 l 1xb8
192 271 m 1
 249 676 l 1
 122 605 l 1
 120 608 l 1
 250 680 l 1
 253 680 l 1
 196 271 l 1
 192 271 l 1
785 124 m 1
 785 120 l 1xb8
 724 120 l 1x78
 707 0 l 1
 703 0 l 1xb8
 720 120 l 1
 524 120 l 1
 524 125 l 1x78
 702 416 l 1
 706 415 l 1
 529 124 l 1
 720 124 l 1xb8
 739 259 l 1
 743 259 l 1x78
 724 124 l 1
 785 124 l 1
EndSplineSet
EndChar

StartChar: onehalf
Encoding: 189 189 925
Width: 874
Flags: MW
HStem: -0.00999451 21G 660.14 20G 713.85 20G
VStem: 120 665.06
LayerCount: 2
Fore
SplineSet
707.93 733 m 1
 191.569 -66.8604 l 1
 188.069 -66 l 1
 704.43 733.85 l 1
 707.93 733 l 1
196.069 271 m 1
 192.14 271 l 1
 248.85 675.78 l 1
 121.85 604.5 l 1
 120 607.93 l 1
 249.64 680.14 l 1
 253.14 680.14 l 1
 196.069 271 l 1
695.64 416 m 0
 763.069 416 791.789 370.489 783.789 314.06 c 0
 771.789 229.06 722.439 185.21 531.289 3.78027 c 1
 751.149 3.85059 l 1
 750.43 -0.00976562 l 1
 525.5 -0.00976562 l 1
 525.72 3.85059 l 1
 720.069 188.351 767.859 230.99 779.709 314.21 c 0
 787.639 368.92 760.499 412.21 695.569 412.21 c 0
 647.85 412.21 613.779 393.14 580.35 359.64 c 1
 576.92 361.85 l 1
 611.49 396.35 647.71 416 695.64 416 c 0
EndSplineSet
EndChar
StartChar: threequarters
Encoding: 190 190 2067
Width: 874
Flags: MW
HStem: 0 124<703 707 703 703> 120 139<524 743 739 743 739 785 724 743> 265 227<172 196 196 197.5> 488 199<171 257.5 171 257.5> 667 20G<203.5 257.5> 714 20G<704 704>
VStem: 54 731<120 316>
LayerCount: 2
Back
Fore
SplineSet
704 734 m 1xae
 708 733 l 1
 192 -67 l 1
 188 -66 l 1
 704 734 l 1xae
299 382 m 0
 290 313 233 265 162 265 c 0
 112 265 80 280 54 316 c 1
 58 318 l 1
 84 282 114 269 162 269 c 0xae
 238 269 287 323 295 382 c 0
 304 452 266 488 194 488 c 2x96
 171 488 l 1
 172 492 l 1
 196 492 l 2
 247 492 302 522 311 589 c 0
 319 644 288 683 225 683 c 0
 185 683 149 671 114 640 c 1
 112 643 l 1
 148 674 182 687 225 687 c 0
 290 687 323 646 315 589 c 0
 306 525 257 494 208 490 c 1
 266 487 309 455 299 382 c 0
785 124 m 1
 785 120 l 1xae
 724 120 l 1x4e
 707 0 l 1
 703 0 l 1xae
 720 120 l 1
 524 120 l 1
 524 125 l 1x4e
 702 416 l 1
 706 415 l 1
 529 124 l 1
 720 124 l 1xae
 739 259 l 1
 743 259 l 1x4e
 724 124 l 1
 785 124 l 1
EndSplineSet
EndChar
StartChar: questiondown
Encoding: 191 191 2131
Width: 447
Flags: MW
HStem: -194 21G<107 182> 484 17<251.5 256.5>
VStem: 25 296<-116 5.5>
LayerCount: 2
Back
Fore
SplineSet
254 484 m 0
 249 484 245 488 245 493 c 0
 245 498 249 501 254 501 c 0
 259 501 262 498 262 493 c 0
 262 488 259 484 254 484 c 0
147 -194 m 0
 67 -194 25 -141 25 -85 c 0
 25 96 251 81 250 228 c 0
 250 248 246 267 240 286 c 1
 244 286 l 1
 250 267 254 247 254 228 c 0
 255 79 29 94 29 -85 c 0
 29 -140 70 -191 147 -191 c 0
 216 -191 263 -166 318 -114 c 1
 321 -116 l 1
 266 -168 217 -194 147 -194 c 0
EndSplineSet
Substitution2: "'case' Case-Sensitive Forms lookup 29 subtable" questiondown.case
Substitution2: "'aalt' Access All Alternates lookup 0 subtable" questiondown.case
EndChar

StartChar: Agrave
Encoding: 192 192 6
Width: 556
GlyphClass: 2
Flags: MW
HStem: -0.00999451 21G 660.14 20G
VStem: -1.86 487.64
AnchorPoint: "Anchor-11" 0 0 basechar 0
AnchorPoint: "Anchor-10" 198 517 basechar 0
AnchorPoint: "Anchor-9" 337 680 basechar 0
AnchorPoint: "Anchor-8" 496 0 basechar 0
LayerCount: 2
Fore
SplineSet
433.28 770.28 m 1
 275.141 839.781 l 1
 277.57 843.921 l 1
 435.07 773.641 l 1
 433.28 770.28 l 1
435.851 211.991 m 1
 107.221 211.991 l 1
 2.4209 -0.00878906 l 1
 -1.85938 -0.00878906 l 1
 334.78 680.142 l 1
 338.431 680.142 l 1
 485.78 -0.00878906 l 1
 481.641 -0.00878906 l 1
 435.851 211.991 l 1
435.001 215.921 m 1
 335.921 674.641 l 1
 109.161 215.921 l 1
 435.001 215.921 l 1
EndSplineSet
Substitution2: "'c2sc' Capitals to Small Capitals lookup 23 subtable" agrave.sc
Substitution2: "'aalt' Access All Alternates lookup 0 subtable" agrave.sc
Position2: "'cpsp' Capital Spacing lookup 0 subtable" dx=5 dy=0 dh=10 dv=0
EndChar

StartChar: Aacute
Encoding: 193 193 2
Width: 556
GlyphClass: 2
Flags: MW
HStem: 0 21G 660.14 20G
VStem: -1.86 487.65
AnchorPoint: "Anchor-11" 0 0 basechar 0
AnchorPoint: "Anchor-10" 198 517 basechar 0
AnchorPoint: "Anchor-9" 337 680 basechar 0
AnchorPoint: "Anchor-8" 496 0 basechar 0
LayerCount: 2
Fore
SplineSet
267.57 770.28 m 1
 266.21 773.641 l 1
 442.28 843.931 l 1
 444 839.78 l 1
 267.57 770.28 l 1
435.85 212.001 m 1
 107.229 212.001 l 1
 2.42969 0.000976562 l 1
 -1.86035 0.000976562 l 1
 334.79 680.141 l 1
 338.43 680.141 l 1
 485.79 0.000976562 l 1
 481.64 0.000976562 l 1
 435.85 212.001 l 1
435 215.931 m 1
 335.93 674.641 l 1
 109.17 215.931 l 1
 435 215.931 l 1
EndSplineSet
Substitution2: "'c2sc' Capitals to Small Capitals lookup 23 subtable" aacute.sc
Substitution2: "'aalt' Access All Alternates lookup 0 subtable" aacute.sc
Position2: "'cpsp' Capital Spacing lookup 0 subtable" dx=5 dy=0 dh=10 dv=0
EndChar
StartChar: Acircumflex
Encoding: 194 194 11
Width: 556
GlyphClass: 2
Flags: MW
HStem: 0 21G<-2 2 -2 -2 482 486 482 482> 660 20G<335 338 338 338>
VStem: -2 488<0 0>
AnchorPoint: "Anchor-14" 0 0 basechar 0
AnchorPoint: "Anchor-13" 415 702 basechar 0
AnchorPoint: "Anchor-12" 358 852 basechar 0
AnchorPoint: "Anchor-11" 496 0 basechar 0
AnchorPoint: "Anchor-10" 242 0 basechar 0
LayerCount: 2
Back
Fore
SplineSet
358 848 m 1
 240 770 l 1
 237 772 l 1
 357 852 l 1
 360 852 l 1
 459 772 l 1
 456 770 l 1
 358 848 l 1
482 0 m 1
 436 212 l 1
 107 212 l 1
 2 0 l 1
 -2 0 l 1
 335 680 l 1
 338 680 l 1
 486 0 l 1
 482 0 l 1
109 216 m 1
 435 216 l 1
 336 675 l 1
 109 216 l 1
EndSplineSet
Substitution2: "'c2sc' Capitals to Small Capitals lookup 27 subtable" acircumflex.sc
Substitution2: "'aalt' Access All Alternates lookup 0 subtable" acircumflex.sc
Position2: "'cpsp' Capital Spacing lookup 0 subtable" dx=5 dy=0 dh=10 dv=0
EndChar

StartChar: Atilde
Encoding: 195 195 10
Width: 556
GlyphClass: 2
Flags: MW
HStem: -0.00999451 21G 660.13 20G
VStem: -1.87 487.65
AnchorPoint: "Anchor-11" 0 0 basechar 0
AnchorPoint: "Anchor-10" 198 517 basechar 0
AnchorPoint: "Anchor-9" 337 680 basechar 0
AnchorPoint: "Anchor-8" 496 0 basechar 0
LayerCount: 2
Fore
SplineSet
316.85 855.37 m 1
 312.68 856.41 308.409 857.001 303.999 856.991 c 0
 298.479 856.981 293.39 856.451 288.51 855.381 c 1
 293.47 856.511 298.58 857.07 304 857.07 c 0
 308.4 857.07 312.67 856.45 316.85 855.37 c 1
235.278 820.991 m 1
 256.259 840.571 270.918 851.521 288.498 855.381 c 1
 270.918 851.381 255.408 840.161 235.849 820.991 c 1
 235.278 820.991 l 1
316.838 855.37 m 1
 342.748 848.88 364.888 824.751 393.328 816.141 c 1
 364.788 824.66 342.418 848.76 316.838 855.37 c 1
481.918 851.562 m 1
 463.738 831.672 449.747 820.391 433.247 815.711 c 1
 449.567 820.461 463.728 831.821 481.348 851.562 c 1
 481.918 851.562 l 1
433.247 815.711 m 1
 427.077 813.911 420.587 813.061 413.487 813.061 c 0
 406.377 813.061 399.687 814.211 393.316 816.141 c 1
 399.637 814.251 406.247 813.131 413.267 813.131 c 0
 420.517 813.131 427.057 813.961 433.247 815.711 c 1
435.837 211.99 m 1
 107.217 211.99 l 1
 2.41699 -0.00976562 l 1
 -1.87305 -0.00976562 l 1
 334.777 680.13 l 1
 338.417 680.13 l 1
 485.777 -0.00976562 l 1
 481.627 -0.00976562 l 1
 435.837 211.99 l 1
434.986 215.92 m 1
 335.916 674.63 l 1
 109.156 215.92 l 1
 434.986 215.92 l 1
EndSplineSet
Substitution2: "'c2sc' Capitals to Small Capitals lookup 23 subtable" atilde.sc
Substitution2: "'aalt' Access All Alternates lookup 0 subtable" atilde.sc
Position2: "'cpsp' Capital Spacing lookup 0 subtable" dx=5 dy=0 dh=10 dv=0
EndChar

StartChar: Adieresis
Encoding: 196 196 5
Width: 556
GlyphClass: 2
Flags: MW
HStem: 0 21G<-1.86816 2.42188 -1.86816 -1.86816 481.632 481.632 481.632 485.782> 660.14 20G 804.35 14.72
VStem: 272.92 14.79 423.56 14.79
AnchorPoint: "Anchor-11" 0 0 basechar 0
AnchorPoint: "Anchor-10" 198 517 basechar 0
AnchorPoint: "Anchor-9" 347 735 basechar 0
AnchorPoint: "Anchor-8" 496 0 basechar 0
LayerCount: 2
Fore
SplineSet
280.21 804.35 m 0
 275.36 804.35 272.781 808 272.921 811.85 c 0
 273.071 815.569 275.711 819.069 280.431 819.069 c 0
 285.36 819.069 287.86 815.419 287.71 811.569 c 0
 287.57 807.85 285 804.35 280.21 804.35 c 0
430.921 804.35 m 0
 425.991 804.35 423.422 808 423.562 811.85 c 0
 423.712 815.569 426.352 819.069 431.142 819.069 c 0
 435.991 819.069 438.491 815.419 438.352 811.569 c 0
 438.201 807.85 435.631 804.35 430.921 804.35 c 0
435.842 212 m 1
 107.222 212 l 1
 2.42188 0 l 1
 -1.86816 -0 l 1
 334.782 680.14 l 1
 338.422 680.14 l 1
 485.782 0 l 1
 481.632 0 l 1
 435.842 212 l 1
434.992 215.93 m 1
 335.922 674.64 l 1
 109.162 215.93 l 1
 434.992 215.93 l 1
EndSplineSet
Substitution2: "'c2sc' Capitals to Small Capitals lookup 23 subtable" adieresis.sc
Substitution2: "'aalt' Access All Alternates lookup 0 subtable" adieresis.sc
Position2: "'cpsp' Capital Spacing lookup 0 subtable" dx=5 dy=0 dh=10 dv=0
EndChar

StartChar: Aring
Encoding: 197 197 9
Width: 556
GlyphClass: 2
Flags: MW
HStem: 0 21G 660.15 20G 779.93 129.93
VStem: 295.5 129.28
AnchorPoint: "Anchor-11" 0 0 basechar 0
AnchorPoint: "Anchor-10" 198 517 basechar 0
AnchorPoint: "Anchor-9" 337 680 basechar 0
AnchorPoint: "Anchor-8" 496 0 basechar 0
LayerCount: 2
Fore
SplineSet
352 779.93 m 0
 310.22 779.93 290.351 806.788 295.501 844.568 c 0
 300.641 883.429 329.431 909.858 369.211 909.858 c 0
 411.001 909.858 429.931 883.139 424.78 845.209 c 0
 419.641 806.359 391.78 779.93 352 779.93 c 0
299.421 844.288 m 0
 294.421 807.568 313.352 783.498 352.132 783.498 c 0
 389.992 783.498 416.632 809.288 420.852 845.498 c 0
 425.922 882.358 408.852 906.288 369.062 906.288 c 0
 331.281 906.288 304.491 881.428 299.421 844.288 c 0
435.842 211.998 m 1
 107.222 211.998 l 1
 2.42188 -0.00195312 l 1
 -1.86816 -0.00195312 l 1
 334.782 680.148 l 1
 338.422 680.148 l 1
 485.782 -0.00195312 l 1
 481.632 -0.00195312 l 1
 435.842 211.998 l 1
434.992 215.928 m 1
 335.922 674.647 l 1
 109.162 215.928 l 1
 434.992 215.928 l 1
EndSplineSet
Substitution2: "'c2sc' Capitals to Small Capitals lookup 23 subtable" aring.sc
Substitution2: "'aalt' Access All Alternates lookup 0 subtable" aring.sc
Position2: "'cpsp' Capital Spacing lookup 0 subtable" dx=5 dy=0 dh=10 dv=0
EndChar
StartChar: AE
Encoding: 198 198 33
Width: 751
GlyphClass: 2
Flags: MW
HStem: 0 208<-16 402 -16 402 98 665 98 427> 204 159<387 402> 359 321<387 651 387 387>
VStem: -16 721<0 676>
AnchorPoint: "Anchor-14" 0 0 basechar 0
AnchorPoint: "Anchor-13" 0 0 basechar 0
AnchorPoint: "Anchor-12" 515 680 basechar 0
AnchorPoint: "Anchor-11" 0 0 basechar 0
AnchorPoint: "Anchor-10" 0 0 basechar 0
LayerCount: 2
Back
Fore
SplineSet
705 676 m 1xb0
 348 676 l 1xb0
 387 363 l 1x50
 652 363 l 1
 651 359 l 1
 387 359 l 1
 431 4 l 1
 666 4 l 1
 665 0 l 1
 427 0 l 1xb0
 402 204 l 1
 96 204 l 1x50
 -12 0 l 1
 -16 0 l 1
 342 680 l 1
 705 680 l 1
 705 676 l 1xb0
402 208 m 1
 344 677 l 1
 98 208 l 1
 402 208 l 1
EndSplineSet
Substitution2: "'c2sc' Capitals to Small Capitals lookup 27 subtable" ae.sc
Substitution2: "'aalt' Access All Alternates lookup 0 subtable" ae.sc
Position2: "'cpsp' Capital Spacing lookup 0 subtable" dx=5 dy=0 dh=10 dv=0
EndChar
StartChar: Ccedilla
Encoding: 199 199 45
Width: 531
GlyphClass: 2
Flags: MW
HStem: -203 121<290 290 290 321.5> -86 81<285 305> -9 21G<301 301 304 305 304 304> 670 20G<284.5 440>
VStem: 90 458<169 633>
AnchorPoint: "Anchor-14" 0 0 basechar 0
AnchorPoint: "Anchor-13" 0 0 basechar 0
AnchorPoint: "Anchor-12" 403 680 basechar 0
AnchorPoint: "Anchor-11" 0 0 basechar 0
AnchorPoint: "Anchor-10" 306 -203 basechar 0
LayerCount: 2
Back
Fore
SplineSet
403 686 m 0xb8
 168 686 94 424 94 254 c 0
 94 86 175 -4 302 -5 c 2
 305 -5 l 2x58
 386 -5 437 26 474 54 c 1
 476 50 l 1
 439 23 387 -9 305 -9 c 2
 304 -9 l 1
 290 -82 l 1
 344 -83 373 -99 373 -139 c 0
 373 -171 348 -203 295 -203 c 0
 265 -203 249 -197 234 -187 c 1
 236 -183 l 1
 251 -194 268 -199 295 -199 c 0xb8
 348 -199 369 -166 369 -139 c 0
 369 -101 342 -87 285 -86 c 1x58
 301 -9 l 1
 171 -7 90 85 90 253 c 0
 90 430 166 690 403 690 c 0
 477 690 517 664 548 633 c 1
 546 630 l 1
 513 662 477 686 403 686 c 0xb8
EndSplineSet
Substitution2: "'c2sc' Capitals to Small Capitals lookup 27 subtable" ccedilla.sc
Substitution2: "'aalt' Access All Alternates lookup 0 subtable" ccedilla.sc
Position2: "'cpsp' Capital Spacing lookup 0 subtable" dx=5 dy=0 dh=10 dv=0
EndChar
StartChar: Egrave
Encoding: 200 200 80
Width: 495
GlyphClass: 2
Flags: MW
HStem: 0 21G<93 410 93 93> 359 321<188 408 148 495> 676 98<441 441 441 494>
VStem: 93 402
AnchorPoint: "Anchor-14" 0 0 basechar 0
AnchorPoint: "Anchor-13" 0 0 basechar 0
AnchorPoint: "Anchor-12" 363 844 basechar 0
AnchorPoint: "Anchor-11" 390 0 basechar 0
AnchorPoint: "Anchor-10" 248 0 basechar 0
LayerCount: 2
Back
Fore
SplineSet
283 844 m 1xb0
 441 774 l 1
 439 770 l 1
 281 840 l 1
 283 844 l 1xb0
495 680 m 1
 494 676 l 1
 192 676 l 1xb0
 148 363 l 1
 408 363 l 1
 408 359 l 1
 148 359 l 1
 98 4 l 1
 410 4 l 1
 410 0 l 1
 93 0 l 1
 188 680 l 1xd0
 495 680 l 1
EndSplineSet
Substitution2: "'c2sc' Capitals to Small Capitals lookup 27 subtable" egrave.sc
Substitution2: "'aalt' Access All Alternates lookup 0 subtable" egrave.sc
Position2: "'cpsp' Capital Spacing lookup 0 subtable" dx=5 dy=0 dh=10 dv=0
EndChar

StartChar: Eacute
Encoding: 201 201 25
Width: 495
GlyphClass: 2
Flags: MW
HStem: 0 21G<93.209 409.499 93.209 93.209> 358.93 321.22
VStem: 93.21 401.64
AnchorPoint: "Anchor-11" 248 0 basechar 0
AnchorPoint: "Anchor-10" 88 517 basechar 0
AnchorPoint: "Anchor-9" 343 680 basechar 0
AnchorPoint: "Anchor-8" 390 0 basechar 0
LayerCount: 2
Fore
SplineSet
450.21 839.78 m 1
 273.779 770.291 l 1
 272.43 773.641 l 1
 448.5 843.931 l 1
 450.21 839.78 l 1
494.279 676.221 m 1
 192.069 676.22 l 1
 148.419 362.79 l 1
 407.849 362.79 l 1
 407.568 358.93 l 1
 148.139 358.93 l 1
 97.6387 3.92969 l 1
 409.849 3.92969 l 1
 409.499 0 l 1
 93.209 0 l 1
 188.279 680.15 l 1
 494.85 680.15 l 1
 494.279 676.221 l 1
EndSplineSet
Substitution2: "'c2sc' Capitals to Small Capitals lookup 23 subtable" eacute.sc
Substitution2: "'aalt' Access All Alternates lookup 0 subtable" eacute.sc
Position2: "'cpsp' Capital Spacing lookup 0 subtable" dx=5 dy=0 dh=10 dv=0
EndChar
StartChar: Ecircumflex
Encoding: 202 202 70
Width: 495
GlyphClass: 2
Flags: MW
HStem: 0 21G<93 410 93 93> 359 321<188 408 148 495> 676 96<243 243 192 243>
VStem: 93 402
AnchorPoint: "Anchor-14" 0 0 basechar 0
AnchorPoint: "Anchor-13" 421 702 basechar 0
AnchorPoint: "Anchor-12" 364 852 basechar 0
AnchorPoint: "Anchor-11" 390 0 basechar 0
AnchorPoint: "Anchor-10" 248 0 basechar 0
LayerCount: 2
Back
Fore
SplineSet
462 770 m 1xb0
 364 848 l 1
 246 770 l 1
 243 772 l 1
 363 852 l 1
 366 852 l 1
 465 772 l 1
 462 770 l 1xb0
495 680 m 1
 494 676 l 1
 192 676 l 1xb0
 148 363 l 1
 408 363 l 1
 408 359 l 1
 148 359 l 1
 98 4 l 1
 410 4 l 1
 410 0 l 1
 93 0 l 1
 188 680 l 1xd0
 495 680 l 1
EndSplineSet
Substitution2: "'c2sc' Capitals to Small Capitals lookup 27 subtable" ecircumflex.sc
Substitution2: "'aalt' Access All Alternates lookup 0 subtable" ecircumflex.sc
Position2: "'cpsp' Capital Spacing lookup 0 subtable" dx=5 dy=0 dh=10 dv=0
EndChar

StartChar: Edieresis
Encoding: 203 203 29
Width: 495
GlyphClass: 2
Flags: MW
HStem: 0 21G<93.2109 409.491 93.2109 93.2109> 358.93 321.21 804.35 14.72
VStem: 279.14 14.78 429.77 14.79
AnchorPoint: "Anchor-11" 248 0 basechar 0
AnchorPoint: "Anchor-10" 88 517 basechar 0
AnchorPoint: "Anchor-9" 353 735 basechar 0
AnchorPoint: "Anchor-8" 390 0 basechar 0
LayerCount: 2
Fore
SplineSet
286.64 819.07 m 0
 291.569 819.07 294.061 815.42 293.921 811.57 c 0
 293.771 807.851 291.2 804.351 286.42 804.351 c 0
 281.56 804.351 278.989 808.001 279.14 811.851 c 0
 279.279 815.57 281.93 819.07 286.64 819.07 c 0
437.351 819.07 m 0
 442.2 819.07 444.701 815.42 444.562 811.57 c 0
 444.411 807.851 441.841 804.351 437.131 804.351 c 0
 432.201 804.351 429.631 808.001 429.771 811.851 c 0
 429.921 815.57 432.561 819.07 437.351 819.07 c 0
494.281 676.21 m 1
 192.062 676.209 l 1
 148.422 362.779 l 1
 407.852 362.779 l 1
 407.562 358.93 l 1
 148.132 358.93 l 1
 97.6318 3.92969 l 1
 409.852 3.92969 l 1
 409.491 0 l 1
 93.2109 -0 l 1
 188.281 680.14 l 1
 494.852 680.14 l 1
 494.281 676.21 l 1
EndSplineSet
Substitution2: "'c2sc' Capitals to Small Capitals lookup 23 subtable" edieresis.sc
Substitution2: "'aalt' Access All Alternates lookup 0 subtable" edieresis.sc
Position2: "'cpsp' Capital Spacing lookup 0 subtable" dx=5 dy=0 dh=10 dv=0
EndChar

StartChar: Igrave
Encoding: 204 204 50
Width: 263
GlyphClass: 2
Flags: MW
HStem: 0 21G 660.14 20G
VStem: 93.21 195.07
AnchorPoint: "Anchor-11" 0 0 basechar 0
AnchorPoint: "Anchor-10" 88 517 basechar 0
AnchorPoint: "Anchor-9" 190 680 basechar 0
AnchorPoint: "Anchor-8" 107 0 basechar 0
LayerCount: 2
Fore
SplineSet
288.28 773.64 m 1
 286.501 770.279 l 1
 128.351 839.779 l 1
 130.78 843.93 l 1
 288.28 773.64 l 1
97.2812 -0.000976562 m 1
 93.2109 -0.000976562 l 1
 188.281 680.139 l 1
 192.352 680.139 l 1
 97.2812 -0.000976562 l 1
EndSplineSet
Substitution2: "'c2sc' Capitals to Small Capitals lookup 23 subtable" igrave.sc
Substitution2: "'aalt' Access All Alternates lookup 0 subtable" igrave.sc
Position2: "'cpsp' Capital Spacing lookup 0 subtable" dx=5 dy=0 dh=10 dv=0
EndChar

StartChar: Iacute
Encoding: 205 205 45
Width: 263
GlyphClass: 2
Flags: MW
HStem: 0 21G 660.15 20G
VStem: 93.21 204
AnchorPoint: "Anchor-11" 0 0 basechar 0
AnchorPoint: "Anchor-10" 88 517 basechar 0
AnchorPoint: "Anchor-9" 190 680 basechar 0
AnchorPoint: "Anchor-8" 107 0 basechar 0
LayerCount: 2
Fore
SplineSet
297.21 839.78 m 1
 120.779 770.291 l 1
 119.43 773.641 l 1
 295.5 843.931 l 1
 297.21 839.78 l 1
97.2793 0.000976562 m 1
 93.209 0.000976562 l 1
 188.279 680.151 l 1
 192.35 680.151 l 1
 97.2793 0.000976562 l 1
EndSplineSet
Substitution2: "'c2sc' Capitals to Small Capitals lookup 23 subtable" iacute.sc
Substitution2: "'aalt' Access All Alternates lookup 0 subtable" iacute.sc
Position2: "'cpsp' Capital Spacing lookup 0 subtable" dx=5 dy=0 dh=10 dv=0
EndChar

StartChar: Icircumflex
Encoding: 206 206 47
Width: 263
GlyphClass: 2
Flags: MW
HStem: 0 21G<93.209 97.2793 93.209 93.209> 660.14 20G
VStem: 93.21 225.86
AnchorPoint: "Anchor-11" 0 0 basechar 0
AnchorPoint: "Anchor-10" 88 517 basechar 0
AnchorPoint: "Anchor-9" 190 680 basechar 0
AnchorPoint: "Anchor-8" 107 0 basechar 0
LayerCount: 2
Fore
SplineSet
218.35 847.71 m 1
 100.56 769.64 l 1
 97.71 771.859 l 1
 217.14 851.93 l 1
 220.14 851.93 l 1
 319.069 771.859 l 1
 316.069 769.64 l 1
 218.35 847.71 l 1
97.2793 -0 m 1
 93.209 -0 l 1
 188.279 680.14 l 1
 192.35 680.14 l 1
 97.2793 -0 l 1
EndSplineSet
Substitution2: "'c2sc' Capitals to Small Capitals lookup 23 subtable" icircumflex.sc
Substitution2: "'aalt' Access All Alternates lookup 0 subtable" icircumflex.sc
Position2: "'cpsp' Capital Spacing lookup 0 subtable" dx=5 dy=0 dh=10 dv=0
EndChar

StartChar: Eth
Encoding: 208 208 21
Width: 605
GlyphClass: 2
Flags: MW
HStem: 0 21G 351.08 329.06 660.15 20G
VStem: 42.5 497.71
AnchorPoint: "Anchor-11" 0 0 basechar 0
AnchorPoint: "Anchor-10" 0 0 basechar 0
AnchorPoint: "Anchor-9" 341 680 basechar 0
AnchorPoint: "Anchor-8" 0 0 basechar 0
LayerCount: 2
Fore
SplineSet
285.93 680.14 m 2xb0
 414.069 680.14 540.21 637.999 540.21 435.499 c 0
 540.21 232.219 453.99 -0.000976562 197.71 -0.000976562 c 2
 85.1396 -0.000976562 l 1
 134.21 351.069 l 1
 42.5 351.069 l 1
 42.7803 354.93 l 1
 134.75 354.93 l 1
 180.21 680.14 l 1
 285.93 680.14 l 2xb0
197.99 3.92969 m 2
 450.78 3.92969 536.121 234.43 536.121 435.569 c 0
 536.121 635.069 411.621 676.22 285.551 676.22 c 2
 183.98 676.22 l 1
 138.86 354.93 l 1
 336.2 354.93 l 1
 335.92 351.08 l 1
 138.32 351.08 l 1xd0
 89.5605 3.92969 l 1
 197.99 3.92969 l 2
EndSplineSet
Substitution2: "'c2sc' Capitals to Small Capitals lookup 23 subtable" eth.sc
Substitution2: "'aalt' Access All Alternates lookup 0 subtable" eth.sc
Position2: "'cpsp' Capital Spacing lookup 0 subtable" dx=5 dy=0 dh=10 dv=0
EndChar

StartChar: Ntilde
Encoding: 209 209 70
Width: 655
GlyphClass: 2
Flags: MW
HStem: -0.0200043 21G 660.13 20G
VStem: 93.21 491.21
AnchorPoint: "Anchor-11" 286 0 basechar 0
AnchorPoint: "Anchor-10" 0 0 basechar 0
AnchorPoint: "Anchor-9" 391 680 basechar 0
AnchorPoint: "Anchor-8" 0 0 basechar 0
LayerCount: 2
Fore
SplineSet
370.35 855.37 m 1
 366.18 856.41 361.909 857.001 357.499 856.991 c 0
 351.979 856.981 346.89 856.451 342.01 855.381 c 1
 346.97 856.511 352.08 857.07 357.5 857.07 c 0
 361.9 857.07 366.17 856.45 370.35 855.37 c 1
288.778 820.991 m 1
 309.759 840.571 324.418 851.521 341.998 855.381 c 1
 324.418 851.381 308.908 840.161 289.349 820.991 c 1
 288.778 820.991 l 1
370.338 855.37 m 1
 396.248 848.88 418.378 824.751 446.818 816.141 c 1
 418.288 824.66 395.908 848.76 370.338 855.37 c 1
535.418 851.562 m 1
 517.238 831.672 503.248 820.391 486.758 815.711 c 1
 503.067 820.461 517.228 831.821 534.848 851.562 c 1
 535.418 851.562 l 1
486.748 815.711 m 1
 480.578 813.911 474.088 813.061 466.988 813.061 c 0
 459.878 813.061 453.188 814.211 446.817 816.141 c 1
 453.138 814.251 459.748 813.131 466.768 813.131 c 0
 474.018 813.131 480.558 813.961 486.748 815.711 c 1
584.418 680.13 m 1
 489.347 -0.0214844 l 1
 483.847 -0.0214844 l 1
 191.637 675.129 l 1
 187.776 646.909 183.637 617.27 175.917 562.34 c 2
 97.207 -0.0205078 l 1
 93.207 -0.0205078 l 1
 188.277 680.13 l 1
 193.848 680.13 l 1
 486.058 6.12988 l 1
 491.848 47.2002 498.848 98.2705 505.348 142.91 c 2
 580.418 680.13 l 1
 584.418 680.13 l 1
EndSplineSet
Substitution2: "'c2sc' Capitals to Small Capitals lookup 23 subtable" ntilde.sc
Substitution2: "'aalt' Access All Alternates lookup 0 subtable" ntilde.sc
Position2: "'cpsp' Capital Spacing lookup 0 subtable" dx=5 dy=0 dh=10 dv=0
EndChar

StartChar: Ograve
Encoding: 210 210 76
Width: 687
GlyphClass: 2
Flags: MW
HStem: -9.08 21G 670.14 20G
VStem: 89.29 532.57
AnchorPoint: "Anchor-11" 0 0 basechar 0
AnchorPoint: "Anchor-10" 106 517 basechar 0
AnchorPoint: "Anchor-9" 400 680 basechar 0
AnchorPoint: "Anchor-8" 0 0 basechar 0
LayerCount: 2
Fore
SplineSet
498.14 773.64 m 1
 496.36 770.28 l 1
 338.21 839.78 l 1
 340.64 843.92 l 1
 498.14 773.64 l 1
403.141 690.141 m 0
 541.211 690.141 621.859 596.351 621.859 428.78 c 0
 621.859 260.21 551.22 -9.08008 306.22 -9.08008 c 0
 169 -9.08008 89.29 85.9199 89.29 251.57 c 0
 89.29 418.851 168.57 690.141 403.141 690.141 c 0
403.079 686.271 m 0
 170.869 686.271 93.4395 414.981 93.4395 253.201 c 0
 93.4395 88.8408 171.369 -5.15918 306.219 -5.15918 c 0
 549.148 -5.15918 617.719 265.341 617.719 428.841 c 0
 617.719 594.271 539.009 686.271 403.079 686.271 c 0
EndSplineSet
Substitution2: "'c2sc' Capitals to Small Capitals lookup 23 subtable" ograve.sc
Substitution2: "'aalt' Access All Alternates lookup 0 subtable" ograve.sc
Position2: "'cpsp' Capital Spacing lookup 0 subtable" dx=5 dy=0 dh=10 dv=0
EndChar

StartChar: Oacute
Encoding: 211 211 72
Width: 687
GlyphClass: 2
Flags: MW
HStem: -9.07001 21G 670.15 20G
VStem: 89.29 532.57
AnchorPoint: "Anchor-11" 0 0 basechar 0
AnchorPoint: "Anchor-10" 106 517 basechar 0
AnchorPoint: "Anchor-9" 400 680 basechar 0
AnchorPoint: "Anchor-8" 0 0 basechar 0
LayerCount: 2
Fore
SplineSet
507.07 839.78 m 1
 330.64 770.291 l 1
 329.29 773.641 l 1
 505.36 843.931 l 1
 507.07 839.78 l 1
403.14 690.151 m 0
 541.21 690.151 621.858 596.361 621.858 428.791 c 0
 621.858 260.221 551.219 -9.06934 306.219 -9.06934 c 0
 168.999 -9.06934 89.2891 85.9307 89.2891 251.581 c 0
 89.2891 418.861 168.569 690.151 403.14 690.151 c 0
403.078 686.281 m 0
 170.868 686.281 93.4385 414.992 93.4385 253.212 c 0
 93.4385 88.8516 171.368 -5.14844 306.218 -5.14844 c 0
 549.147 -5.14844 617.718 265.352 617.718 428.852 c 0
 617.718 594.281 539.008 686.281 403.078 686.281 c 0
EndSplineSet
Substitution2: "'c2sc' Capitals to Small Capitals lookup 23 subtable" oacute.sc
Substitution2: "'locl' Localized Forms in Latin lookup 7 subtable" Oacute.loclPLK
AlternateSubs2: "'aalt' Access All Alternates lookup 1 subtable" Oacute.loclPLK oacute.sc
Position2: "'cpsp' Capital Spacing lookup 0 subtable" dx=5 dy=0 dh=10 dv=0
EndChar

StartChar: Ocircumflex
Encoding: 212 212 74
Width: 687
GlyphClass: 2
Flags: MW
HStem: -9.07001 21G 670.14 20G
VStem: 89.28 532.58
AnchorPoint: "Anchor-11" 0 0 basechar 0
AnchorPoint: "Anchor-10" 106 517 basechar 0
AnchorPoint: "Anchor-9" 400 680 basechar 0
AnchorPoint: "Anchor-8" 0 0 basechar 0
LayerCount: 2
Fore
SplineSet
428.21 847.71 m 1
 310.42 769.64 l 1
 307.57 771.859 l 1
 427 851.93 l 1
 430 851.93 l 1
 528.93 771.859 l 1
 525.93 769.64 l 1
 428.21 847.71 l 1
403.14 690.14 m 0
 541.21 690.14 621.859 596.351 621.859 428.78 c 0
 621.859 260.21 551.209 -9.07031 306.209 -9.07031 c 0
 168.999 -9.07031 89.2793 85.9297 89.2793 251.569 c 0
 89.2793 418.859 168.569 690.14 403.14 690.14 c 0
403.068 686.28 m 0
 170.849 686.28 93.4277 414.99 93.4277 253.2 c 0
 93.4277 88.8506 171.357 -5.14941 306.218 -5.14941 c 0
 549.147 -5.14941 617.718 265.351 617.718 428.851 c 0
 617.718 594.28 538.998 686.28 403.068 686.28 c 0
EndSplineSet
Substitution2: "'c2sc' Capitals to Small Capitals lookup 23 subtable" ocircumflex.sc
Substitution2: "'aalt' Access All Alternates lookup 0 subtable" ocircumflex.sc
Position2: "'cpsp' Capital Spacing lookup 0 subtable" dx=5 dy=0 dh=10 dv=0
EndChar
StartChar: Otilde
Encoding: 213 213 207
Width: 687
GlyphClass: 2
Flags: MW
HStem: -9 21G<237.5 428.5> 670 20G<286 472> 686 127<455 471>
VStem: 89 533<169 512.5>
AnchorPoint: "Anchor-14" 0 0 basechar 0
AnchorPoint: "Anchor-13" 578 680 basechar 0
AnchorPoint: "Anchor-12" 425 859 basechar 0
AnchorPoint: "Anchor-11" 0 0 basechar 0
AnchorPoint: "Anchor-10" 306 0 basechar 0
LayerCount: 2
Back
Fore
SplineSet
318 837 m 1xd0
 334 851 349 857 368 857 c 1
 349 857 335 851 318 837 c 1xd0
478 813 m 2x30
 477 813 l 2
 433 813 405 857 368 857 c 1
 406 857 434 813 478 813 c 2x30
546 852 m 1
 527 831 513 819 495 815 c 1
 512 819 527 831 545 852 c 1
 546 852 l 1
318 837 m 1
 312 833 306 827 300 821 c 1
 299 821 l 1
 306 827 312 833 318 837 c 1
495 815 m 1
 490 814 484 813 478 813 c 1
 484 813 490 814 495 815 c 1
403 690 m 0xd0
 541 690 622 596 622 429 c 0
 622 260 551 -9 306 -9 c 0
 169 -9 89 86 89 252 c 0
 89 419 169 690 403 690 c 0xd0
306 -5 m 0
 549 -5 618 263 618 429 c 0
 618 594 539 686 403 686 c 0x30
 171 686 93 417 93 252 c 0
 93 88 171 -5 306 -5 c 0
EndSplineSet
Substitution2: "'c2sc' Capitals to Small Capitals lookup 27 subtable" otilde.sc
Substitution2: "'aalt' Access All Alternates lookup 0 subtable" otilde.sc
Position2: "'cpsp' Capital Spacing lookup 0 subtable" dx=5 dy=0 dh=10 dv=0
EndChar

StartChar: Odieresis
Encoding: 214 214 75
Width: 687
GlyphClass: 2
Flags: MW
HStem: -9.08 21G 670.14 20G 804.35 14.72
VStem: 335.99 14.78 486.63 14.78
AnchorPoint: "Anchor-11" 0 0 basechar 0
AnchorPoint: "Anchor-10" 106 517 basechar 0
AnchorPoint: "Anchor-9" 410 735 basechar 0
AnchorPoint: "Anchor-8" 0 0 basechar 0
LayerCount: 2
Fore
SplineSet
343.5 819.07 m 0
 348.43 819.07 350.921 815.42 350.771 811.57 c 0
 350.631 807.851 348.061 804.351 343.271 804.351 c 0
 338.421 804.351 335.851 808.001 335.99 811.851 c 0
 336.141 815.57 338.78 819.07 343.5 819.07 c 0
494.201 819.07 m 0
 499.062 819.07 501.561 815.42 501.41 811.57 c 0
 501.271 807.851 498.7 804.351 493.98 804.351 c 0
 489.051 804.351 486.48 808.001 486.631 811.851 c 0
 486.771 815.57 489.421 819.07 494.201 819.07 c 0
403.13 690.141 m 0
 541.2 690.141 621.849 596.351 621.849 428.78 c 0
 621.849 260.21 551.209 -9.08008 306.209 -9.08008 c 0
 168.989 -9.08008 89.2793 85.9199 89.2793 251.57 c 0
 89.2793 418.851 168.56 690.141 403.13 690.141 c 0
403.068 686.271 m 0
 170.858 686.271 93.4287 414.981 93.4287 253.201 c 0
 93.4287 88.8408 171.358 -5.15918 306.208 -5.15918 c 0
 549.138 -5.15918 617.708 265.341 617.708 428.841 c 0
 617.708 594.271 538.998 686.271 403.068 686.271 c 0
EndSplineSet
Substitution2: "'c2sc' Capitals to Small Capitals lookup 23 subtable" odieresis.sc
Substitution2: "'aalt' Access All Alternates lookup 0 subtable" odieresis.sc
Position2: "'cpsp' Capital Spacing lookup 0 subtable" dx=5 dy=0 dh=10 dv=0
EndChar

StartChar: multiply
Encoding: 215 215 1110
Width: 479
Flags: MW
HStem: 169.93 275.14
VStem: 92.29 307.14
LayerCount: 2
Fore
SplineSet
399.43 442.71 m 1
 249.569 307.93 l 1
 362.43 172.279 l 1
 358.859 169.93 l 1
 246.14 304.64 l 1
 95.5693 169.93 l 1
 92.2891 172.279 l 1
 242.999 307.93 l 1
 129.289 442.71 l 1
 132.859 445.07 l 1
 246.359 310.28 l 1
 396.14 445.07 l 1
 399.43 442.71 l 1
EndSplineSet
Substitution2: "'onum' Oldstyle Figures lookup 22 subtable" multiply.osf
Substitution2: "'tnum' Tabular Numbers lookup 21 subtable" multiply.tf
AlternateSubs2: "'aalt' Access All Alternates lookup 1 subtable" multiply.tf multiply.osf
EndChar

StartChar: Oslash
Encoding: 216 216 79
Width: 687
GlyphClass: 2
Flags: MW
HStem: -9.07001 21G 670.14 20G
VStem: 89.29 532.57
AnchorPoint: "Anchor-11" 0 0 basechar 0
AnchorPoint: "Anchor-10" 0 0 basechar 0
AnchorPoint: "Anchor-9" 403 681 basechar 0
AnchorPoint: "Anchor-8" 0 0 basechar 0
LayerCount: 2
Fore
SplineSet
499.2 671.29 m 1
 577.851 636.09 621.86 552.57 621.86 428.78 c 0
 621.86 260.21 551.21 -9.07031 306.21 -9.07031 c 0
 271.79 -9.07031 240.98 -3.08984 214.15 8.48047 c 1
 164.57 -103.789 l 1
 160.79 -102.219 l 1
 210.53 10.0908 l 1
 132.67 45.6104 89.29 129.37 89.29 251.57 c 0
 89.29 418.86 168.57 690.141 403.141 690.141 c 0
 437.69 690.141 468.641 684.271 495.631 672.841 c 1
 546.501 788.141 l 1
 549.431 786.57 l 1
 499.2 671.29 l 1
93.4297 253.21 m 0
 93.4297 131.93 135.869 48.96 212.289 13.7998 c 1
 494.169 669.24 l 1
 467.619 680.5 437.149 686.28 403.079 686.28 c 0
 170.859 686.28 93.4297 415 93.4297 253.21 c 0
306.22 -5.13965 m 0
 549.149 -5.13965 617.721 265.359 617.721 428.859 c 0
 617.721 551.06 574.771 633.189 497.54 667.77 c 1
 215.68 12.29 l 1
 242.05 0.790039 272.34 -5.13965 306.22 -5.13965 c 0
EndSplineSet
Substitution2: "'c2sc' Capitals to Small Capitals lookup 23 subtable" oslash.sc
Substitution2: "'aalt' Access All Alternates lookup 0 subtable" oslash.sc
Position2: "'cpsp' Capital Spacing lookup 0 subtable" dx=5 dy=0 dh=10 dv=0
EndChar

StartChar: Ugrave
Encoding: 217 217 106
Width: 634
GlyphClass: 2
Flags: MW
HStem: -9.08 21G 660.14 20G
VStem: 107.98 466.38
AnchorPoint: "Anchor-11" 0 0 basechar 0
AnchorPoint: "Anchor-10" 0 0 basechar 0
AnchorPoint: "Anchor-9" 381 680 basechar 0
AnchorPoint: "Anchor-8" 362 0 basechar 0
LayerCount: 2
Fore
SplineSet
479.21 773.64 m 1
 477.431 770.279 l 1
 319.28 839.779 l 1
 321.71 843.93 l 1
 479.21 773.64 l 1
507.431 206.069 m 1
 491.291 82.7891 424.569 -9.08008 280.43 -9.08008 c 0
 134.14 -9.08008 95.21 82.9199 111.36 206.21 c 1
 178.29 680.14 l 1
 182.36 680.14 l 1
 115.431 206.279 l 1
 99.4307 84.8496 137.641 -5.15039 280.431 -5.15039 c 0
 422.501 -5.15039 487.431 85.21 503.36 206.42 c 1
 570.29 680.14 l 1
 574.36 680.14 l 1
 507.431 206.069 l 1
EndSplineSet
Substitution2: "'c2sc' Capitals to Small Capitals lookup 23 subtable" ugrave.sc
Substitution2: "'aalt' Access All Alternates lookup 0 subtable" ugrave.sc
Position2: "'cpsp' Capital Spacing lookup 0 subtable" dx=5 dy=0 dh=10 dv=0
EndChar

StartChar: Uacute
Encoding: 218 218 102
Width: 634
GlyphClass: 2
Flags: MW
HStem: -9.07001 21G 660.14 20G
VStem: 107.98 466.38
AnchorPoint: "Anchor-11" 0 0 basechar 0
AnchorPoint: "Anchor-10" 0 0 basechar 0
AnchorPoint: "Anchor-9" 381 680 basechar 0
AnchorPoint: "Anchor-8" 362 0 basechar 0
LayerCount: 2
Fore
SplineSet
488.14 839.78 m 1
 311.709 770.291 l 1
 310.359 773.641 l 1
 486.43 843.931 l 1
 488.14 839.78 l 1
507.429 206.071 m 1
 491.289 82.7812 424.567 -9.06836 280.428 -9.06836 c 0
 134.138 -9.06836 95.208 82.9316 111.358 206.212 c 1
 178.288 680.142 l 1
 182.358 680.142 l 1
 115.429 206.292 l 1
 99.4287 84.8623 137.639 -5.1377 280.429 -5.1377 c 0
 422.499 -5.1377 487.429 85.2119 503.358 206.432 c 1
 570.288 680.142 l 1
 574.358 680.142 l 1
 507.429 206.071 l 1
EndSplineSet
Substitution2: "'c2sc' Capitals to Small Capitals lookup 23 subtable" uacute.sc
Substitution2: "'aalt' Access All Alternates lookup 0 subtable" uacute.sc
Position2: "'cpsp' Capital Spacing lookup 0 subtable" dx=5 dy=0 dh=10 dv=0
EndChar
StartChar: Ucircumflex
Encoding: 219 219 258
Width: 636
GlyphClass: 2
Flags: MW
HStem: -9 21G<208 353.5> 660 20G<179 183 183 183 571 575 575 575>
VStem: 108.67 466.33
AnchorPoint: "Anchor-14" 0 0 basechar 0
AnchorPoint: "Anchor-13" 455 702 basechar 0
AnchorPoint: "Anchor-12" 398 852 basechar 0
AnchorPoint: "Anchor-11" 363 0 basechar 0
AnchorPoint: "Anchor-10" 281 0 basechar 0
LayerCount: 2
Back
Fore
SplineSet
496 770 m 1
 398 848 l 1
 280 770 l 1
 277 772 l 1
 397 852 l 1
 400 852 l 1
 499 772 l 1
 496 770 l 1
575 680 m 1
 508 206 l 2
 492 83 426 -9 281 -9 c 0
 135 -9 96 83 112 206 c 2
 179 680 l 1
 183 680 l 1
 116 206 l 2
 100 85 139 -5 281 -5 c 0
 423 -5 488 85 504 206 c 2
 571 680 l 1
 575 680 l 1
EndSplineSet
Substitution2: "'c2sc' Capitals to Small Capitals lookup 27 subtable" ucircumflex.sc
Substitution2: "'aalt' Access All Alternates lookup 0 subtable" ucircumflex.sc
Position2: "'cpsp' Capital Spacing lookup 0 subtable" dx=5 dy=0 dh=10 dv=0
EndChar
StartChar: Udieresis
Encoding: 220 220 260
Width: 636
GlyphClass: 2
Flags: MW
HStem: -9 21G<208 353.5> 660 20G<179 183 183 183 571 575 575 575> 804 15<318.5 322.5 469 473.5> 812 7
VStem: 313 15<810 813.5 810 814>
AnchorPoint: "Anchor-14" 0 0 basechar 0
AnchorPoint: "Anchor-13" 585 680 basechar 0
AnchorPoint: "Anchor-12" 398 819 basechar 0
AnchorPoint: "Anchor-11" 363 0 basechar 0
AnchorPoint: "Anchor-10" 281 0 basechar 0
LayerCount: 2
Back
Fore
SplineSet
321 819 m 0xd8
 326 819 328 815 328 812 c 0
 328 808 325 804 320 804 c 0
 316 804 313 808 313 812 c 0
 313 816 316 819 321 819 c 0xd8
471 819 m 0xe8
 476 819 479 815 479 812 c 0
 478 808 476 804 471 804 c 0
 466 804 464 808 464 812 c 0
 464 816 467 819 471 819 c 0xe8
575 680 m 1
 508 206 l 2
 492 83 426 -9 281 -9 c 0
 135 -9 96 83 112 206 c 2
 179 680 l 1
 183 680 l 1
 116 206 l 2
 100 85 139 -5 281 -5 c 0
 423 -5 488 85 504 206 c 2
 571 680 l 1
 575 680 l 1
EndSplineSet
Substitution2: "'c2sc' Capitals to Small Capitals lookup 27 subtable" udieresis.sc
Substitution2: "'aalt' Access All Alternates lookup 0 subtable" udieresis.sc
Position2: "'cpsp' Capital Spacing lookup 0 subtable" dx=5 dy=0 dh=10 dv=0
EndChar
StartChar: Yacute
Encoding: 221 221 294
Width: 481
GlyphClass: 2
Flags: MW
HStem: 0 21G<203 207 203 203> 660 20G<84 88 88 88 510 515 515 515>
VStem: 84 431<680 680>
AnchorPoint: "Anchor-14" 0 0 basechar 0
AnchorPoint: "Anchor-13" 0 0 basechar 0
AnchorPoint: "Anchor-12" 320 844 basechar 0
AnchorPoint: "Anchor-11" 0 0 basechar 0
AnchorPoint: "Anchor-10" 205 0 basechar 0
LayerCount: 2
Back
Fore
SplineSet
405 844 m 1
 407 840 l 1
 230 770 l 1
 229 774 l 1
 405 844 l 1
515 680 m 1
 244 271 l 1
 207 0 l 1
 203 0 l 1
 240 271 l 1
 84 680 l 1
 88 680 l 1
 242 275 l 1
 510 680 l 1
 515 680 l 1
EndSplineSet
Substitution2: "'c2sc' Capitals to Small Capitals lookup 27 subtable" yacute.sc
Substitution2: "'aalt' Access All Alternates lookup 0 subtable" yacute.sc
Position2: "'cpsp' Capital Spacing lookup 0 subtable" dx=5 dy=0 dh=10 dv=0
EndChar

StartChar: Thorn
Encoding: 222 222 84
Width: 553
GlyphClass: 2
Flags: MW
HStem: -0.00999451 21G 0 157.21 546.49 133.65
VStem: 93.21 411.14
LayerCount: 2
Fore
SplineSet
293.85 550.43 m 2xb0
 434.63 550.43 504.35 505.2 504.35 383.13 c 0
 504.35 272.06 446.279 153.279 234.709 153.279 c 2
 118.709 153.279 l 1
 97.2793 -0.0107422 l 1
 93.209 -0.0107422 l 1
 188.279 680.14 l 1
 192.35 680.14 l 1
 174.22 550.43 l 1
 293.85 550.43 l 2xb0
235.06 157.2 m 2x70
 446.13 157.2 500.28 276.271 500.28 383.061 c 0
 500.28 502.2 432.351 546.49 292.78 546.49 c 2
 173.67 546.49 l 1
 119.25 157.2 l 1
 235.06 157.2 l 2x70
EndSplineSet
Substitution2: "'c2sc' Capitals to Small Capitals lookup 23 subtable" thorn.sc
Substitution2: "'aalt' Access All Alternates lookup 0 subtable" thorn.sc
Position2: "'cpsp' Capital Spacing lookup 0 subtable" dx=5 dy=0 dh=10 dv=0
EndChar

StartChar: germandbls
Encoding: 223 223 233
Width: 570
GlyphClass: 2
Flags: MW
HStem: -188.72 21G -10 21G 713.36 20G
VStem: -36.71 527.72 327 152.07
LayerCount: 2
Fore
SplineSet
330.93 411 m 0xf0
 330.939 330.5 491.938 310.572 491.009 151.002 c 0
 491.009 88.5723 449.358 -9.99805 331.578 -9.99805 c 0
 287.648 -9.99805 244.858 4.93164 224.719 17.8613 c 1
 226.568 21.3613 l 1
 248.139 7.43164 288.929 -6.13867 331.499 -6.13867 c 0
 447.069 -6.13867 486.999 90.6514 486.999 151.001 c 0
 486.999 308.931 326.999 328.221 326.999 411.001 c 0
 326.999 496.931 474.999 501.291 474.999 630.791 c 0
 474.999 687.361 433.139 729.571 358.858 729.571 c 0
 265.568 729.571 183.358 661.642 167.288 540.642 c 2
 91.2285 0.501953 l 2
 74.1182 -118.688 40.5186 -154.238 -35.0713 -191.358 c 1
 -36.7109 -188.719 l 1
 37.2891 -151.789 70.4287 -116.289 87.4287 1.64062 c 2
 163.358 541.07 l 2
 180.429 663.57 263.499 733.36 358.859 733.36 c 0
 434.359 733.36 479.069 690.21 479.069 630.64 c 0xe8
 479.069 499.859 330.93 494.64 330.93 411 c 0xf0
EndSplineSet
Substitution2: "'smcp' Lowercase to Small Capitals lookup 24 subtable" germandbls.sc
Substitution2: "'aalt' Access All Alternates lookup 0 subtable" germandbls.sc
EndChar

StartChar: agrave
Encoding: 224 224 139
Width: 540
GlyphClass: 2
Flags: MW
HStem: -9.08 21G -5.58 21G 507.21 20G
VStem: 398.87 43.2
AnchorPoint: "Anchor-11" 0 0 basechar 0
AnchorPoint: "Anchor-10" 0 0 basechar 0
AnchorPoint: "Anchor-9" 337 517 basechar 0
AnchorPoint: "Anchor-8" 452 -9 basechar 0
LayerCount: 2
Fore
SplineSet
446.5 663.57 m 1x70
 444.71 661.21 l 1
 288.64 743.35 l 1
 290.85 747.5 l 1
 446.5 663.57 l 1x70
336.07 527.21 m 0
 387.641 527.21 428.639 511 463.139 487.07 c 1
 407.139 120.141 l 2
 404.209 98.5703 402.279 80.9199 402.279 65.2803 c 0
 402.279 28.4199 414.279 5.28027 443.64 -5.58008 c 1
 442.069 -9.08008 l 1
 389.35 11.21 397.069 67.4199 403.14 115.99 c 1
 356.779 30.9902 291.43 -9.08008 227 -9.08008 c 0xb0
 128.78 -9.08008 73.3506 71.4902 73.3506 183.71 c 0
 73.3506 326.42 138.641 527.21 336.07 527.21 c 0
336.139 523.5 m 0
 141.139 523.5 77.4189 324.499 77.4189 183.779 c 0
 77.4189 73.5693 130.989 -5.2207 227.06 -5.2207 c 0
 291.489 -5.2207 356.64 35.9297 403.569 122.359 c 1
 459.069 485.14 l 1
 425.279 508.71 385.209 523.5 336.139 523.5 c 0
EndSplineSet
Substitution2: "'smcp' Lowercase to Small Capitals lookup 24 subtable" agrave.sc
Substitution2: "'aalt' Access All Alternates lookup 0 subtable" agrave.sc
EndChar

StartChar: aacute
Encoding: 225 225 135
Width: 540
GlyphClass: 2
Flags: MW
HStem: -9.07001 21G -5.57001 21G 507.22 20G
VStem: 398.87 43.2
AnchorPoint: "Anchor-11" 0 0 basechar 0
AnchorPoint: "Anchor-10" 0 0 basechar 0
AnchorPoint: "Anchor-9" 337 517 basechar 0
AnchorPoint: "Anchor-8" 452 -9 basechar 0
LayerCount: 2
Fore
SplineSet
448.07 743.35 m 1x70
 268.001 661.21 l 1
 267.431 664.57 l 1
 446.431 747.5 l 1
 448.07 743.35 l 1x70
336.071 527.21 m 0
 387.642 527.21 428.64 510.999 463.14 487.069 c 1
 407.14 120.14 l 2
 404.21 98.5693 402.28 80.9297 402.28 65.2793 c 0
 402.28 28.4297 414.28 5.2793 443.641 -5.57031 c 1
 442.07 -9.07031 l 1
 389.351 11.21 397.07 67.4297 403.141 116 c 1
 356.78 31 291.431 -9.07031 227.001 -9.07031 c 0xb0
 128.781 -9.07031 73.3516 71.5 73.3516 183.71 c 0
 73.3516 326.43 138.642 527.21 336.071 527.21 c 0
336.14 523.499 m 0
 141.14 523.499 77.4199 324.499 77.4199 183.789 c 0
 77.4199 73.5693 130.99 -5.21094 227.061 -5.21094 c 0
 291.49 -5.21094 356.641 35.9287 403.57 122.358 c 1
 459.07 485.148 l 1
 425.28 508.719 385.21 523.499 336.14 523.499 c 0
EndSplineSet
Substitution2: "'smcp' Lowercase to Small Capitals lookup 24 subtable" aacute.sc
Substitution2: "'aalt' Access All Alternates lookup 0 subtable" aacute.sc
EndChar

StartChar: acircumflex
Encoding: 226 226 137
Width: 540
GlyphClass: 2
Flags: MW
HStem: -9.07001 21G -5.57001 21G 507.22 20G
VStem: 398.87 43.2
AnchorPoint: "Anchor-11" 0 0 basechar 0
AnchorPoint: "Anchor-10" 0 0 basechar 0
AnchorPoint: "Anchor-9" 337 517 basechar 0
AnchorPoint: "Anchor-8" 452 -9 basechar 0
LayerCount: 2
Fore
SplineSet
249.07 661.57 m 1x70
 371.359 746.71 l 1
 374.359 746.71 l 1
 470.43 661.57 l 1
 467.5 659.351 l 1
 372.57 742.501 l 1
 252 659.351 l 1
 249.07 661.57 l 1x70
336.069 527.21 m 0
 387.64 527.21 428.648 510.999 463.148 487.069 c 1
 407.148 120.14 l 2
 404.219 98.5693 402.289 80.9297 402.289 65.2793 c 0
 402.289 28.4297 414.289 5.2793 443.639 -5.57031 c 1
 442.068 -9.07031 l 1
 389.358 11.21 397.068 67.4297 403.139 116 c 1
 356.789 31 291.429 -9.07031 226.999 -9.07031 c 0xb0
 128.789 -9.07031 73.3594 71.5 73.3594 183.71 c 0
 73.3594 326.43 138.64 527.21 336.069 527.21 c 0
336.148 523.499 m 0
 141.148 523.499 77.4297 324.499 77.4297 183.789 c 0
 77.4297 73.5693 131 -5.21094 227.07 -5.21094 c 0
 291.5 -5.21094 356.64 35.9287 403.569 122.358 c 1
 459.069 485.148 l 1
 425.289 508.719 385.219 523.499 336.148 523.499 c 0
EndSplineSet
Substitution2: "'smcp' Lowercase to Small Capitals lookup 24 subtable" acircumflex.sc
Substitution2: "'aalt' Access All Alternates lookup 0 subtable" acircumflex.sc
EndChar
StartChar: atilde
Encoding: 227 227 366
Width: 540
GlyphClass: 2
Flags: MW
HStem: -9 21G<178 259 442 442> -6 21G<444 444> 507 20G<237.5 362> 524 163<238.5 395.5> 667 20G<395 395.5 430 430.5> 711 20G<295.5 296 326.5 327>
VStem: 398.48 43.52
AnchorPoint: "Anchor-14" 0 0 basechar 0
AnchorPoint: "Anchor-13" 0 0 basechar 0
AnchorPoint: "Anchor-12" 365 733 basechar 0
AnchorPoint: "Anchor-11" 452 -9 basechar 0
AnchorPoint: "Anchor-10" 258 0 basechar 0
LayerCount: 2
Back
Fore
SplineSet
240 695 m 1x6e
 239 695 l 1
 266 720 283 731 308 731 c 1
 284 731 265 720 240 695 c 1x6e
417 687 m 1
 373 687 345 731 308 731 c 1
 346 731 374 687 417 687 c 1
485 726 m 1
 486 726 l 1
 461 698 444 687 417 687 c 1
 443 687 461 698 485 726 c 1
463 487 m 1
 407 120 l 2
 404 99 402 81 402 65 c 0
 402 28 414 5 444 -6 c 1
 442 -9 l 1
 389 11 397 67 402 114 c 1
 357 31 291 -9 227 -9 c 0x96
 129 -9 73 72 73 184 c 0
 73 326 139 527 336 527 c 0
 388 527 429 511 463 487 c 1
227 -5 m 0
 291 -5 357 36 404 122 c 1
 459 485 l 1
 425 509 385 524 336 524 c 0
 141 524 77 325 77 184 c 0
 77 74 131 -5 227 -5 c 0
EndSplineSet
Substitution2: "'smcp' Lowercase to Small Capitals lookup 28 subtable" atilde.sc
Substitution2: "'aalt' Access All Alternates lookup 0 subtable" atilde.sc
EndChar
StartChar: aring
Encoding: 229 229 363
Width: 540
GlyphClass: 2
Flags: MW
HStem: -9 21G<178 259 442 442> -6 21G<444 444> 507 20G<237.5 362> 524 134<336.5 360.5> 654 130<353 376>
VStem: 299 129 398.48 43.52
AnchorPoint: "Anchor-14" 0 0 basechar 0
AnchorPoint: "Anchor-13" 0 0 basechar 0
AnchorPoint: "Anchor-12" 376 784 basechar 0
AnchorPoint: "Anchor-11" 452 -9 basechar 0
AnchorPoint: "Anchor-10" 258 0 basechar 0
LayerCount: 2
Back
Fore
SplineSet
373 784 m 0x6c
 414 784 433 758 428 720 c 0
 424 681 396 654 356 654 c 0
 314 654 294 680 299 718 c 0
 304 757 333 784 373 784 c 0x6c
373 780 m 0
 334 780 308 755 303 718 c 0
 298 681 317 658 356 658 c 0
 394 658 421 684 425 720 c 0x54
 429 757 412 780 373 780 c 0
336 527 m 0xaa
 388 527 429 511 463 487 c 1
 407 120 l 2
 404 99 402 81 402 65 c 0
 402 28 414 5 444 -6 c 1
 442 -9 l 1
 389 11 397 67 402 114 c 1
 357 31 291 -9 227 -9 c 0
 129 -9 73 72 73 184 c 0
 73 326 139 527 336 527 c 0xaa
336 524 m 0x52
 141 524 77 325 77 184 c 0
 77 74 131 -5 227 -5 c 0
 291 -5 357 36 404 122 c 1
 459 485 l 1
 425 509 385 524 336 524 c 0x52
EndSplineSet
Substitution2: "'smcp' Lowercase to Small Capitals lookup 28 subtable" aring.sc
Substitution2: "'aalt' Access All Alternates lookup 0 subtable" aring.sc
EndChar

StartChar: ae
Encoding: 230 230 144
Width: 850
GlyphClass: 2
Flags: MW
HStem: -9.08 21G 217.66 77.69 291.64 235.57 507.21 20G
VStem: 396.1 8.60001
AnchorPoint: "Anchor-11" 511 0 basechar 0
AnchorPoint: "Anchor-10" 0 0 basechar 0
AnchorPoint: "Anchor-9" 464 517 basechar 0
AnchorPoint: "Anchor-8" 618 9 basechar 0
LayerCount: 2
Fore
SplineSet
300.78 527.21 m 0xd8
 370.83 527.21 437.229 483.562 439.8 384.212 c 1
 453.45 412.852 506.32 527.212 647.09 527.212 c 0
 723.09 527.212 787.66 487.562 787.66 413.632 c 0
 787.66 304.722 668.94 230.722 401.32 217.662 c 1
 395.73 127.353 423.301 -5.21777 561.511 -5.21777 c 0
 626.301 -5.21777 670.081 15.7119 721.941 53.4922 c 1
 724.012 50.0625 l 1
 672.012 11.9922 626.582 -9.07812 561.512 -9.07812 c 0
 477.562 -9.07812 424.151 38.2822 404.701 121.612 c 1
 336.721 30.9023 278.07 -9.07812 193.29 -9.07812 c 0
 106.08 -9.07812 61.3604 44.9219 61.3604 119.352 c 0
 61.3604 213.852 124.15 295.352 285.721 295.352 c 2
 408.9 295.352 l 1
 417.04 328.781 423.86 349.491 436.36 378.211 c 1
 435.221 479.921 370.721 523.421 300.791 523.421 c 0
 254.721 523.421 207.721 512.351 149.221 489.57 c 1
 148.57 493.21 l 1
 206.36 516.07 254.431 527.21 300.78 527.21 c 0xd8
647.09 523.422 m 0
 451.84 523.422 408.85 305.451 401.449 221.381 c 1
 668.52 234.491 783.59 308.131 783.59 413.571 c 0
 783.59 485.352 721.229 523.422 647.09 523.422 c 0
286.02 291.641 m 2xa8
 126.31 291.641 65.4385 211.7 65.4385 119.351 c 0
 65.4385 46.8506 108.589 -5.21973 193.299 -5.21973 c 0
 279.969 -5.21973 336.519 37.9199 403.299 125.64 c 1
 393.369 170.42 392.52 219.57 407.939 291.641 c 1
 286.02 291.641 l 2xa8
EndSplineSet
Substitution2: "'smcp' Lowercase to Small Capitals lookup 24 subtable" ae.sc
Substitution2: "'aalt' Access All Alternates lookup 0 subtable" ae.sc
EndChar

StartChar: ccedilla
Encoding: 231 231 150
Width: 468
GlyphClass: 2
Flags: MW
HStem: -203.93 120.85 -187.72 21G -85.58 80.36 -9.07001 21G -9.00999 21G 507.21 20G<253.89 345.64>
VStem: 74.94 366.84
AnchorPoint: "Anchor-11" 249 -1 basechar 0
AnchorPoint: "Anchor-10" 0 0 basechar 0
AnchorPoint: "Anchor-9" 306 517 basechar 0
AnchorPoint: "Anchor-8" 0 0 basechar 0
LayerCount: 2
Fore
SplineSet
319.07 527.21 m 0x4e
 372.21 527.21 410.499 510.282 441.779 477.212 c 1
 438.569 474.852 l 1
 407.779 507.502 369.999 523.432 319.139 523.432 c 0
 192.068 523.432 104.429 416.502 83.0684 251.852 c 0
 60.7881 87.2812 131.068 -5.21875 243.358 -5.21875 c 0x66
 301.929 -5.21875 343.999 15.6416 382.929 46.4219 c 1
 384.999 43.9219 l 1
 346.709 12.7822 304.139 -9.07812 243.499 -9.07812 c 0
 242.859 -9.07812 242.229 -9.06836 241.6 -9.06836 c 2
 227.21 -83.0781 l 1
 279.57 -84.2881 310.28 -98.6484 310.28 -136.788 c 0
 310.28 -171.858 284.431 -203.929 231.641 -203.929 c 0x96
 202.36 -203.929 186 -197.719 170.93 -187.719 c 1
 172.93 -184.219 l 1
 187.72 -194.999 204.79 -200.149 231.64 -200.149 c 0
 285.069 -200.149 306.069 -166.43 306.14 -137.08 c 0
 306.21 -102.36 279.64 -86.5801 223.21 -85.5801 c 1x66
 238.18 -9.00977 l 1
 126.359 -6.16016 57.0596 86.9502 79 251.851 c 0
 101.28 419.28 188.71 527.21 319.07 527.21 c 0x4e
EndSplineSet
Substitution2: "'smcp' Lowercase to Small Capitals lookup 24 subtable" ccedilla.sc
Substitution2: "'aalt' Access All Alternates lookup 0 subtable" ccedilla.sc
EndChar

StartChar: egrave
Encoding: 232 232 164
Width: 528
GlyphClass: 2
Flags: MW
HStem: -9.08 21G 507.21 20G
VStem: 74.28 391.36
AnchorPoint: "Anchor-11" 230 0 basechar 0
AnchorPoint: "Anchor-10" 0 0 basechar 0
AnchorPoint: "Anchor-9" 308 517 basechar 0
AnchorPoint: "Anchor-8" 344 10 basechar 0
LayerCount: 2
Fore
SplineSet
416.21 661.21 m 1
 260.14 743.35 l 1
 262.35 747.5 l 1
 418 663.57 l 1
 416.21 661.21 l 1
465.64 413.71 m 0
 465.64 304.83 347.129 230.893 79.2686 217.702 c 1
 78.6484 208.262 78.3486 199.182 78.3486 190.562 c 0
 78.3486 62.7715 139.349 -5.22852 239.499 -5.22852 c 0
 304.279 -5.22852 348.069 15.7012 399.919 53.4912 c 1
 401.989 50.0615 l 1
 349.989 11.9912 304.56 -9.0791 239.489 -9.0791 c 0
 136.709 -9.0791 74.2793 61.0605 74.2793 190.49 c 0
 74.2793 312.42 133.779 527.21 324.709 527.21 c 0
 401.069 527.21 465.64 487.56 465.64 413.71 c 0
324.709 523.422 m 0
 152.139 523.422 88.6387 344.232 79.5283 221.423 c 1
 346.769 234.692 461.559 308.252 461.559 413.632 c 0
 461.559 485.352 399.209 523.422 324.709 523.422 c 0
EndSplineSet
Substitution2: "'smcp' Lowercase to Small Capitals lookup 24 subtable" egrave.sc
Substitution2: "'aalt' Access All Alternates lookup 0 subtable" egrave.sc
EndChar

StartChar: eacute
Encoding: 233 233 158
Width: 528
GlyphClass: 2
Flags: MW
HStem: -9.07001 21G 507.22 20G
VStem: 74.28 391.36
AnchorPoint: "Anchor-11" 230 0 basechar 0
AnchorPoint: "Anchor-10" 0 0 basechar 0
AnchorPoint: "Anchor-9" 308 517 basechar 0
AnchorPoint: "Anchor-8" 344 10 basechar 0
LayerCount: 2
Fore
SplineSet
239.5 661.21 m 1
 238.931 664.57 l 1
 417.931 747.5 l 1
 419.57 743.36 l 1
 239.5 661.21 l 1
465.641 413.721 m 0
 465.641 304.841 347.129 230.903 79.2793 217.713 c 1
 78.6592 208.272 78.3594 199.192 78.3594 190.572 c 0
 78.3594 62.7822 139.359 -5.21777 239.499 -5.21777 c 0
 304.289 -5.21777 348.069 15.7119 399.93 53.502 c 1
 402 50.0723 l 1
 350 12.002 304.57 -9.06836 239.5 -9.06836 c 0
 136.71 -9.06836 74.2803 61.0713 74.2803 190.501 c 0
 74.2803 312.431 133.78 527.221 324.71 527.221 c 0
 401.07 527.221 465.641 487.57 465.641 413.721 c 0
324.709 523.433 m 0
 152.129 523.433 88.6494 344.243 79.5293 221.434 c 1
 346.77 234.703 461.569 308.263 461.569 413.643 c 0
 461.569 485.362 399.209 523.433 324.709 523.433 c 0
EndSplineSet
Substitution2: "'smcp' Lowercase to Small Capitals lookup 24 subtable" eacute.sc
Substitution2: "'aalt' Access All Alternates lookup 0 subtable" eacute.sc
EndChar

StartChar: ecircumflex
Encoding: 234 234 161
Width: 528
GlyphClass: 2
Flags: MW
HStem: -9.08 21G 507.21 20G
VStem: 74.28 391.36
AnchorPoint: "Anchor-11" 230 0 basechar 0
AnchorPoint: "Anchor-10" 0 0 basechar 0
AnchorPoint: "Anchor-9" 308 517 basechar 0
AnchorPoint: "Anchor-8" 344 10 basechar 0
LayerCount: 2
Fore
SplineSet
223.5 659.35 m 1
 220.569 661.569 l 1
 342.859 746.709 l 1
 345.859 746.709 l 1
 441.93 661.569 l 1
 439 659.35 l 1
 344.07 742.5 l 1
 223.5 659.35 l 1
465.64 413.709 m 0
 465.64 304.829 347.128 230.9 79.2783 217.71 c 1
 78.6582 208.27 78.3584 199.18 78.3584 190.56 c 0
 78.3584 62.7793 139.358 -5.2207 239.498 -5.2207 c 0
 304.288 -5.2207 348.068 15.709 399.929 53.4893 c 1
 401.999 50.0596 l 1
 349.999 11.9893 304.569 -9.08105 239.499 -9.08105 c 0
 136.709 -9.08105 74.2793 61.0693 74.2793 190.499 c 0
 74.2793 312.429 133.779 527.209 324.709 527.209 c 0
 401.069 527.209 465.64 487.569 465.64 413.709 c 0
324.708 523.42 m 0
 152.128 523.42 88.6484 344.24 79.5283 221.42 c 1
 346.769 234.689 461.568 308.26 461.568 413.64 c 0
 461.568 485.35 399.208 523.42 324.708 523.42 c 0
EndSplineSet
Substitution2: "'smcp' Lowercase to Small Capitals lookup 24 subtable" ecircumflex.sc
Substitution2: "'aalt' Access All Alternates lookup 0 subtable" ecircumflex.sc
EndChar
StartChar: igrave
Encoding: 236 236 488
Width: 253
GlyphClass: 2
Flags: MW
HStem: 0 21G<88 92 88 88> 497 20G<160 164 164 164>
VStem: 88 190
AnchorPoint: "Anchor-14" 0 0 basechar 0
AnchorPoint: "Anchor-13" 0 0 basechar 0
AnchorPoint: "Anchor-12" 201 748 basechar 0
AnchorPoint: "Anchor-11" 102 0 basechar 0
AnchorPoint: "Anchor-10" 90 0 basechar 0
LayerCount: 2
Back
Fore
SplineSet
122 748 m 1
 278 664 l 1
 276 661 l 1
 120 743 l 1
 122 748 l 1
164 517 m 1
 92 0 l 1
 88 0 l 1
 160 517 l 1
 164 517 l 1
EndSplineSet
Substitution2: "'smcp' Lowercase to Small Capitals lookup 28 subtable" igrave.sc
Substitution2: "'aalt' Access All Alternates lookup 0 subtable" igrave.sc
EndChar

StartChar: iacute
Encoding: 237 237 178
Width: 253
GlyphClass: 2
Flags: MW
HStem: 0 21G<88.2109 92.2109 88.2109 88.2109> 497.21 20G
VStem: 88.21 185.5
AnchorPoint: "Anchor-11" 0 0 basechar 0
AnchorPoint: "Anchor-10" 0 0 basechar 0
AnchorPoint: "Anchor-9" 162 517 basechar 0
AnchorPoint: "Anchor-8" 102 0 basechar 0
LayerCount: 2
Fore
SplineSet
273.71 743.35 m 1
 93.6406 661.21 l 1
 93.0703 664.57 l 1
 272.07 747.5 l 1
 273.71 743.35 l 1
92.2109 -0 m 1
 88.2109 -0 l 1
 160.361 517.21 l 1
 164.361 517.21 l 1
 92.2109 -0 l 1
EndSplineSet
Substitution2: "'smcp' Lowercase to Small Capitals lookup 24 subtable" iacute.sc
Substitution2: "'aalt' Access All Alternates lookup 0 subtable" iacute.sc
EndChar
StartChar: icircumflex
Encoding: 238 238 482
Width: 253
GlyphClass: 2
Flags: MW
HStem: 0 21G<88 92 88 88> 497 20G<160 164 164 164>
VStem: 71 221<662 662>
AnchorPoint: "Anchor-14" 0 0 basechar 0
AnchorPoint: "Anchor-13" 0 0 basechar 0
AnchorPoint: "Anchor-12" 195 747 basechar 0
AnchorPoint: "Anchor-11" 102 0 basechar 0
AnchorPoint: "Anchor-10" 90 0 basechar 0
LayerCount: 2
Back
Fore
SplineSet
74 659 m 1
 71 662 l 1
 193 747 l 1
 196 747 l 1
 292 662 l 1
 290 659 l 1
 195 743 l 1
 74 659 l 1
164 517 m 1
 92 0 l 1
 88 0 l 1
 160 517 l 1
 164 517 l 1
EndSplineSet
Substitution2: "'smcp' Lowercase to Small Capitals lookup 28 subtable" icircumflex.sc
Substitution2: "'aalt' Access All Alternates lookup 0 subtable" icircumflex.sc
EndChar
StartChar: idieresis
Encoding: 239 239 484
Width: 253
GlyphClass: 2
Flags: MW
HStem: 0 21G<88 92 88 88> 497 20G<160 164 164 164> 678 15<108.5 112.5 259 263.5> 686 7
VStem: 103 15<684 687.5 684 688>
AnchorPoint: "Anchor-14" 0 0 basechar 0
AnchorPoint: "Anchor-13" 0 0 basechar 0
AnchorPoint: "Anchor-12" 188 693 basechar 0
AnchorPoint: "Anchor-11" 102 0 basechar 0
AnchorPoint: "Anchor-10" 90 0 basechar 0
LayerCount: 2
Back
Fore
SplineSet
111 693 m 0xd8
 116 693 118 689 118 686 c 0
 118 682 115 678 110 678 c 0
 106 678 103 682 103 686 c 0
 103 690 106 693 111 693 c 0xd8
261 693 m 0xe8
 266 693 269 689 269 686 c 0
 268 682 266 678 261 678 c 0
 256 678 254 682 254 686 c 0
 254 690 257 693 261 693 c 0xe8
164 517 m 1
 92 0 l 1
 88 0 l 1
 160 517 l 1
 164 517 l 1
EndSplineSet
Substitution2: "'smcp' Lowercase to Small Capitals lookup 28 subtable" idieresis.sc
Substitution2: "'aalt' Access All Alternates lookup 0 subtable" idieresis.sc
EndChar
StartChar: eth
Encoding: 240 240 391
Width: 540
GlyphClass: 2
Flags: MW
HStem: -9 21G<176.5 288.5> 714 20G<218 218> 718 20G<425 425>
VStem: 462 8
AnchorPoint: "Anchor-14" 0 0 basechar 0
AnchorPoint: "Anchor-13" 0 0 basechar 0
AnchorPoint: "Anchor-12" 353 728 basechar 0
AnchorPoint: "Anchor-11" 0 0 basechar 0
AnchorPoint: "Anchor-10" 227 0 basechar 0
LayerCount: 2
Back
Fore
SplineSet
356 670 m 1xb0
 430 611 470 527 470 408 c 0
 470 380 468 351 464 320 c 0
 432 92 350 -9 227 -9 c 0
 126 -9 70 63 70 174 c 0
 70 281 129 457 287 457 c 0
 369 457 425 409 462 340 c 1
 473 455 462 583 352 667 c 1
 252 575 l 1
 249 577 l 1
 349 669 l 1
 312 698 264 719 216 731 c 1
 218 734 l 1
 266 723 313 702 353 672 c 1xd0
 425 738 l 1
 428 736 l 1
 356 670 l 1xb0
227 -5 m 0
 348 -5 419 94 452 276 c 0
 457 303 460 323 461 334 c 1
 424 405 370 454 287 454 c 0
 131 454 74 279 74 174 c 0
 74 65 128 -5 227 -5 c 0
EndSplineSet
Substitution2: "'smcp' Lowercase to Small Capitals lookup 28 subtable" eth.sc
Substitution2: "'aalt' Access All Alternates lookup 0 subtable" eth.sc
EndChar

StartChar: ntilde
Encoding: 241 241 207
Width: 580
GlyphClass: 2
Flags: MW
HStem: -0.0200043 21G -0.00999451 21G 497.2 20G 507.2 20G 523.49 163.64 667.13 20G 669.71 20G 709.37 20G 709.38 20G 711.07 20G
VStem: 88.21 391.36
AnchorPoint: "Anchor-11" 254 0 basechar 0
AnchorPoint: "Anchor-10" 0 0 basechar 0
AnchorPoint: "Anchor-9" 327 517 basechar 0
AnchorPoint: "Anchor-8" 0 0 basechar 0
LayerCount: 2
Fore
SplineSet
314.07 729.37 m 1x5260
 309.9 730.41 305.629 731.001 301.219 730.991 c 0
 295.699 730.981 290.6 730.451 285.729 729.381 c 1
 290.68 730.511 295.8 731.07 301.21 731.07 c 0
 305.61 731.07 309.88 730.45 314.07 729.37 c 1x5260
232.498 694.991 m 1x00a0
 253.479 714.571 268.138 725.521 285.728 729.381 c 1
 268.147 725.381 252.628 714.161 233.068 694.991 c 1
 232.498 694.991 l 1x00a0
314.067 729.37 m 1x0320
 339.978 722.88 362.107 698.751 390.548 690.141 c 1
 362.018 698.66 339.638 722.76 314.067 729.37 c 1x0320
479.138 725.562 m 1
 460.958 705.672 446.967 694.391 430.477 689.711 c 1
 446.797 694.461 460.957 705.821 478.567 725.562 c 1
 479.138 725.562 l 1
430.467 689.711 m 1x1420
 424.297 687.911 417.807 687.061 410.707 687.061 c 0
 403.597 687.061 396.906 688.211 390.536 690.141 c 1
 396.856 688.251 403.467 687.131 410.486 687.131 c 0
 417.736 687.131 424.276 687.961 430.467 689.711 c 1x1420
365.347 527.2 m 0
 458.347 527.2 489.916 467.271 476.776 368.051 c 2
 424.776 -0.0195312 l 1
 420.776 -0.0195312 l 1
 472.776 367.91 l 2
 485.776 465.561 455.776 523.49 365.126 523.49 c 0x8820
 279.276 523.49 208.276 467.63 138.057 327.63 c 1
 92.207 -0.00976562 l 1
 88.207 -0.00976562 l 1
 160.347 517.2 l 1
 163.997 517.2 l 1x6020
 139.497 337.271 l 1
 207.427 472.771 279.776 527.2 365.347 527.2 c 0
EndSplineSet
Substitution2: "'smcp' Lowercase to Small Capitals lookup 24 subtable" ntilde.sc
Substitution2: "'aalt' Access All Alternates lookup 0 subtable" ntilde.sc
EndChar

StartChar: ograve
Encoding: 242 242 213
Width: 559
GlyphClass: 2
Flags: MW
HStem: -9.08 21G 507.21 20G
VStem: 74.28 410.57
AnchorPoint: "Anchor-11" 0 0 basechar 0
AnchorPoint: "Anchor-10" 0 0 basechar 0
AnchorPoint: "Anchor-9" 316 517 basechar 0
AnchorPoint: "Anchor-8" 0 0 basechar 0
LayerCount: 2
Fore
SplineSet
425.93 663.57 m 1
 424.14 661.21 l 1
 268.069 743.35 l 1
 270.279 747.5 l 1
 425.93 663.57 l 1
317.92 527.21 m 0
 423.42 527.21 484.851 455.279 484.851 327.919 c 0
 484.851 197.849 426.7 -9.08105 242.13 -9.08105 c 0
 135.63 -9.08105 74.2803 65.0693 74.2803 192.35 c 0
 74.2803 325.42 135.42 527.21 317.92 527.21 c 0
317.921 523.419 m 0
 137.701 523.419 78.3496 323.14 78.3496 192.279 c 0
 78.3496 67.0693 137.92 -5.2207 242.13 -5.2207 c 0
 423.99 -5.2207 480.771 199.35 480.771 327.85 c 0
 480.771 453.069 421.271 523.419 317.921 523.419 c 0
EndSplineSet
Substitution2: "'smcp' Lowercase to Small Capitals lookup 24 subtable" ograve.sc
Substitution2: "'aalt' Access All Alternates lookup 0 subtable" ograve.sc
EndChar

StartChar: ocircumflex
Encoding: 244 244 211
Width: 559
GlyphClass: 2
Flags: MW
HStem: -9.07001 21G 507.21 20G
VStem: 74.29 410.57
AnchorPoint: "Anchor-11" 0 0 basechar 0
AnchorPoint: "Anchor-10" 0 0 basechar 0
AnchorPoint: "Anchor-9" 316 517 basechar 0
AnchorPoint: "Anchor-8" 0 0 basechar 0
LayerCount: 2
Fore
SplineSet
228.5 661.57 m 1
 350.789 746.71 l 1
 353.789 746.71 l 1
 449.859 661.57 l 1
 446.93 659.351 l 1
 352 742.501 l 1
 231.43 659.351 l 1
 228.5 661.57 l 1
317.929 527.21 m 0
 423.429 527.21 484.859 455.279 484.859 327.93 c 0
 484.859 197.859 426.709 -9.07031 242.139 -9.07031 c 0
 135.639 -9.07031 74.2891 65.0693 74.2891 192.359 c 0
 74.2891 325.43 135.429 527.21 317.929 527.21 c 0
317.93 523.429 m 0
 137.71 523.429 78.3584 323.138 78.3584 192.288 c 0
 78.3584 67.0684 137.929 -5.21191 242.139 -5.21191 c 0
 423.999 -5.21191 480.779 199.358 480.779 327.858 c 0
 480.779 453.068 421.279 523.429 317.93 523.429 c 0
EndSplineSet
Substitution2: "'smcp' Lowercase to Small Capitals lookup 24 subtable" ocircumflex.sc
Substitution2: "'aalt' Access All Alternates lookup 0 subtable" ocircumflex.sc
EndChar

StartChar: otilde
Encoding: 245 245 218
Width: 559
GlyphClass: 2
Flags: MW
HStem: -9.08 21G 507.2 20G 523.41 163.72 667.13 20G 669.71 20G 709.37 20G 709.38 20G 711.07 20G
VStem: 74.27 410.57
AnchorPoint: "Anchor-11" 0 0 basechar 0
AnchorPoint: "Anchor-10" 0 0 basechar 0
AnchorPoint: "Anchor-9" 316 517 basechar 0
AnchorPoint: "Anchor-8" 0 0 basechar 0
LayerCount: 2
Fore
SplineSet
303.64 729.37 m 1xc980
 299.47 730.41 295.188 731.001 290.778 730.991 c 0
 285.269 730.981 280.169 730.451 275.299 729.381 c 1
 280.249 730.511 285.369 731.07 290.779 731.07 c 0
 295.18 731.07 299.449 730.45 303.64 729.37 c 1xc980
222.058 694.991 m 1x0280
 243.027 714.571 257.697 725.521 275.287 729.381 c 1
 257.707 725.381 242.188 714.161 222.628 694.991 c 1
 222.058 694.991 l 1x0280
303.628 729.37 m 1x0c80
 329.538 722.88 351.668 698.751 380.108 690.141 c 1
 351.568 698.66 329.198 722.76 303.628 729.37 c 1x0c80
468.698 725.562 m 1
 450.519 705.672 436.527 694.391 420.037 689.711 c 1
 436.357 694.461 450.518 705.821 468.128 725.562 c 1
 468.698 725.562 l 1
420.027 689.711 m 1xd080
 413.857 687.911 407.367 687.061 400.268 687.061 c 0
 393.157 687.061 386.467 688.211 380.097 690.141 c 1
 386.417 688.251 393.027 687.131 400.047 687.131 c 0
 407.297 687.131 413.837 687.961 420.027 689.711 c 1xd080
317.907 527.2 m 0
 423.407 527.2 484.838 455.27 484.838 327.92 c 0
 484.838 197.85 426.688 -9.08008 242.117 -9.08008 c 0
 135.617 -9.08008 74.2676 65.0596 74.2676 192.35 c 0
 74.2676 325.42 135.407 527.2 317.907 527.2 c 0
242.118 -5.23047 m 0
 423.979 -5.23047 480.757 199.341 480.757 327.841 c 0
 480.757 453.061 421.257 523.41 317.907 523.41 c 0x2080
 137.688 523.41 78.3379 323.13 78.3379 192.27 c 0
 78.3379 67.0596 137.908 -5.23047 242.118 -5.23047 c 0
EndSplineSet
Substitution2: "'smcp' Lowercase to Small Capitals lookup 24 subtable" otilde.sc
Substitution2: "'aalt' Access All Alternates lookup 0 subtable" otilde.sc
EndChar

StartChar: odieresis
Encoding: 246 246 212
Width: 559
GlyphClass: 2
Flags: MW
HStem: -9.08 21G 507.21 20G 678.35 14.72
VStem: 247.13 14.78 397.77 14.78
AnchorPoint: "Anchor-11" 0 0 basechar 0
AnchorPoint: "Anchor-10" 0 0 basechar 0
AnchorPoint: "Anchor-9" 321 609 basechar 0
AnchorPoint: "Anchor-8" 0 0 basechar 0
LayerCount: 2
Fore
SplineSet
254.64 693.07 m 0
 259.569 693.07 262.061 689.42 261.91 685.57 c 0
 261.771 681.851 259.2 678.351 254.41 678.351 c 0
 249.561 678.351 246.99 682.001 247.13 685.851 c 0
 247.28 689.57 249.92 693.07 254.64 693.07 c 0
405.341 693.07 m 0
 410.201 693.07 412.7 689.42 412.55 685.57 c 0
 412.41 681.851 409.84 678.351 405.12 678.351 c 0
 400.19 678.351 397.62 682.001 397.771 685.851 c 0
 397.91 689.57 400.561 693.07 405.341 693.07 c 0
317.91 527.21 m 0
 423.41 527.21 484.841 455.279 484.841 327.919 c 0
 484.841 197.849 426.69 -9.08105 242.12 -9.08105 c 0
 135.62 -9.08105 74.2705 65.0693 74.2705 192.35 c 0
 74.2705 325.42 135.41 527.21 317.91 527.21 c 0
317.911 523.419 m 0
 137.691 523.419 78.3398 323.14 78.3398 192.279 c 0
 78.3398 67.0693 137.91 -5.2207 242.12 -5.2207 c 0
 423.98 -5.2207 480.761 199.35 480.761 327.85 c 0
 480.761 453.069 421.261 523.419 317.911 523.419 c 0
EndSplineSet
Substitution2: "'smcp' Lowercase to Small Capitals lookup 24 subtable" odieresis.sc
Substitution2: "'aalt' Access All Alternates lookup 0 subtable" odieresis.sc
EndChar

StartChar: divide
Encoding: 247 247 1091
Width: 479
Flags: MW
HStem: 123.43 17.21 521.28 17.22
VStem: 210.86 17.28 266.14 17.29
LayerCount: 2
Fore
SplineSet
274.93 538.5 m 0
 279.93 538.5 283.43 534.849 283.43 529.999 c 0
 283.43 524.999 279.71 521.279 274.64 521.279 c 0
 269.71 521.279 266.14 524.93 266.14 529.71 c 0
 266.14 534.78 269.93 538.5 274.93 538.5 c 0
95.3496 332.929 m 1
 405.499 332.929 l 1
 404.279 328.999 l 1
 94.1396 328.999 l 1
 95.3496 332.929 l 1
219.639 140.639 m 0
 224.639 140.639 228.139 136.999 228.139 132.139 c 0
 228.139 127.139 224.429 123.429 219.358 123.429 c 0
 214.429 123.429 210.858 127.068 210.858 131.858 c 0
 210.858 136.929 214.639 140.639 219.639 140.639 c 0
EndSplineSet
Substitution2: "'onum' Oldstyle Figures lookup 22 subtable" divide.osf
Substitution2: "'tnum' Tabular Numbers lookup 21 subtable" divide.tf
AlternateSubs2: "'aalt' Access All Alternates lookup 1 subtable" divide.tf divide.osf
EndChar

StartChar: oslash
Encoding: 248 248 216
Width: 559
GlyphClass: 2
Flags: MW
HStem: -9.07001 21G 507.21 20G
VStem: 74.28 410.57
AnchorPoint: "Anchor-11" 0 0 basechar 0
AnchorPoint: "Anchor-10" 0 0 basechar 0
AnchorPoint: "Anchor-9" 316 517 basechar 0
AnchorPoint: "Anchor-8" 0 0 basechar 0
LayerCount: 2
Fore
SplineSet
455.36 630.28 m 1
 399.169 509.71 l 1
 454.899 480.57 484.85 417.74 484.85 327.931 c 0
 484.85 197.86 426.71 -9.06934 242.14 -9.06934 c 0
 212.42 -9.06934 186.59 -3.20898 163.75 7.56055 c 1
 106.5 -112.64 l 1
 102.85 -112.069 l 1
 160.14 9.33105 l 1
 105.21 39.4707 74.2803 102.49 74.2803 192.36 c 0
 74.2803 325.431 135.431 527.211 317.931 527.211 c 0
 346.761 527.211 373.561 521.351 395.501 511.501 c 1
 451.641 630.851 l 1
 455.36 630.28 l 1
317.929 523.43 m 0
 137.709 523.43 78.3594 323.14 78.3594 192.279 c 0
 78.3594 104.189 107.909 41.8691 162.089 12.9893 c 1
 393.799 507.81 l 1
 372.099 517.6 346.488 523.43 317.929 523.43 c 0
165.499 11.29 m 1
 187.169 0.599609 212.729 -5.2207 242.149 -5.2207 c 0
 423.999 -5.2207 480.789 199.35 480.789 327.85 c 0
 480.789 416.81 451.299 477.21 397.199 506.09 c 1
 165.499 11.29 l 1
EndSplineSet
Substitution2: "'smcp' Lowercase to Small Capitals lookup 24 subtable" oslash.sc
Substitution2: "'aalt' Access All Alternates lookup 0 subtable" oslash.sc
EndChar

StartChar: ugrave
Encoding: 249 249 244
Width: 575
GlyphClass: 2
Flags: MW
HStem: -9.08 21G -0.00999451 21G 497.21 20G<482.921 486.921 486.921 486.921>
VStem: 101.77 385.15
AnchorPoint: "Anchor-11" 0 0 basechar 0
AnchorPoint: "Anchor-10" 0 0 basechar 0
AnchorPoint: "Anchor-9" 324 517 basechar 0
AnchorPoint: "Anchor-8" 425 0 basechar 0
LayerCount: 2
Fore
SplineSet
433.71 663.57 m 1x70
 431.921 661.21 l 1
 275.851 743.35 l 1
 278.07 747.5 l 1
 433.71 663.57 l 1x70
414.781 -0.00976562 m 1
 411.282 -0.0107422 l 1x70
 434.982 166.689 l 1
 385.532 52.8691 309.662 -9.08105 223.212 -9.08105 c 0xb0
 136.212 -9.08105 90.2119 46.0693 104.282 149.999 c 2
 155.353 517.209 l 1
 159.353 517.209 l 1
 108.282 149.999 l 2
 94.3525 48.709 138.702 -5.2207 223.422 -5.2207 c 0
 310.521 -5.2207 385.271 58.3594 435.321 174.34 c 1
 482.921 517.21 l 1
 486.921 517.21 l 1
 414.781 -0.00976562 l 1
EndSplineSet
Substitution2: "'smcp' Lowercase to Small Capitals lookup 24 subtable" ugrave.sc
Substitution2: "'aalt' Access All Alternates lookup 0 subtable" ugrave.sc
EndChar

StartChar: uacute
Encoding: 250 250 240
Width: 575
GlyphClass: 2
Flags: MW
HStem: -9.07001 21G 0 21G<411.28 414.781 411.28 411.28> 497.21 20G 497.22 20G
VStem: 101.77 385.15
AnchorPoint: "Anchor-11" 0 0 basechar 0
AnchorPoint: "Anchor-10" 0 0 basechar 0
AnchorPoint: "Anchor-9" 324 517 basechar 0
AnchorPoint: "Anchor-8" 425 0 basechar 0
LayerCount: 2
Fore
SplineSet
435.28 743.35 m 1x58
 255.211 661.21 l 1
 254.641 664.57 l 1
 433.641 747.5 l 1
 435.28 743.35 l 1x58
414.781 -0 m 1
 411.28 0 l 1x58
 434.98 166.69 l 1
 385.53 52.8701 309.66 -9.07031 223.21 -9.07031 c 0
 136.21 -9.07031 90.21 46.0693 104.28 149.999 c 2
 155.351 517.219 l 1
 159.351 517.219 l 1x98
 108.28 149.999 l 2
 94.3506 48.7188 138.711 -5.21094 223.421 -5.21094 c 0
 310.531 -5.21094 385.271 58.3594 435.331 174.35 c 1
 482.921 517.21 l 1
 486.921 517.21 l 1x68
 414.781 -0 l 1
EndSplineSet
Substitution2: "'smcp' Lowercase to Small Capitals lookup 24 subtable" uacute.sc
Substitution2: "'aalt' Access All Alternates lookup 0 subtable" uacute.sc
EndChar

StartChar: ucircumflex
Encoding: 251 251 242
Width: 575
GlyphClass: 2
Flags: MW
HStem: -9.07001 21G 0 21G<411.288 414.789 411.288 411.288> 497.21 20G 497.22 20G
VStem: 101.78 385.15
AnchorPoint: "Anchor-11" 0 0 basechar 0
AnchorPoint: "Anchor-10" 0 0 basechar 0
AnchorPoint: "Anchor-9" 324 517 basechar 0
AnchorPoint: "Anchor-8" 425 0 basechar 0
LayerCount: 2
Fore
SplineSet
236.29 661.57 m 1x58
 358.579 746.71 l 1
 361.579 746.71 l 1
 457.649 661.57 l 1
 454.72 659.351 l 1
 359.79 742.501 l 1
 239.22 659.351 l 1
 236.29 661.57 l 1x58
414.789 -0 m 1
 411.288 0 l 1x58
 434.988 166.69 l 1
 385.538 52.8701 309.668 -9.07031 223.218 -9.07031 c 0
 136.218 -9.07031 90.2178 46.0693 104.288 149.999 c 2
 155.358 517.219 l 1
 159.358 517.219 l 1x98
 108.288 149.999 l 2
 94.3584 48.7188 138.719 -5.21094 223.429 -5.21094 c 0
 310.539 -5.21094 385.279 58.3594 435.339 174.35 c 1
 482.929 517.21 l 1
 486.929 517.21 l 1x68
 414.789 -0 l 1
EndSplineSet
Substitution2: "'smcp' Lowercase to Small Capitals lookup 24 subtable" ucircumflex.sc
Substitution2: "'aalt' Access All Alternates lookup 0 subtable" ucircumflex.sc
EndChar

StartChar: udieresis
Encoding: 252 252 243
Width: 575
GlyphClass: 2
Flags: MW
HStem: -9.07001 21G 0 21G<411.281 414.78 411.281 411.281> 497.21 20G 497.22 20G 678.35 14.72
VStem: 254.92 14.78 405.56 14.78
AnchorPoint: "Anchor-11" 0 0 basechar 0
AnchorPoint: "Anchor-10" 0 0 basechar 0
AnchorPoint: "Anchor-9" 329 609 basechar 0
AnchorPoint: "Anchor-8" 425 0 basechar 0
LayerCount: 2
Fore
SplineSet
262.43 693.07 m 0x5e
 267.359 693.07 269.851 689.42 269.7 685.57 c 0
 269.561 681.851 266.99 678.351 262.2 678.351 c 0
 257.351 678.351 254.78 682.001 254.92 685.851 c 0
 255.07 689.57 257.71 693.07 262.43 693.07 c 0x5e
413.131 693.07 m 0
 417.991 693.07 420.49 689.42 420.34 685.57 c 0
 420.2 681.851 417.63 678.351 412.91 678.351 c 0
 407.98 678.351 405.41 682.001 405.561 685.851 c 0
 405.7 689.57 408.351 693.07 413.131 693.07 c 0
414.78 0 m 1
 411.281 0 l 1x5e
 434.981 166.69 l 1
 385.531 52.8701 309.661 -9.07031 223.211 -9.07031 c 0
 136.211 -9.07031 90.2109 46.0693 104.281 149.999 c 2
 155.352 517.219 l 1
 159.352 517.219 l 1x9e
 108.281 149.999 l 2
 94.3516 48.7188 138.701 -5.21094 223.421 -5.21094 c 0
 310.521 -5.21094 385.271 58.3594 435.32 174.35 c 1
 482.92 517.21 l 1
 486.92 517.21 l 1x6e
 414.78 0 l 1
EndSplineSet
Substitution2: "'smcp' Lowercase to Small Capitals lookup 24 subtable" udieresis.sc
Substitution2: "'aalt' Access All Alternates lookup 0 subtable" udieresis.sc
EndChar
StartChar: yacute
Encoding: 253 253 700
Width: 435
GlyphClass: 2
Flags: MW
HStem: -190 21G<-2 -2> 0 21G<185 188 185 185 192 192> 497 20G<65 70 70 70 438 442 442 442>
VStem: -2 444
AnchorPoint: "Anchor-14" 0 0 basechar 0
AnchorPoint: "Anchor-13" 0 0 basechar 0
AnchorPoint: "Anchor-12" 282 748 basechar 0
AnchorPoint: "Anchor-11" 0 0 basechar 0
AnchorPoint: "Anchor-10" 156 -188 basechar 0
LayerCount: 2
Back
Fore
SplineSet
368 748 m 1
 370 743 l 1
 190 661 l 1
 189 665 l 1
 368 748 l 1
442 517 m 1
 192 0 l 2
 136 -112 106 -159 -2 -190 c 1
 -2 -186 l 1
 104 -156 133 -111 188 0 c 1
 185 0 l 1
 65 517 l 1
 70 517 l 1
 188 3 l 1
 438 517 l 1
 442 517 l 1
EndSplineSet
Substitution2: "'smcp' Lowercase to Small Capitals lookup 28 subtable" yacute.sc
Substitution2: "'aalt' Access All Alternates lookup 0 subtable" yacute.sc
EndChar
StartChar: thorn
Encoding: 254 254 598
Width: 565
GlyphClass: 2
Flags: MW
HStem: -191 21G<61 61> -9 21G<218 335.5> 507 20G<300 389.5> 711 20G<194 194>
VStem: 61 427
LayerCount: 2
Back
Fore
SplineSet
341 527 m 0
 438 527 488 459 488 339 c 0
 488 207 424 -9 247 -9 c 0
 189 -9 149 1 95 25 c 1
 65 -189 l 1
 61 -191 l 1
 190 730 l 1
 194 731 l 1
 151 424 l 1
 201 483 259 527 341 527 c 0
247 -5 m 0
 422 -5 484 209 484 339 c 0
 484 457 435 523 341 523 c 0
 260 523 205 482 151 419 c 1
 96 29 l 1
 151 5 190 -5 247 -5 c 0
EndSplineSet
Substitution2: "'smcp' Lowercase to Small Capitals lookup 28 subtable" thorn.sc
Substitution2: "'aalt' Access All Alternates lookup 0 subtable" thorn.sc
EndChar
StartChar: Amacron
Encoding: 256 256 27
Width: 556
GlyphClass: 2
Flags: MW
HStem: 0 21G<-2 2 -2 -2 482 486 482 482> 660 20G<335 338 338 338>
VStem: -2 488<0 0>
AnchorPoint: "Anchor-14" 0 0 basechar 0
AnchorPoint: "Anchor-13" 0 0 basechar 0
AnchorPoint: "Anchor-12" 358 819 basechar 0
AnchorPoint: "Anchor-11" 496 0 basechar 0
AnchorPoint: "Anchor-10" 242 0 basechar 0
LayerCount: 2
Back
Fore
SplineSet
452 819 m 1
 452 815 l 1
 260 815 l 1
 260 819 l 1
 452 819 l 1
482 0 m 1
 436 212 l 1
 107 212 l 1
 2 0 l 1
 -2 0 l 1
 335 680 l 1
 338 680 l 1
 486 0 l 1
 482 0 l 1
109 216 m 1
 435 216 l 1
 336 675 l 1
 109 216 l 1
EndSplineSet
Substitution2: "'c2sc' Capitals to Small Capitals lookup 27 subtable" amacron.sc
Substitution2: "'aalt' Access All Alternates lookup 0 subtable" amacron.sc
Position2: "'cpsp' Capital Spacing lookup 0 subtable" dx=5 dy=0 dh=10 dv=0
EndChar

StartChar: amacron
Encoding: 257 257 140
Width: 540
GlyphClass: 2
Flags: MW
HStem: -9.07001 21G -5.57001 21G 507.22 20G 523.5 169
VStem: 398.87 43.2
AnchorPoint: "Anchor-11" 0 0 basechar 0
AnchorPoint: "Anchor-10" 0 0 basechar 0
AnchorPoint: "Anchor-9" 337 517 basechar 0
AnchorPoint: "Anchor-8" 452 -9 basechar 0
LayerCount: 2
Fore
SplineSet
264.71 688.57 m 1x58
 265.069 692.5 l 1
 456.779 692.5 l 1
 456.43 688.57 l 1
 264.71 688.57 l 1x58
336.069 527.21 m 0xa8
 387.64 527.21 428.638 510.999 463.138 487.069 c 1
 407.138 120.14 l 2
 404.208 98.5693 402.278 80.9297 402.278 65.2793 c 0
 402.278 28.4297 414.278 5.2793 443.639 -5.57031 c 1
 442.068 -9.07031 l 1
 389.349 11.21 397.068 67.4297 403.139 116 c 1
 356.778 31 291.429 -9.07031 226.999 -9.07031 c 0
 128.779 -9.07031 73.3496 71.5 73.3496 183.71 c 0
 73.3496 326.43 138.64 527.21 336.069 527.21 c 0xa8
336.138 523.499 m 0x58
 141.138 523.499 77.418 324.499 77.418 183.789 c 0
 77.418 73.5693 130.988 -5.21094 227.059 -5.21094 c 0
 291.488 -5.21094 356.639 35.9287 403.568 122.358 c 1
 459.068 485.148 l 1
 425.278 508.719 385.208 523.499 336.138 523.499 c 0x58
EndSplineSet
Substitution2: "'smcp' Lowercase to Small Capitals lookup 24 subtable" amacron.sc
Substitution2: "'aalt' Access All Alternates lookup 0 subtable" amacron.sc
EndChar
StartChar: Abreve
Encoding: 258 258 4
Width: 556
GlyphClass: 2
Flags: MW
HStem: 0 21G<-2 2 -2 -2 482 486 482 482> 660 20G<335 338 338 338>
VStem: -2 488<0 0>
AnchorPoint: "Anchor-14" 0 0 basechar 0
AnchorPoint: "Anchor-13" 0 0 basechar 0
AnchorPoint: "Anchor-12" 357 837 basechar 0
AnchorPoint: "Anchor-11" 496 0 basechar 0
AnchorPoint: "Anchor-10" 242 0 basechar 0
LayerCount: 2
Back
Fore
SplineSet
346 776 m 1
 293 776 267 806 260 836 c 1
 268 802 298 776 346 776 c 1
451 836 m 1
 436 806 402 776 348 776 c 1
 397 776 433 801 451 836 c 1
346 776 m 2
 347 776 l 1
 347 776 347 776 346 776 c 2
347 776 m 1
 348 776 l 2
 347 776 347 776 347 776 c 1
482 0 m 1
 436 212 l 1
 107 212 l 1
 2 0 l 1
 -2 0 l 1
 335 680 l 1
 338 680 l 1
 486 0 l 1
 482 0 l 1
109 216 m 1
 435 216 l 1
 336 675 l 1
 109 216 l 1
EndSplineSet
Substitution2: "'c2sc' Capitals to Small Capitals lookup 27 subtable" abreve.sc
Substitution2: "'aalt' Access All Alternates lookup 0 subtable" abreve.sc
Position2: "'cpsp' Capital Spacing lookup 0 subtable" dx=5 dy=0 dh=10 dv=0
EndChar
StartChar: abreve
Encoding: 259 259 337
Width: 540
GlyphClass: 2
Flags: MW
HStem: -9 21G<178 259 442 442> -6 21G<444 444> 507 20G<237.5 362> 524 146<331 360.5> 718 20G<272 272> 719 20G<459 459>
VStem: 398.48 43.52
AnchorPoint: "Anchor-14" 0 0 basechar 0
AnchorPoint: "Anchor-13" 0 0 basechar 0
AnchorPoint: "Anchor-12" 367 739 basechar 0
AnchorPoint: "Anchor-11" 452 -9 basechar 0
AnchorPoint: "Anchor-10" 258 0 basechar 0
LayerCount: 2
Back
Fore
SplineSet
355 666 m 0x66
 300 666 273 698 268 737 c 1
 272 738 l 1
 278 694 307 670 355 670 c 0x5a
 403 670 440 695 459 739 c 1
 463 737 l 1
 446 698 411 666 355 666 c 0x66
336 527 m 0
 388 527 429 511 463 487 c 1
 407 120 l 2
 404 99 402 81 402 65 c 0
 402 28 414 5 444 -6 c 1
 442 -9 l 1
 389 11 397 67 402 114 c 1
 357 31 291 -9 227 -9 c 0xa6
 129 -9 73 72 73 184 c 0
 73 326 139 527 336 527 c 0
336 524 m 0x56
 141 524 77 325 77 184 c 0
 77 74 131 -5 227 -5 c 0
 291 -5 357 36 404 122 c 1
 459 485 l 1
 425 509 385 524 336 524 c 0x56
EndSplineSet
Substitution2: "'smcp' Lowercase to Small Capitals lookup 28 subtable" abreve.sc
Substitution2: "'aalt' Access All Alternates lookup 0 subtable" abreve.sc
EndChar
StartChar: Aogonek
Encoding: 260 260 28
Width: 556
GlyphClass: 2
Flags: MW
HStem: -195 21G<378 408.5> 0 21G<-2 2 -2 -2 486 486> 660 20G<335 338 338 338>
VStem: -2 488<0 1>
AnchorPoint: "Anchor-14" 0 0 basechar 0
AnchorPoint: "Anchor-13" 0 0 basechar 0
AnchorPoint: "Anchor-12" 337 680 basechar 0
AnchorPoint: "Anchor-11" 496 0 basechar 0
AnchorPoint: "Anchor-10" 242 0 basechar 0
LayerCount: 2
Back
Fore
SplineSet
334 -131 m 0
 334 -172 360 -191 400 -191 c 0
 418 -191 431 -189 454 -183 c 1
 453 -187 l 1
 431 -193 418 -195 399 -195 c 0
 357 -195 330 -174 330 -132 c 0
 330 -63 410 -24 481 1 c 1
 436 212 l 1
 107 212 l 1
 2 0 l 1
 -2 0 l 1
 335 680 l 1
 338 680 l 1
 486 1 l 1
 486 0 l 1
 390 -34 334 -74 334 -131 c 0
109 216 m 1
 435 216 l 1
 336 675 l 1
 109 216 l 1
EndSplineSet
Substitution2: "'c2sc' Capitals to Small Capitals lookup 27 subtable" aogonek.sc
Substitution2: "'aalt' Access All Alternates lookup 0 subtable" aogonek.sc
Position2: "'cpsp' Capital Spacing lookup 0 subtable" dx=5 dy=0 dh=10 dv=0
EndChar
StartChar: aogonek
Encoding: 261 261 362
Width: 540
GlyphClass: 2
Flags: MW
HStem: -196 21G<409 409> -9 21G<178 259 442 442> -8 21G -6 21G<444 444> 507 20G<237.5 362>
VStem: 398.58 44.42
AnchorPoint: "Anchor-14" 0 0 basechar 0
AnchorPoint: "Anchor-13" 0 0 basechar 0
AnchorPoint: "Anchor-12" 336 517 basechar 0
AnchorPoint: "Anchor-11" 452 -9 basechar 0
AnchorPoint: "Anchor-10" 258 0 basechar 0
LayerCount: 2
Back
Fore
SplineSet
402 65 m 0x9c
 402 28 414 5 444 -6 c 1
 442 -9 l 1x9c
 346 -43 290 -83 290 -140 c 0
 290 -181 316 -200 356 -200 c 0
 374 -200 387 -198 410 -192 c 1
 409 -196 l 1
 387 -202 374 -204 355 -204 c 0
 313 -204 286 -183 286 -141 c 0
 286 -72 367 -33 439 -8 c 1xac
 390 14 397 68 402 114 c 1
 357 31 291 -9 227 -9 c 0xcc
 129 -9 73 72 73 184 c 0
 73 326 139 527 336 527 c 0
 388 527 429 511 463 487 c 1
 407 120 l 2
 404 99 402 81 402 65 c 0x9c
227 -5 m 0
 291 -5 357 36 404 122 c 1
 459 485 l 1
 425 509 385 524 336 524 c 0
 141 524 77 325 77 184 c 0
 77 74 131 -5 227 -5 c 0
EndSplineSet
Substitution2: "'smcp' Lowercase to Small Capitals lookup 28 subtable" aogonek.sc
Substitution2: "'aalt' Access All Alternates lookup 0 subtable" aogonek.sc
EndChar

StartChar: Cacute
Encoding: 262 262 15
Width: 531
GlyphClass: 2
Flags: MW
HStem: -9.07001 21G 670.15 20G
VStem: 90.21 457.72
AnchorPoint: "Anchor-11" 306 0 basechar 0
AnchorPoint: "Anchor-10" 0 0 basechar 0
AnchorPoint: "Anchor-9" 403 680 basechar 0
AnchorPoint: "Anchor-8" 0 0 basechar 0
LayerCount: 2
Fore
SplineSet
509.71 839.78 m 1
 333.279 770.291 l 1
 331.93 773.641 l 1
 508 843.931 l 1
 509.71 839.78 l 1
402.999 690.141 m 0
 476.999 690.141 517.209 664.361 547.929 633.012 c 1
 545.639 629.582 l 1
 512.929 661.932 476.999 686.222 403.139 686.222 c 0
 167.499 686.222 94.2793 424.071 94.2793 253.501 c 0
 94.2793 85.0713 176.279 -5.06836 305.069 -5.06836 c 0
 385.709 -5.06836 437.069 26.3613 473.709 53.8613 c 1
 475.929 50.291 l 1
 438.999 22.501 386.639 -9.06934 304.999 -9.06934 c 0
 172.929 -9.06934 90.209 83.001 90.209 253.431 c 0
 90.209 429.791 165.999 690.141 402.999 690.141 c 0
EndSplineSet
Substitution2: "'c2sc' Capitals to Small Capitals lookup 23 subtable" cacute.sc
Substitution2: "'locl' Localized Forms in Latin lookup 7 subtable" Cacute.loclPLK
AlternateSubs2: "'aalt' Access All Alternates lookup 1 subtable" Cacute.loclPLK cacute.sc
Position2: "'cpsp' Capital Spacing lookup 0 subtable" dx=5 dy=0 dh=10 dv=0
EndChar
StartChar: Ccircumflex
Encoding: 264 264 46
Width: 531
GlyphClass: 2
Flags: MW
HStem: -9 21G<239 346> 670 20G<284.5 440>
VStem: 90 458<168 633>
AnchorPoint: "Anchor-14" 0 0 basechar 0
AnchorPoint: "Anchor-13" 481 702 basechar 0
AnchorPoint: "Anchor-12" 424 852 basechar 0
AnchorPoint: "Anchor-11" 0 0 basechar 0
AnchorPoint: "Anchor-10" 306 0 basechar 0
LayerCount: 2
Back
Fore
SplineSet
522 770 m 1
 424 848 l 1
 306 770 l 1
 303 772 l 1
 423 852 l 1
 426 852 l 1
 525 772 l 1
 522 770 l 1
403 690 m 0
 477 690 517 664 548 633 c 1
 546 630 l 1
 513 662 477 686 403 686 c 0
 168 686 94 424 94 254 c 0
 94 85 176 -5 305 -5 c 0
 386 -5 437 26 474 54 c 1
 476 50 l 1
 439 23 387 -9 305 -9 c 0
 173 -9 90 83 90 253 c 0
 90 430 166 690 403 690 c 0
EndSplineSet
Substitution2: "'c2sc' Capitals to Small Capitals lookup 27 subtable" ccircumflex.sc
Substitution2: "'aalt' Access All Alternates lookup 0 subtable" ccircumflex.sc
Position2: "'cpsp' Capital Spacing lookup 0 subtable" dx=5 dy=0 dh=10 dv=0
EndChar

StartChar: ccircumflex
Encoding: 265 265 151
Width: 468
GlyphClass: 2
Flags: MW
HStem: -9.08 21G 507.21 20G
VStem: 74.94 366.85
AnchorPoint: "Anchor-11" 249 -1 basechar 0
AnchorPoint: "Anchor-10" 0 0 basechar 0
AnchorPoint: "Anchor-9" 306 517 basechar 0
AnchorPoint: "Anchor-8" 0 0 basechar 0
LayerCount: 2
Fore
SplineSet
218.71 661.57 m 1
 340.999 746.71 l 1
 343.999 746.71 l 1
 440.069 661.57 l 1
 437.14 659.351 l 1
 342.21 742.501 l 1
 221.64 659.351 l 1
 218.71 661.57 l 1
319.069 527.21 m 0
 372.209 527.21 410.499 510.281 441.789 477.211 c 1
 438.569 474.851 l 1
 407.789 507.501 369.999 523.431 319.149 523.431 c 0
 192.079 523.431 104.429 416.501 83.0791 251.851 c 0
 60.7891 87.2803 131.079 -5.21973 243.359 -5.21973 c 0
 301.93 -5.21973 344 15.6406 382.93 46.4209 c 1
 385 43.9209 l 1
 346.72 12.7812 304.149 -9.0791 243.499 -9.0791 c 0
 128.569 -9.0791 56.7197 84.3506 79 251.851 c 0
 101.29 419.28 188.72 527.21 319.069 527.21 c 0
EndSplineSet
Substitution2: "'smcp' Lowercase to Small Capitals lookup 24 subtable" ccircumflex.sc
Substitution2: "'aalt' Access All Alternates lookup 0 subtable" ccircumflex.sc
EndChar
StartChar: Cdotaccent
Encoding: 266 266 47
Width: 531
GlyphClass: 2
Flags: MW
HStem: -9 21G<239 346> 670 20G<284.5 440> 819 15<421.5 425.5>
VStem: 416 15<825 828 824.5 828.5>
AnchorPoint: "Anchor-14" 0 0 basechar 0
AnchorPoint: "Anchor-13" 0 0 basechar 0
AnchorPoint: "Anchor-12" 424 834 basechar 0
AnchorPoint: "Anchor-11" 0 0 basechar 0
AnchorPoint: "Anchor-10" 306 0 basechar 0
LayerCount: 2
Back
Fore
SplineSet
424 834 m 0
 429 834 431 830 431 826 c 0
 431 823 428 819 423 819 c 0
 419 819 416 823 416 827 c 0
 416 830 419 834 424 834 c 0
403 690 m 0
 477 690 517 664 548 633 c 1
 546 630 l 1
 513 662 477 686 403 686 c 0
 168 686 94 424 94 254 c 0
 94 85 176 -5 305 -5 c 0
 386 -5 437 26 474 54 c 1
 476 50 l 1
 439 23 387 -9 305 -9 c 0
 173 -9 90 83 90 253 c 0
 90 430 166 690 403 690 c 0
EndSplineSet
Substitution2: "'c2sc' Capitals to Small Capitals lookup 27 subtable" cdotaccent.sc
Substitution2: "'aalt' Access All Alternates lookup 0 subtable" cdotaccent.sc
Position2: "'cpsp' Capital Spacing lookup 0 subtable" dx=5 dy=0 dh=10 dv=0
EndChar
StartChar: cdotaccent
Encoding: 267 267 386
Width: 468
GlyphClass: 2
Flags: MW
HStem: -9 21G<193 273.5> 507 20G<238.5 345.5> 693 15<330.5 334.5>
VStem: 325 15<699 702 698.5 702.5>
AnchorPoint: "Anchor-14" 0 0 basechar 0
AnchorPoint: "Anchor-13" 0 0 basechar 0
AnchorPoint: "Anchor-12" 334 708 basechar 0
AnchorPoint: "Anchor-11" 0 0 basechar 0
AnchorPoint: "Anchor-10" 249 -1 basechar 0
LayerCount: 2
Back
Fore
SplineSet
333 708 m 0
 338 708 340 704 340 700 c 0
 340 697 337 693 332 693 c 0
 328 693 325 697 325 701 c 0
 325 704 328 708 333 708 c 0
319 527 m 0
 372 527 410 510 442 477 c 1
 439 475 l 1
 408 507 370 523 319 523 c 0
 160 523 79 360 79 194 c 0
 79 64 145 -5 243 -5 c 0
 302 -5 344 16 383 46 c 1
 385 44 l 1
 347 13 304 -9 243 -9 c 0
 143 -9 75 62 75 194 c 0
 75 362 158 527 319 527 c 0
EndSplineSet
Substitution2: "'smcp' Lowercase to Small Capitals lookup 28 subtable" cdotaccent.sc
Substitution2: "'aalt' Access All Alternates lookup 0 subtable" cdotaccent.sc
EndChar

StartChar: Ccaron
Encoding: 268 268 16
Width: 531
GlyphClass: 2
Flags: MW
HStem: -9.07001 21G 670.14 20G 686.21 82.5
VStem: 90.22 457.71
AnchorPoint: "Anchor-11" 306 0 basechar 0
AnchorPoint: "Anchor-10" 0 0 basechar 0
AnchorPoint: "Anchor-9" 403 680 basechar 0
AnchorPoint: "Anchor-8" 0 0 basechar 0
LayerCount: 2
Fore
SplineSet
531.5 844.57 m 1xb0
 410.29 764.5 l 1
 407.29 764.5 l 1
 310.14 844.57 l 1
 313.14 846.71 l 1
 409.069 768.71 l 1
 528.64 846.78 l 1
 531.5 844.57 l 1xb0
403 690.14 m 0xd0
 477 690.14 517.219 664.36 547.929 633 c 1
 545.648 629.57 l 1
 512.929 661.931 476.999 686.211 403.149 686.211 c 0xb0
 167.499 686.211 94.2891 424.071 94.2891 253.501 c 0
 94.2891 85.0713 176.289 -5.0791 305.069 -5.0791 c 0
 385.72 -5.0791 437.069 26.3506 473.72 53.8506 c 1
 475.93 50.2803 l 1
 439 22.5 386.65 -9.07031 305 -9.07031 c 0
 172.93 -9.07031 90.2197 83 90.2197 253.43 c 0
 90.2197 429.779 166 690.14 403 690.14 c 0xd0
EndSplineSet
Substitution2: "'c2sc' Capitals to Small Capitals lookup 23 subtable" ccaron.sc
Substitution2: "'aalt' Access All Alternates lookup 0 subtable" ccaron.sc
Position2: "'cpsp' Capital Spacing lookup 0 subtable" dx=5 dy=0 dh=10 dv=0
EndChar
StartChar: ccaron
Encoding: 269 269 382
Width: 468
GlyphClass: 2
Flags: MW
HStem: -9 21G<193 273.5> 507 20G<238.5 345.5> 712 20G<227 227 448 448> 715 20G<230 230 446 446>
VStem: 75 373
AnchorPoint: "Anchor-14" 0 0 basechar 0
AnchorPoint: "Anchor-13" 0 0 basechar 0
AnchorPoint: "Anchor-12" 340 735 basechar 0
AnchorPoint: "Anchor-11" 0 0 basechar 0
AnchorPoint: "Anchor-10" 249 -1 basechar 0
LayerCount: 2
Back
Fore
SplineSet
446 735 m 1xe8
 448 732 l 1
 326 647 l 1
 323 647 l 1xe8
 227 732 l 1
 230 735 l 1
 325 652 l 1xd8
 446 735 l 1xe8
319 527 m 0xd8
 372 527 410 510 442 477 c 1
 439 475 l 1
 408 507 370 523 319 523 c 0
 160 523 79 360 79 194 c 0
 79 64 145 -5 243 -5 c 0
 302 -5 344 16 383 46 c 1
 385 44 l 1
 347 13 304 -9 243 -9 c 0
 143 -9 75 62 75 194 c 0
 75 362 158 527 319 527 c 0xd8
EndSplineSet
Substitution2: "'smcp' Lowercase to Small Capitals lookup 28 subtable" ccaron.sc
Substitution2: "'aalt' Access All Alternates lookup 0 subtable" ccaron.sc
EndChar

StartChar: Dcaron
Encoding: 270 270 22
Width: 613
GlyphClass: 2
Flags: MW
HStem: 0 21G<93.2197 205.79 93.2197 93.2197> 660.14 20G
VStem: 93.22 455.07
AnchorPoint: "Anchor-11" 0 0 basechar 0
AnchorPoint: "Anchor-10" 0 0 basechar 0
AnchorPoint: "Anchor-9" 349 680 basechar 0
AnchorPoint: "Anchor-8" 0 0 basechar 0
LayerCount: 2
Fore
SplineSet
477.28 844.57 m 1
 356.07 764.5 l 1
 353.07 764.5 l 1
 255.931 844.57 l 1
 258.931 846.71 l 1
 354.86 768.71 l 1
 474.431 846.78 l 1
 477.28 844.57 l 1
294 680.14 m 2
 422.14 680.14 548.29 638 548.29 435.5 c 0
 548.29 232.21 462.07 0 205.79 0 c 2
 93.2197 -0 l 1
 188.29 680.14 l 1
 294 680.14 l 2
192.07 676.21 m 1
 97.6406 3.91992 l 1
 206.07 3.91992 l 2
 458.851 3.91992 544.211 234.42 544.211 435.57 c 0
 544.211 635.07 419.711 676.21 293.641 676.21 c 2
 192.07 676.21 l 1
EndSplineSet
Substitution2: "'c2sc' Capitals to Small Capitals lookup 23 subtable" dcaron.sc
Substitution2: "'aalt' Access All Alternates lookup 0 subtable" dcaron.sc
Position2: "'cpsp' Capital Spacing lookup 0 subtable" dx=5 dy=0 dh=10 dv=0
EndChar
StartChar: dcaron
Encoding: 271 271 393
Width: 571
GlyphClass: 2
Flags: MW
HStem: -9 21G<182.5 276> 0 21G<407 411 407 407> 507 20G<227.5 359.5> 711 20G<509 509> 717 20G<623 623>
VStem: 78 549<122 736>
AnchorPoint: "Anchor-14" 288 259 basechar 0
AnchorPoint: "Anchor-13" 561 728 basechar 0
AnchorPoint: "Anchor-12" 344 728 basechar 0
AnchorPoint: "Anchor-11" 0 0 basechar 0
AnchorPoint: "Anchor-10" 252 0 basechar 0
LayerCount: 2
Back
Fore
SplineSet
623 737 m 1x6c
 627 736 l 1
 588 599 l 1
 585 599 l 1
 623 737 l 1x6c
509 731 m 1xb4
 513 730 l 1xb4
 411 0 l 1
 407 0 l 1x6c
 428 147 l 1
 381 64 324 -9 228 -9 c 0
 137 -9 78 61 78 183 c 0
 78 316 138 527 317 527 c 0
 402 527 448 474 466 426 c 1
 509 731 l 1xb4
317 523 m 0
 140 523 82 315 82 183 c 0
 82 63 140 -5 228 -5 c 0
 324 -5 381 69 428 154 c 1
 466 420 l 1
 446 473 401 523 317 523 c 0
EndSplineSet
Substitution2: "'smcp' Lowercase to Small Capitals lookup 28 subtable" dcaron.sc
Substitution2: "'aalt' Access All Alternates lookup 0 subtable" dcaron.sc
EndChar
StartChar: Dcroat
Encoding: 272 272 57
Width: 606
GlyphClass: 2
Flags: MW
HStem: 0 21G<85 198 85 85> 351 329<43 286 43 286 139 286 180 286 286 336> 660 20G<180 286 286 350>
VStem: 43 497<351 355 355 355>
AnchorPoint: "Anchor-14" 313 340 basechar 0
AnchorPoint: "Anchor-13" 0 0 basechar 0
AnchorPoint: "Anchor-12" 341 680 basechar 0
AnchorPoint: "Anchor-11" 0 0 basechar 0
AnchorPoint: "Anchor-10" 244 0 basechar 0
LayerCount: 2
Back
Fore
SplineSet
286 680 m 2xb0
 414 680 540 638 540 436 c 0
 540 232 454 0 198 0 c 2
 85 0 l 1
 134 351 l 1
 43 351 l 1
 43 355 l 1
 135 355 l 1xd0
 180 680 l 1
 286 680 l 2xb0
198 4 m 2
 451 4 536 234 536 436 c 0
 536 635 412 676 286 676 c 2
 184 676 l 1
 139 355 l 1
 336 355 l 1
 336 351 l 1
 139 351 l 1xd0
 90 4 l 1
 198 4 l 2
EndSplineSet
Substitution2: "'c2sc' Capitals to Small Capitals lookup 27 subtable" dcroat.sc
Substitution2: "'aalt' Access All Alternates lookup 0 subtable" dcroat.sc
Position2: "'cpsp' Capital Spacing lookup 0 subtable" dx=5 dy=0 dh=10 dv=0
EndChar
StartChar: dcroat
Encoding: 273 273 395
Width: 573
GlyphClass: 2
Flags: MW
HStem: -9 21G<182.5 276> 0 21G<407 411 407 407> 507 20G<227.5 359.5> 523 118<317 359> 637 94<317 509 509 509 509 575 500 509>
VStem: 78 497<122 641>
AnchorPoint: "Anchor-14" 288 259 basechar 0
AnchorPoint: "Anchor-13" 561 728 basechar 0
AnchorPoint: "Anchor-12" 344 728 basechar 0
AnchorPoint: "Anchor-11" 0 0 basechar 0
AnchorPoint: "Anchor-10" 252 0 basechar 0
LayerCount: 2
Back
Fore
SplineSet
575 641 m 1x54
 575 637 l 1x54
 500 637 l 1
 411 0 l 1
 407 0 l 1x6c
 428 147 l 1
 381 64 324 -9 228 -9 c 0
 137 -9 78 61 78 183 c 0
 78 316 138 527 317 527 c 0
 402 527 448 474 466 426 c 1
 496 637 l 1xac
 317 637 l 1
 317 641 l 1
 496 641 l 1x54
 509 731 l 1
 513 730 l 1x6c
 500 641 l 1
 575 641 l 1x54
428 154 m 1
 466 420 l 1
 446 473 401 523 317 523 c 0
 140 523 82 315 82 183 c 0
 82 63 140 -5 228 -5 c 0
 324 -5 381 69 428 154 c 1
EndSplineSet
Substitution2: "'smcp' Lowercase to Small Capitals lookup 28 subtable" dcroat.sc
Substitution2: "'aalt' Access All Alternates lookup 0 subtable" dcroat.sc
EndChar

StartChar: Emacron
Encoding: 274 274 32
Width: 495
GlyphClass: 2
Flags: MW
HStem: 0 21G<93.209 409.499 93.209 93.209> 358.93 321.21 676.21 142.29
VStem: 93.21 401.64
AnchorPoint: "Anchor-11" 248 0 basechar 0
AnchorPoint: "Anchor-10" 88 517 basechar 0
AnchorPoint: "Anchor-9" 343 680 basechar 0
AnchorPoint: "Anchor-8" 390 0 basechar 0
LayerCount: 2
Fore
SplineSet
266.28 814.57 m 1xb0
 266.64 818.5 l 1
 458.35 818.5 l 1
 458 814.57 l 1
 266.28 814.57 l 1xb0
494.279 676.21 m 1
 192.069 676.209 l 1xb0
 148.419 362.779 l 1
 407.849 362.779 l 1
 407.568 358.93 l 1
 148.139 358.93 l 1
 97.6387 3.92969 l 1
 409.849 3.92969 l 1
 409.499 0 l 1
 93.209 -0 l 1
 188.279 680.14 l 1xd0
 494.85 680.14 l 1
 494.279 676.21 l 1
EndSplineSet
Substitution2: "'c2sc' Capitals to Small Capitals lookup 23 subtable" emacron.sc
Substitution2: "'aalt' Access All Alternates lookup 0 subtable" emacron.sc
Position2: "'cpsp' Capital Spacing lookup 0 subtable" dx=5 dy=0 dh=10 dv=0
EndChar
StartChar: emacron
Encoding: 275 275 427
Width: 520
GlyphClass: 2
Flags: MW
HStem: -9 21G<188 272> 507 20G<229.5 363> 523 170<238.5 362>
VStem: 74 392<126 451>
AnchorPoint: "Anchor-14" 0 0 basechar 0
AnchorPoint: "Anchor-13" 0 0 basechar 0
AnchorPoint: "Anchor-12" 334 693 basechar 0
AnchorPoint: "Anchor-11" 344 10 basechar 0
AnchorPoint: "Anchor-10" 234 0 basechar 0
LayerCount: 2
Back
Fore
SplineSet
428 693 m 1xb0
 428 689 l 1
 236 689 l 1
 236 693 l 1
 428 693 l 1xb0
466 414 m 0
 466 305 347 231 79 218 c 1
 79 208 78 199 78 191 c 0
 78 63 139 -5 239 -5 c 0
 304 -5 348 16 400 54 c 1
 402 50 l 1
 350 12 305 -9 239 -9 c 0
 137 -9 74 61 74 191 c 0
 74 312 134 527 325 527 c 0xd0
 401 527 466 488 466 414 c 0
325 523 m 0
 152 523 89 344 79 221 c 1
 347 235 462 308 462 414 c 0
 462 485 399 523 325 523 c 0
EndSplineSet
Substitution2: "'smcp' Lowercase to Small Capitals lookup 28 subtable" emacron.sc
Substitution2: "'aalt' Access All Alternates lookup 0 subtable" emacron.sc
EndChar
StartChar: Ebreve
Encoding: 276 276 67
Width: 495
GlyphClass: 2
Flags: MW
HStem: 0 21G<93 410 93 93> 359 321<188 408 148 495> 676 100<325.5 328 352 353 353 354 378.5 381 325.5 494>
VStem: 93 402
AnchorPoint: "Anchor-14" 0 0 basechar 0
AnchorPoint: "Anchor-13" 0 0 basechar 0
AnchorPoint: "Anchor-12" 363 837 basechar 0
AnchorPoint: "Anchor-11" 390 0 basechar 0
AnchorPoint: "Anchor-10" 248 0 basechar 0
LayerCount: 2
Back
Fore
SplineSet
352 776 m 1x30
 299 776 273 806 266 836 c 1
 274 802 304 776 352 776 c 1x30
457 836 m 1
 442 806 408 776 354 776 c 1
 403 776 439 801 457 836 c 1
352 776 m 2
 353 776 l 1
 353 776 353 776 352 776 c 2
353 776 m 1
 354 776 l 2
 353 776 353 776 353 776 c 1
494 676 m 1
 192 676 l 1x30
 148 363 l 1
 408 363 l 1
 408 359 l 1
 148 359 l 1
 98 4 l 1
 410 4 l 1
 410 0 l 1
 93 0 l 1
 188 680 l 1xd0
 495 680 l 1
 494 676 l 1
EndSplineSet
Substitution2: "'c2sc' Capitals to Small Capitals lookup 27 subtable" ebreve.sc
Substitution2: "'aalt' Access All Alternates lookup 0 subtable" ebreve.sc
Position2: "'cpsp' Capital Spacing lookup 0 subtable" dx=5 dy=0 dh=10 dv=0
EndChar

StartChar: ebreve
Encoding: 277 277 159
Width: 528
GlyphClass: 2
Flags: MW
HStem: -9.09 21G 507.2 20G 523.41 144.29 670.31 20G 718.06 20G 718.21 20G
VStem: 74.28 391.36
AnchorPoint: "Anchor-11" 230 0 basechar 0
AnchorPoint: "Anchor-10" 0 0 basechar 0
AnchorPoint: "Anchor-9" 308 517 basechar 0
AnchorPoint: "Anchor-8" 344 10 basechar 0
LayerCount: 2
Fore
SplineSet
265.73 690.32 m 1xd6
 253.19 702.761 246.101 719.34 243.711 737.49 c 1
 243.921 738.21 l 1
 246.461 718.34 253.931 702.16 265.73 690.32 c 1xd6
434.99 737.629 m 1xaa
 430.48 727.459 424.76 717.779 417.79 709.039 c 1
 424.44 717.549 430.101 727.249 434.641 738.059 c 1
 434.99 737.629 l 1xaa
329.209 667.479 m 0
 302.019 667.479 280.479 675.51 265.729 690.31 c 1xd6
 279.729 676.43 300.529 667.699 329.209 667.699 c 0
 369.289 667.699 398.399 684.739 417.789 709.039 c 1
 396.909 682.349 366.199 667.479 329.209 667.479 c 0
465.64 413.7 m 0
 465.64 304.82 347.129 230.892 79.2686 217.701 c 1
 78.6484 208.261 78.3486 199.171 78.3486 190.551 c 0
 78.3486 62.7705 139.349 -5.22949 239.499 -5.22949 c 0
 304.279 -5.22949 348.069 15.7002 399.919 53.4805 c 1
 401.989 50.0508 l 1
 349.989 11.9805 304.56 -9.08984 239.489 -9.08984 c 0
 136.709 -9.08984 74.2793 61.0605 74.2793 190.49 c 0
 74.2793 312.42 133.779 527.2 324.709 527.2 c 0xd6
 401.069 527.2 465.64 487.561 465.64 413.7 c 0
324.709 523.411 m 0
 152.139 523.411 88.6387 344.231 79.5283 221.411 c 1
 346.769 234.681 461.559 308.251 461.559 413.631 c 0
 461.559 485.341 399.209 523.411 324.709 523.411 c 0
EndSplineSet
Substitution2: "'smcp' Lowercase to Small Capitals lookup 24 subtable" ebreve.sc
Substitution2: "'aalt' Access All Alternates lookup 0 subtable" ebreve.sc
EndChar

StartChar: Edotaccent
Encoding: 278 278 30
Width: 495
GlyphClass: 2
Flags: MW
HStem: 0 21G<93.209 409.499 93.209 93.209> 358.93 321.21 819.07 14.71
VStem: 355.93 14.78
AnchorPoint: "Anchor-11" 248 0 basechar 0
AnchorPoint: "Anchor-10" 88 517 basechar 0
AnchorPoint: "Anchor-9" 343 680 basechar 0
AnchorPoint: "Anchor-8" 390 0 basechar 0
LayerCount: 2
Fore
SplineSet
363.43 833.78 m 0
 368.43 833.78 370.859 830.141 370.709 826.28 c 0
 370.569 822.57 368.069 819.07 363.209 819.07 c 0
 358.279 819.07 355.779 822.71 355.93 826.57 c 0
 356.069 830.28 358.64 833.78 363.43 833.78 c 0
494.279 676.21 m 1
 192.069 676.209 l 1
 148.419 362.779 l 1
 407.849 362.779 l 1
 407.568 358.93 l 1
 148.139 358.93 l 1
 97.6387 3.92969 l 1
 409.849 3.92969 l 1
 409.499 0 l 1
 93.209 -0 l 1
 188.279 680.14 l 1
 494.85 680.14 l 1
 494.279 676.21 l 1
EndSplineSet
Substitution2: "'c2sc' Capitals to Small Capitals lookup 23 subtable" edotaccent.sc
Substitution2: "'aalt' Access All Alternates lookup 0 subtable" edotaccent.sc
Position2: "'cpsp' Capital Spacing lookup 0 subtable" dx=5 dy=0 dh=10 dv=0
EndChar
StartChar: edotaccent
Encoding: 279 279 422
Width: 520
GlyphClass: 2
Flags: MW
HStem: -9 21G<188 272> 507 20G<229.5 363> 693 15<332.5 336.5>
VStem: 327 15<699 702 698.5 702.5>
AnchorPoint: "Anchor-14" 0 0 basechar 0
AnchorPoint: "Anchor-13" 0 0 basechar 0
AnchorPoint: "Anchor-12" 336 708 basechar 0
AnchorPoint: "Anchor-11" 344 10 basechar 0
AnchorPoint: "Anchor-10" 234 0 basechar 0
LayerCount: 2
Back
Fore
SplineSet
334 693 m 0
 330 693 327 697 327 701 c 0
 327 704 330 708 335 708 c 0
 340 708 342 704 342 700 c 0
 342 697 339 693 334 693 c 0
466 414 m 0
 466 305 347 231 79 218 c 1
 79 208 78 199 78 191 c 0
 78 63 139 -5 239 -5 c 0
 304 -5 348 16 400 54 c 1
 402 50 l 1
 350 12 305 -9 239 -9 c 0
 137 -9 74 61 74 191 c 0
 74 312 134 527 325 527 c 0
 401 527 466 488 466 414 c 0
325 523 m 0
 152 523 89 344 79 221 c 1
 347 235 462 308 462 414 c 0
 462 485 399 523 325 523 c 0
EndSplineSet
Substitution2: "'smcp' Lowercase to Small Capitals lookup 28 subtable" edotaccent.sc
Substitution2: "'aalt' Access All Alternates lookup 0 subtable" edotaccent.sc
EndChar
StartChar: Eogonek
Encoding: 280 280 84
Width: 495
GlyphClass: 2
Flags: MW
HStem: -195 199<272 302.5> 0 21G<93 373 93 93 380 410 380 380> 359 321<188 408 148 495>
VStem: 93 402
AnchorPoint: "Anchor-14" 0 0 basechar 0
AnchorPoint: "Anchor-13" 0 0 basechar 0
AnchorPoint: "Anchor-12" 343 680 basechar 0
AnchorPoint: "Anchor-11" 390 0 basechar 0
AnchorPoint: "Anchor-10" 248 0 basechar 0
LayerCount: 2
Back
Fore
SplineSet
494 676 m 1xb0
 192 676 l 1
 148 363 l 1
 408 363 l 1
 408 359 l 1
 148 359 l 1
 98 4 l 1xb0
 410 4 l 1
 410 0 l 1
 380 0 l 1x70
 284 -34 228 -74 228 -131 c 0
 228 -172 254 -191 294 -191 c 0
 312 -191 325 -189 348 -183 c 1
 347 -187 l 1
 325 -193 312 -195 293 -195 c 0
 251 -195 224 -174 224 -132 c 0xb0
 224 -64 303 -25 373 0 c 1
 93 0 l 1x70
 188 680 l 1
 495 680 l 1
 494 676 l 1xb0
EndSplineSet
Substitution2: "'c2sc' Capitals to Small Capitals lookup 27 subtable" eogonek.sc
Substitution2: "'aalt' Access All Alternates lookup 0 subtable" eogonek.sc
Position2: "'cpsp' Capital Spacing lookup 0 subtable" dx=5 dy=0 dh=10 dv=0
EndChar

StartChar: eogonek
Encoding: 281 281 166
Width: 528
GlyphClass: 2
Flags: MW
HStem: -185.21 180 -9.08 21G -2.95 21G 507.21 20G
VStem: 74.28 391.36
AnchorPoint: "Anchor-11" 230 0 basechar 0
AnchorPoint: "Anchor-10" 0 0 basechar 0
AnchorPoint: "Anchor-9" 308 517 basechar 0
AnchorPoint: "Anchor-8" 344 10 basechar 0
LayerCount: 2
Fore
SplineSet
465.64 413.71 m 0x38
 465.64 304.83 347.118 230.91 79.2578 217.72 c 1
 78.6377 208.279 78.3379 199.189 78.3379 190.569 c 0
 78.3379 62.7891 139.338 -5.21094 239.488 -5.21094 c 0
 304.269 -5.21094 348.059 15.7188 399.908 53.499 c 1
 401.979 50.0693 l 1
 372.519 28.499 345.158 12.3789 315.148 2.46875 c 1
 261.059 -19.4316 199.778 -54.4912 199.778 -110.432 c 0
 199.778 -157.361 230.278 -181.211 274.488 -181.211 c 0
 292.488 -181.211 305.559 -179.211 327.488 -173.361 c 1
 327.278 -177.361 l 1
 305.418 -183.211 293.208 -185.211 274.208 -185.211 c 0
 227.418 -185.211 195.568 -159.361 195.568 -110.501 c 0x98
 195.568 -59.5508 243.668 -26.0605 295.868 -2.9502 c 1
 278.479 -6.99023 259.959 -9.08008 239.499 -9.08008 c 0x58
 136.709 -9.08008 74.2793 61.0703 74.2793 190.5 c 0
 74.2793 312.43 133.779 527.21 324.709 527.21 c 0
 401.069 527.21 465.64 487.57 465.64 413.71 c 0x38
324.698 523.43 m 0
 152.128 523.43 88.6279 344.25 79.5176 221.43 c 1
 346.758 234.699 461.548 308.27 461.548 413.649 c 0
 461.548 485.359 399.198 523.43 324.698 523.43 c 0
EndSplineSet
Substitution2: "'smcp' Lowercase to Small Capitals lookup 24 subtable" eogonek.sc
Substitution2: "'aalt' Access All Alternates lookup 0 subtable" eogonek.sc
EndChar
StartChar: Ecaron
Encoding: 282 282 68
Width: 495
GlyphClass: 2
Flags: MW
HStem: 0 21G<93 410 93 93> 359 321<188 408 148 495> 676 93<350 350 350 494>
VStem: 93 402
AnchorPoint: "Anchor-14" 0 0 basechar 0
AnchorPoint: "Anchor-13" 0 0 basechar 0
AnchorPoint: "Anchor-12" 364 847 basechar 0
AnchorPoint: "Anchor-11" 390 0 basechar 0
AnchorPoint: "Anchor-10" 248 0 basechar 0
LayerCount: 2
Back
Fore
SplineSet
470 847 m 1xb0
 472 845 l 1
 351 765 l 1
 348 765 l 1
 251 845 l 1
 254 847 l 1
 350 769 l 1
 470 847 l 1xb0
495 680 m 1
 494 676 l 1
 192 676 l 1xb0
 148 363 l 1
 408 363 l 1
 408 359 l 1
 148 359 l 1
 98 4 l 1
 410 4 l 1
 410 0 l 1
 93 0 l 1
 188 680 l 1xd0
 495 680 l 1
EndSplineSet
Substitution2: "'c2sc' Capitals to Small Capitals lookup 27 subtable" ecaron.sc
Substitution2: "'aalt' Access All Alternates lookup 0 subtable" ecaron.sc
Position2: "'cpsp' Capital Spacing lookup 0 subtable" dx=5 dy=0 dh=10 dv=0
EndChar

StartChar: Gcircumflex
Encoding: 284 284 37
Width: 600
GlyphClass: 2
Flags: MW
HStem: -9.08 21G 670.14 20G
VStem: 90.21 465.21
AnchorPoint: "Anchor-11" 303 0 basechar 0
AnchorPoint: "Anchor-10" 0 0 basechar 0
AnchorPoint: "Anchor-9" 398 680 basechar 0
AnchorPoint: "Anchor-8" 0 0 basechar 0
LayerCount: 2
Fore
SplineSet
425.78 847.71 m 1
 307.99 769.64 l 1
 305.141 771.85 l 1
 424.57 851.92 l 1
 427.57 851.92 l 1
 526.5 771.85 l 1
 523.5 769.64 l 1
 425.78 847.71 l 1
404.141 690.14 m 0
 466.561 690.14 511.129 671.062 555.419 634.701 c 1
 552.989 631.352 l 1
 509.199 667.422 465.199 686.202 404.129 686.202 c 0
 189.279 686.202 94.3496 444.492 94.3496 256.132 c 0
 94.3496 84.9219 177.989 -5.14844 316.919 -5.14844 c 0
 387.489 -5.14844 442.85 18.1318 486.279 41.2822 c 1
 528.989 339.282 l 1
 378.64 339.282 l 1
 378.569 343.212 l 1
 533.35 343.212 l 1
 490.279 39.1416 l 1
 445.069 14.4912 386.35 -9.0791 316.92 -9.0791 c 0
 175.71 -9.0791 90.21 82.8506 90.21 256.28 c 0
 90.21 451 188.99 690.14 404.141 690.14 c 0
EndSplineSet
Substitution2: "'c2sc' Capitals to Small Capitals lookup 23 subtable" gcircumflex.sc
Substitution2: "'aalt' Access All Alternates lookup 0 subtable" gcircumflex.sc
Position2: "'cpsp' Capital Spacing lookup 0 subtable" dx=5 dy=0 dh=10 dv=0
EndChar

StartChar: gcircumflex
Encoding: 285 285 170
Width: 550
GlyphClass: 2
Flags: MW
HStem: -191.58 195.43 0 21G<178.89 260.215> 507.21 20G
VStem: 51.28 411.86
AnchorPoint: "Anchor-11" 0 0 basechar 0
AnchorPoint: "Anchor-10" 0 0 basechar 0
AnchorPoint: "Anchor-9" 316 517 basechar 0
AnchorPoint: "Anchor-8" 0 0 basechar 0
LayerCount: 2
Fore
SplineSet
228.28 661.57 m 1x70
 350.569 746.71 l 1
 353.569 746.71 l 1
 449.64 661.57 l 1
 446.71 659.351 l 1
 351.78 742.501 l 1
 231.21 659.351 l 1
 228.28 661.57 l 1x70
336.069 527.21 m 0
 387.64 527.21 428.641 510.99 463.141 487.061 c 1
 389.421 -10.3691 l 2
 368.421 -151.869 297.491 -191.579 210.781 -191.579 c 0
 140.921 -191.579 84.0713 -167.649 51.2812 -145.51 c 1
 53.1416 -142.08 l 1
 85.9912 -164.15 141.211 -187.86 210.851 -187.86 c 0xb0
 295.57 -187.86 364.71 -149.36 385.43 -10.6504 c 2
 406 129.64 l 1
 359.64 41.8496 292.43 0 228 0 c 0
 129.78 0 75.2803 83.5703 75.21 195.5 c 0
 75.1396 337.57 138.64 527.21 336.069 527.21 c 0
336.141 523.49 m 0
 141.141 523.49 79.209 335.779 79.2793 195.56 c 0
 79.3496 85.6299 132 3.84961 228.07 3.84961 c 0xb0
 297.141 3.84961 361.421 50.4893 407.421 138.64 c 1
 459.141 485.14 l 1
 425.351 508.71 385.211 523.49 336.141 523.49 c 0
EndSplineSet
Substitution2: "'smcp' Lowercase to Small Capitals lookup 24 subtable" gcircumflex.sc
Substitution2: "'aalt' Access All Alternates lookup 0 subtable" gcircumflex.sc
EndChar

StartChar: Gbreve
Encoding: 286 286 36
Width: 600
GlyphClass: 2
Flags: MW
HStem: -9.08 21G 670.14 20G 686.2 89.58
VStem: 90.22 465.21
AnchorPoint: "Anchor-11" 303 0 basechar 0
AnchorPoint: "Anchor-10" 0 0 basechar 0
AnchorPoint: "Anchor-9" 398 680 basechar 0
AnchorPoint: "Anchor-8" 0 0 basechar 0
LayerCount: 2
Fore
SplineSet
362.46 784.31 m 1xd0
 337.44 795.409 323.94 815.73 319.21 835.57 c 1
 319.5 836.28 l 1
 324.48 813.67 339.25 794.75 362.46 784.31 c 1xd0
510.5 835.711 m 1
 499.71 814.781 479.301 793.241 448.73 782.591 c 1
 476.7 792.551 497.97 812.251 510.21 836.141 c 1
 510.5 835.711 l 1
448.731 782.591 m 1xb0
 436.062 778.071 422.001 775.571 406.791 775.571 c 0
 389.731 775.571 374.892 778.731 362.472 784.312 c 1
 374.481 778.981 389.151 775.781 406.791 775.781 c 0
 422.441 775.781 436.411 778.301 448.731 782.591 c 1xb0
404.15 686.211 m 0
 189.29 686.211 94.3613 444.493 94.3613 256.133 c 0
 94.3613 84.9229 178.012 -5.14746 316.941 -5.14746 c 0
 387.512 -5.14746 442.861 18.1328 486.291 41.2832 c 1
 529.011 339.283 l 1
 378.65 339.283 l 1
 378.58 343.213 l 1
 533.37 343.213 l 1
 490.3 39.1426 l 1
 445.08 14.4922 386.37 -9.07812 316.94 -9.07812 c 0
 175.721 -9.07812 90.2207 82.8516 90.2207 256.281 c 0
 90.2207 451.001 189.011 690.141 404.15 690.141 c 0xd0
 466.58 690.141 511.15 671.07 555.431 634.71 c 1
 553.001 631.36 l 1
 509.221 667.431 465.221 686.211 404.15 686.211 c 0
EndSplineSet
Substitution2: "'c2sc' Capitals to Small Capitals lookup 23 subtable" gbreve.sc
Substitution2: "'aalt' Access All Alternates lookup 0 subtable" gbreve.sc
Position2: "'cpsp' Capital Spacing lookup 0 subtable" dx=5 dy=0 dh=10 dv=0
EndChar
StartChar: gbreve
Encoding: 287 287 453
Width: 550
GlyphClass: 2
Flags: MW
HStem: -192 196<180 254.5> 0 21G<179 260> 507 20G<237.5 362> 524 146<311 359 311 360.5> 718 20G<252 252> 719 20G<439 439>
VStem: 51 412
AnchorPoint: "Anchor-14" 0 0 basechar 0
AnchorPoint: "Anchor-13" 0 0 basechar 0
AnchorPoint: "Anchor-12" 347 739 basechar 0
AnchorPoint: "Anchor-11" 0 0 basechar 0
AnchorPoint: "Anchor-10" 211 -188 basechar 0
LayerCount: 2
Back
Fore
SplineSet
335 666 m 0x66
 280 666 253 698 248 737 c 1
 252 738 l 1
 258 694 287 670 335 670 c 0x5a
 383 670 420 695 439 739 c 1
 443 737 l 1
 426 698 391 666 335 666 c 0x66
336 527 m 0
 388 527 429 511 463 487 c 1
 389 -10 l 2
 368 -152 298 -192 211 -192 c 0
 141 -192 84 -168 51 -146 c 1
 53 -142 l 1
 86 -164 141 -188 211 -188 c 0xa6
 296 -188 365 -149 385 -11 c 2
 406 130 l 1
 360 42 292 0 228 0 c 0
 130 0 75 84 75 196 c 0
 75 338 139 527 336 527 c 0
336 524 m 0x96
 141 524 79 336 79 196 c 0
 79 86 132 4 228 4 c 0
 297 4 361 51 407 139 c 1
 459 485 l 1
 425 509 385 524 336 524 c 0x96
EndSplineSet
Substitution2: "'smcp' Lowercase to Small Capitals lookup 28 subtable" gbreve.sc
Substitution2: "'aalt' Access All Alternates lookup 0 subtable" gbreve.sc
EndChar

StartChar: Gdotaccent
Encoding: 288 288 39
Width: 600
GlyphClass: 2
Flags: MW
HStem: -9.08 21G 670.14 20G 819.06 14.72
VStem: 410.35 14.79
AnchorPoint: "Anchor-11" 303 0 basechar 0
AnchorPoint: "Anchor-10" 0 0 basechar 0
AnchorPoint: "Anchor-9" 398 680 basechar 0
AnchorPoint: "Anchor-8" 0 0 basechar 0
LayerCount: 2
Fore
SplineSet
417.85 833.78 m 0
 422.85 833.78 425.278 830.13 425.139 826.28 c 0
 424.988 822.561 422.488 819.061 417.639 819.061 c 0
 412.709 819.061 410.209 822.711 410.349 826.561 c 0
 410.499 830.28 413.069 833.78 417.85 833.78 c 0
404.139 690.141 m 0
 466.568 690.131 511.14 671.051 555.42 634.701 c 1
 552.99 631.341 l 1
 509.21 667.411 465.21 686.201 404.14 686.201 c 0
 189.279 686.201 94.3496 444.481 94.3496 256.132 c 0
 94.3496 84.9121 178 -5.1582 316.93 -5.1582 c 0
 387.5 -5.1582 442.85 18.1318 486.279 41.2715 c 1
 528.999 339.271 l 1
 378.639 339.271 l 1
 378.568 343.201 l 1
 533.358 343.201 l 1
 490.288 39.1309 l 1
 445.068 14.4912 386.358 -9.0791 316.929 -9.0791 c 0
 175.709 -9.0791 90.209 82.8506 90.209 256.28 c 0
 90.209 450.99 188.999 690.141 404.139 690.141 c 0
EndSplineSet
Substitution2: "'c2sc' Capitals to Small Capitals lookup 23 subtable" gdotaccent.sc
Substitution2: "'aalt' Access All Alternates lookup 0 subtable" gdotaccent.sc
Position2: "'cpsp' Capital Spacing lookup 0 subtable" dx=5 dy=0 dh=10 dv=0
EndChar
StartChar: gdotaccent
Encoding: 289 289 457
Width: 550
GlyphClass: 2
Flags: MW
HStem: -192 196<180 254.5> 0 21G<179 260> 507 20G<237.5 362> 693 15<339.5 343.5>
VStem: 334 15<699 702 698.5 702.5>
AnchorPoint: "Anchor-14" 0 0 basechar 0
AnchorPoint: "Anchor-13" 0 0 basechar 0
AnchorPoint: "Anchor-12" 343 708 basechar 0
AnchorPoint: "Anchor-11" 0 0 basechar 0
AnchorPoint: "Anchor-10" 211 -188 basechar 0
LayerCount: 2
Back
Fore
SplineSet
342 708 m 0x78
 347 708 349 704 349 700 c 0
 349 697 346 693 341 693 c 0
 337 693 334 697 334 701 c 0
 334 704 337 708 342 708 c 0x78
336 527 m 0
 388 527 429 511 463 487 c 1
 389 -10 l 2
 368 -152 298 -192 211 -192 c 0
 141 -192 84 -168 51 -146 c 1
 53 -142 l 1
 86 -164 141 -188 211 -188 c 0xb8
 296 -188 365 -149 385 -11 c 2
 406 130 l 1
 360 42 292 0 228 0 c 0
 130 0 75 84 75 196 c 0
 75 338 139 527 336 527 c 0
336 524 m 0
 141 524 79 336 79 196 c 0
 79 86 132 4 228 4 c 0xb8
 297 4 361 51 407 139 c 1
 459 485 l 1
 425 509 385 524 336 524 c 0
EndSplineSet
Substitution2: "'smcp' Lowercase to Small Capitals lookup 28 subtable" gdotaccent.sc
Substitution2: "'aalt' Access All Alternates lookup 0 subtable" gdotaccent.sc
EndChar
